<svg width="142" height="142" viewBox="0 0 142 142" fill="none" xmlns="http://www.w3.org/2000/svg">
<g clip-path="url(#clip0_1311_1134)">
<path d="M47.4583 110.156C46.4234 109.913 45.4675 109.411 44.6812 108.696C44.0119 108.062 43.5114 107.272 43.2252 106.395C42.9363 105.483 42.814 104.526 42.864 103.57C42.9615 101.5 43.504 99.4754 44.4547 97.6339C44.8915 96.7758 45.4826 96.0055 46.1985 95.3616C46.8893 94.748 47.7205 94.314 48.6188 94.0979C49.6573 93.8718 50.7364 93.9146 51.7537 94.2223C52.9315 94.5132 54.0062 95.1236 54.8593 95.9863C55.2897 96.4403 55.6061 96.9901 55.7825 97.5904C56.009 98.3835 56.1246 99.2041 56.1262 100.029L52.8841 99.9429C52.8491 99.3042 52.6805 98.68 52.3892 98.1106C52.2292 97.8355 52.0127 97.5975 51.7538 97.4125C51.4949 97.2275 51.1997 97.0996 50.8876 97.0373C50.5081 96.927 50.1066 96.9163 49.7218 97.0064C49.3673 97.0958 49.0366 97.2616 48.753 97.4922C48.4572 97.7347 48.197 98.0176 47.9799 98.3325C47.7492 98.6633 47.547 99.0132 47.3754 99.3782C47.2051 99.7385 47.0572 100.109 46.9328 100.488C46.8121 100.862 46.7098 101.201 46.6269 101.511C46.2003 102.793 46.1026 104.162 46.3429 105.492C46.4433 105.947 46.6745 106.363 47.008 106.689C47.3415 107.015 47.7628 107.236 48.2203 107.326C48.5706 107.427 48.9367 107.462 49.2998 107.429C49.6043 107.397 49.8996 107.305 50.168 107.158C50.4387 107.001 50.6883 106.811 50.9107 106.591C51.1676 106.342 51.41 106.078 51.6367 105.802L54.5485 107.454C54.1092 108.08 53.5958 108.651 53.0195 109.154C52.5351 109.563 51.9841 109.885 51.3904 110.108C50.1177 110.539 48.7411 110.556 47.4583 110.156ZM59.8961 113.488C58.7376 113.17 57.6818 112.556 56.8328 111.706C56.3517 111.256 55.9567 110.722 55.6672 110.13C55.3532 109.452 55.1476 108.729 55.0578 107.987L58.1661 107.516C58.2317 107.901 58.3242 108.28 58.443 108.652C58.5496 108.988 58.7065 109.305 58.9084 109.593C59.1094 109.876 59.3593 110.121 59.6464 110.317C59.9722 110.535 60.3336 110.695 60.7144 110.789C60.9989 110.868 61.2904 110.92 61.5848 110.942C61.8591 110.963 62.1349 110.934 62.3992 110.858C62.6503 110.784 62.8769 110.644 63.0558 110.453C63.2639 110.22 63.4093 109.939 63.4783 109.634C63.5417 109.366 63.5338 109.086 63.4555 108.822C63.3773 108.558 63.2313 108.319 63.0321 108.128C62.4861 107.524 61.8728 106.985 61.2041 106.52C60.0268 105.733 58.9804 104.766 58.1031 103.654C57.7819 103.179 57.5731 102.637 57.4925 102.069C57.4119 101.501 57.4615 100.922 57.6378 100.376C57.7855 99.7838 58.0687 99.2339 58.4651 98.7696C58.8614 98.3053 59.3602 97.9394 59.922 97.7006C61.1764 97.1468 62.588 97.062 63.8997 97.4619C65.0682 97.7558 66.1301 98.3737 66.963 99.2444C67.3756 99.6745 67.7105 100.173 67.9531 100.717C68.2305 101.364 68.4171 102.046 68.5076 102.744L65.187 102.861C65.1192 102.26 64.9283 101.68 64.6261 101.157C64.4562 100.905 64.2383 100.689 63.9849 100.521C63.7315 100.353 63.4475 100.237 63.1492 100.179C62.9205 100.119 62.686 100.082 62.4497 100.07C62.2193 100.056 61.9881 100.077 61.764 100.132C61.5351 100.187 61.326 100.304 61.1603 100.471C60.9947 100.638 60.8791 100.848 60.8267 101.078C60.771 101.296 60.7843 101.526 60.8645 101.736C60.9813 102.021 61.161 102.276 61.39 102.481C62.0059 103.074 62.6724 103.612 63.3821 104.088C64.4234 104.778 65.3423 105.636 66.1008 106.628C66.4928 107.133 66.7544 107.726 66.8626 108.356C66.9709 108.986 66.9223 109.632 66.7213 110.239C66.5824 110.909 66.2939 111.539 65.8774 112.081C65.4608 112.624 64.927 113.066 64.3158 113.374C62.902 113.931 61.3369 113.972 59.8961 113.488ZM70.3833 116.075L70.4324 99.449L73.7483 100.338L73.4598 111.465L78.89 101.715L82.2286 102.61L73.9374 117.027L70.3833 116.075ZM57.1072 28.943L79.7171 35.0013L77.8525 41.9601L55.2426 35.9018L57.1072 28.943ZM74.805 67.2442L95.1058 72.6838L93.2412 79.6426L72.9404 74.203L74.805 67.2442ZM77.6015 56.8078L97.9023 62.2473L96.0377 69.2061L75.7369 63.7666L77.6015 56.8078ZM54.3107 39.3794L76.9207 45.4378L75.0561 52.3965L52.4461 46.3382L54.3107 39.3794Z" fill="#5B9AFF"/>
<path d="M115.443 55.9144C115.418 55.8703 115.397 55.8088 115.372 55.7647C115.35 55.7046 115.322 55.647 115.287 55.593L97.0973 24.0872C97.0719 24.0431 97.029 23.9944 97.0036 23.9503C96.9781 23.9062 96.9225 23.8354 96.8971 23.7913L96.7108 23.4432L53.0315 11.7393C51.1868 11.2451 49.2214 11.5038 47.5675 12.4587C45.9136 13.4136 44.7068 14.9863 44.2125 16.831L20.9166 103.772C20.4224 105.617 20.6811 107.582 21.636 109.236C22.5909 110.89 24.1636 112.097 26.0083 112.591L88.606 129.364C90.4507 129.859 92.4162 129.6 94.07 128.645C95.7239 127.69 96.9307 126.117 97.425 124.273L115.652 56.2498L115.443 55.9144ZM96.1479 29.6475L109.997 53.6351L94.5564 49.4977C93.6357 49.2481 92.8511 48.6442 92.3741 47.818C91.8971 46.9918 91.7664 46.0105 92.0106 45.0882L96.1479 29.6475ZM48.5032 47.1471L54.0942 26.2812C54.2178 25.82 54.5195 25.4268 54.933 25.1881C55.3464 24.9494 55.8378 24.8847 56.299 25.0083L82.3814 31.997C82.8425 32.1206 83.2357 32.4223 83.4744 32.8358C83.7132 33.2492 83.7779 33.7406 83.6543 34.2018L78.5292 53.3289L100.574 59.2358C101.035 59.3593 101.428 59.661 101.667 60.0745C101.906 60.488 101.971 60.9793 101.847 61.4405L96.2536 82.3151C96.13 82.7763 95.8283 83.1695 95.4149 83.4082C95.0014 83.6469 94.51 83.7116 94.0489 83.588L44.1828 70.2264C43.7216 70.1029 43.3284 69.8012 43.0897 69.3877C42.851 68.9742 42.7863 68.4829 42.9099 68.0217L48.5032 47.1471ZM93.9474 123.341C93.6977 124.262 93.0938 125.046 92.2677 125.523C91.4415 126 90.4601 126.131 89.5379 125.887L26.9401 109.114C26.0194 108.864 25.2348 108.26 24.7578 107.434C24.2808 106.608 24.1501 105.626 24.3943 104.704L31.6347 77.6828L55.5087 84.0798L58.7639 90.7108C58.8753 90.9412 59.0354 91.1447 59.2333 91.3071C59.4311 91.4695 59.6619 91.587 59.9096 91.6514L99.5896 102.284L93.9474 123.341Z" fill="#5B9AFF"/>
<path d="M51.5137 49.8177L74.1236 55.876L72.259 62.8348L49.6491 56.7765L51.5137 49.8177ZM48.7172 60.2541L71.3272 66.3124L69.4626 73.2712L46.8526 67.2129L48.7172 60.2541Z" fill="#5B9AFF"/>
</g>
<defs>
<clipPath id="clip0_1311_1134">
<rect width="115.211" height="115.211" fill="white" transform="translate(30.0854) rotate(15)"/>
</clipPath>
</defs>
</svg>
