<svg width="147" height="148" viewBox="0 0 147 148" fill="none" xmlns="http://www.w3.org/2000/svg">
<g clip-path="url(#clip0_1311_1138)">
<path d="M124.244 114.256C124.704 115.972 123.679 117.746 121.963 118.206L53.1091 136.655C51.3934 137.115 49.6187 136.09 49.159 134.375L22.3135 34.1862C21.8538 32.4705 22.8784 30.6958 24.5941 30.2361L76.5396 16.3174L81.905 36.3415L101.929 30.9761L124.244 114.256Z" fill="white"/>
<path d="M75.6741 13.0893L23.7286 27.008C20.2295 27.9456 18.1472 31.5522 19.0848 35.0514L45.9302 135.24C46.8678 138.739 50.4745 140.821 53.9736 139.884L122.828 121.434C126.327 120.497 128.409 116.89 127.472 113.391L105.163 30.1338L75.6741 13.0893ZM124.243 114.256C124.703 115.972 123.679 117.746 121.963 118.206L53.1086 136.656C51.3929 137.115 49.6182 136.091 49.1585 134.375L22.313 34.1864C21.8533 32.4707 22.8779 30.696 24.5936 30.2362L76.5391 16.3175L81.9045 36.3417L101.929 30.9762L124.243 114.256Z" fill="#3A86FF"/>
<path d="M75.6746 13.0892L81.9111 36.3642L105.163 30.1337L75.6746 13.0892Z" fill="#3070D5"/>
<path d="M132.446 105.501L37.6754 130.895L29.0375 98.6572C28.4447 96.4448 29.7502 94.1835 31.9626 93.5907L118.719 70.3444C120.931 69.7516 123.193 71.0572 123.785 73.2696L132.423 105.507L132.446 105.501Z" fill="#3070D5"/>
<path d="M125.832 107.273L127.011 111.675L132.446 105.501L125.832 107.273Z" fill="#2759AA"/>
<path d="M44.2898 129.122L45.4694 133.524L37.6753 130.895L44.2898 129.122Z" fill="#2759AA"/>
<path d="M33.1257 97.6586L119.747 74.4486L127.278 102.555L40.6567 125.765L33.1257 97.6586Z" fill="#3A86FF"/>
<path d="M72.0973 31.614L32.1393 42.3207C31.7381 42.4282 31.3107 42.3719 30.951 42.1643C30.5914 41.9566 30.3289 41.6146 30.2214 41.2135C30.114 40.8123 30.1702 40.3849 30.3779 40.0252C30.5855 39.6656 30.9275 39.4031 31.3287 39.2956L71.2867 28.5889C71.6879 28.4814 72.1153 28.5377 72.475 28.7454C72.8346 28.953 73.0971 29.295 73.2045 29.6962C73.312 30.0973 73.2558 30.5247 73.0481 30.8844C72.8405 31.2441 72.4984 31.5065 72.0973 31.614Z" fill="#3A86FF"/>
<path d="M74.0321 38.8381L34.0741 49.5448C33.6729 49.6523 33.2455 49.5961 32.8858 49.3884C32.5262 49.1808 32.2637 48.8387 32.1563 48.4376C32.0488 48.0364 32.105 47.609 32.3127 47.2494C32.5203 46.8897 32.8624 46.6273 33.2635 46.5198L73.2215 35.813C73.6227 35.7056 74.0501 35.7618 74.4098 35.9695C74.7694 36.1771 75.0319 36.5191 75.1394 36.9203C75.2468 37.3214 75.1906 37.7489 74.9829 38.1085C74.7753 38.4682 74.4333 38.7306 74.0321 38.8381Z" fill="#3A86FF"/>
<path d="M97.0698 40.3838L36.004 56.7463C35.6029 56.8538 35.1754 56.7975 34.8158 56.5899C34.4561 56.3822 34.1937 56.0402 34.0862 55.6391C33.9787 55.2379 34.035 54.8105 34.2426 54.4508C34.4503 54.0912 34.7923 53.8287 35.1934 53.7212L96.2592 37.3587C96.6604 37.2512 97.0878 37.3075 97.4475 37.5151C97.8071 37.7228 98.0696 38.0648 98.1771 38.466C98.2845 38.8671 98.2283 39.2945 98.0206 39.6542C97.813 40.0139 97.471 40.2763 97.0698 40.3838Z" fill="#3A86FF"/>
<path d="M99.0058 47.6079L37.94 63.9704C37.5389 64.0779 37.1115 64.0217 36.7518 63.814C36.3922 63.6063 36.1297 63.2643 36.0222 62.8632C35.9147 62.462 35.971 62.0346 36.1787 61.675C36.3863 61.3153 36.7283 61.0529 37.1295 60.9454L98.1953 44.5828C98.5964 44.4753 99.0239 44.5316 99.3835 44.7393C99.7432 44.9469 100.006 45.2889 100.113 45.6901C100.221 46.0912 100.164 46.5186 99.9567 46.8783C99.749 47.238 99.407 47.5004 99.0058 47.6079Z" fill="#3A86FF"/>
<path d="M100.941 54.8319L39.8753 71.1944C39.4742 71.3019 39.0468 71.2456 38.6871 71.038C38.3275 70.8303 38.065 70.4883 37.9575 70.0872C37.85 69.686 37.9063 69.2586 38.114 68.8989C38.3216 68.5393 38.6636 68.2769 39.0648 68.1694L100.131 51.8068C100.532 51.6993 100.959 51.7556 101.319 51.9633C101.678 52.1709 101.941 52.5129 102.048 52.9141C102.156 53.3152 102.1 53.7426 101.892 54.1023C101.684 54.462 101.342 54.7244 100.941 54.8319Z" fill="#3A86FF"/>
<path d="M102.871 62.0334L41.805 78.3959C41.4039 78.5034 40.9765 78.4471 40.6168 78.2395C40.2571 78.0318 39.9947 77.6898 39.8872 77.2887C39.7797 76.8875 39.836 76.4601 40.0437 76.1004C40.2513 75.7408 40.5933 75.4783 40.9945 75.3708L102.06 59.0083C102.461 58.9008 102.889 58.9571 103.249 59.1647C103.608 59.3724 103.871 59.7144 103.978 60.1156C104.086 60.5167 104.029 60.9441 103.822 61.3038C103.614 61.6635 103.272 61.9259 102.871 62.0334Z" fill="#3A86FF"/>
<path d="M104.807 69.2575L43.7408 85.62C43.3397 85.7275 42.9123 85.6713 42.5526 85.4636C42.1929 85.256 41.9305 84.9139 41.823 84.5128C41.7155 84.1116 41.7718 83.6842 41.9794 83.3245C42.1871 82.9649 42.5291 82.7024 42.9303 82.595L103.996 66.2324C104.397 66.1249 104.825 66.1812 105.184 66.3889C105.544 66.5965 105.806 66.9385 105.914 67.3397C106.021 67.7408 105.965 68.1683 105.757 68.5279C105.55 68.8876 105.208 69.15 104.807 69.2575Z" fill="#3A86FF"/>
<path d="M64.4081 99.2694L67.0636 109.18C67.3903 110.399 67.3283 111.432 66.849 112.262C66.3697 113.092 65.5575 113.673 64.3836 113.987C64.1127 114.06 63.8809 114.098 63.6491 114.136C63.4173 114.173 63.1794 114.189 62.919 114.21L62.4374 111.871C62.6301 111.868 62.7716 111.854 62.9131 111.841C63.0546 111.827 63.1901 111.791 63.3933 111.736C63.7319 111.645 63.95 111.466 64.064 111.169C64.1781 110.873 64.1716 110.487 64.0446 110.013L61.3891 100.103L64.4141 99.292L64.4081 99.2694ZM63.7355 97.0301L60.6652 97.8527L60.1148 95.7984L63.185 94.9757L63.7355 97.0301Z" fill="white"/>
<path d="M74.4002 104.141C74.3336 103.893 74.1437 103.726 73.8184 103.595C73.4991 103.487 72.954 103.44 72.1893 103.475C71.0001 103.552 70.0289 103.449 69.3375 103.127C68.6235 102.81 68.1832 102.25 67.9594 101.415C67.7295 100.557 67.8911 99.7153 68.4563 98.9348C69.0153 98.1317 69.9074 97.5781 71.1491 97.2454C72.4584 96.8946 73.5755 96.9098 74.5004 97.2911C75.4252 97.6724 75.986 98.3206 76.2114 99.2522L76.201 99.3034L73.2436 100.096C73.1408 99.7121 72.9718 99.4428 72.7142 99.294C72.4566 99.1453 72.1164 99.1397 71.6874 99.2546C71.3714 99.3393 71.1247 99.5022 70.9473 99.7433C70.77 99.9844 70.7401 100.234 70.8127 100.505C70.8793 100.754 71.0752 100.943 71.3719 101.057C71.6686 101.171 72.2076 101.196 73.0175 101.148C74.2745 101.054 75.2517 101.179 75.9657 101.496C76.6571 101.819 77.126 102.395 77.3559 103.252C77.5918 104.133 77.4016 104.958 76.7627 105.734C76.1238 106.51 75.1865 107.076 73.8997 107.421C72.5678 107.778 71.416 107.723 70.467 107.252C69.518 106.78 68.9346 106.138 68.7559 105.291L68.7664 105.239L71.5432 104.495C71.6928 104.963 71.9129 105.243 72.2382 105.374C72.5636 105.504 72.9776 105.514 73.4743 105.381C73.8806 105.272 74.1725 105.097 74.3333 104.885C74.4264 104.691 74.4788 104.435 74.4002 104.141Z" fill="white"/>
<path d="M79.0603 100.497C78.6671 99.0297 78.7528 97.7244 79.3401 96.575C79.9274 95.4256 80.9577 94.6656 82.4477 94.2663C83.9377 93.8671 85.2326 94.0041 86.3158 94.7058C87.3991 95.4076 88.1261 96.4952 88.5193 97.9626L88.5677 98.1432C88.9608 99.6106 88.8811 100.939 88.2878 102.065C87.7005 103.215 86.6702 103.975 85.1802 104.374C83.6903 104.773 82.3954 104.636 81.3121 103.934C80.2288 103.233 79.5018 102.145 79.1087 100.678L79.0603 100.497ZM82.1849 99.8776C82.4027 100.69 82.7136 101.309 83.0889 101.716C83.4643 102.124 83.9763 102.229 84.5858 102.065C85.1728 101.908 85.5412 101.567 85.6851 101.021C85.8064 100.48 85.7724 99.8116 85.5547 98.9989L85.4942 98.7732C85.2825 97.983 84.9777 97.3872 84.5962 96.9571C84.2209 96.5496 83.7028 96.4222 83.0933 96.5855C82.4838 96.7489 82.1214 97.1121 82.0001 97.6527C81.8788 98.1933 81.9188 98.8843 82.1305 99.6745L82.1849 99.8776Z" fill="white"/>
<path d="M92.7171 91.6841L93.1989 93.0309C93.3819 92.4496 93.6854 91.9569 94.0644 91.565C94.4659 91.1671 94.9488 90.8925 95.5357 90.7352C96.4839 90.4812 97.3361 90.5916 98.0534 91.1011C98.7706 91.6106 99.3197 92.5764 99.6948 93.9761L101.274 99.8682L98.2259 100.685L96.6532 94.8153C96.4838 94.1832 96.2786 93.7785 96.0028 93.562C95.727 93.3455 95.4033 93.3113 95.0421 93.4081C94.7261 93.4928 94.4507 93.6391 94.2101 93.8246C93.992 94.004 93.8086 94.2225 93.6885 94.4967L95.5516 101.45L92.5039 102.266L89.8847 92.4914L92.7292 91.7292L92.7171 91.6841Z" fill="white"/>
</g>
<defs>
<clipPath id="clip0_1311_1138">
<rect width="119.662" height="119.662" fill="white" transform="translate(0 31.9141) rotate(-15)"/>
</clipPath>
</defs>
</svg>
