<svg width="110" height="110" viewBox="0 0 110 110" fill="none" xmlns="http://www.w3.org/2000/svg">
<path d="M109.678 28.0115V90.8662C109.675 93.3316 108.695 95.6954 106.952 97.4387C105.208 99.182 102.845 100.162 100.379 100.165H12.4609C9.2432 100.163 6.15765 98.8844 3.88176 96.6097C1.60587 94.335 0.32568 91.2502 0.322266 88.0324V21.9358C0.322921 21.2154 0.386905 20.4965 0.513477 19.7873C1.02619 16.9929 2.5025 14.4667 4.68548 12.6484C6.86845 10.8302 9.61988 9.83485 12.4609 9.83576H40.9449C43.0757 9.84502 45.1168 10.6942 46.6254 12.199L52.7979 18.3715C53.7047 19.2655 54.9233 19.7724 56.1967 19.7852H101.447C103.629 19.7874 105.72 20.6547 107.263 22.1969C108.806 23.739 109.674 25.8301 109.678 28.0115Z" fill="#9DC3FF"/>
<path d="M56.1969 19.7807H0.513672C1.02065 16.9841 2.49555 14.4551 4.67996 12.6368C6.86438 10.8185 9.61898 9.82681 12.4611 9.83557H40.9451C43.0759 9.84483 45.117 10.694 46.6256 12.1988L52.798 18.3713C53.7056 19.2638 54.9241 19.7691 56.1969 19.7807Z" fill="#7CAEFF"/>
<path d="M56.1969 19.7807H0.513672C0.611826 19.2417 0.746047 18.7098 0.91543 18.1887H52.6197L52.798 18.367C53.7049 19.2611 54.9235 19.7679 56.1969 19.7807Z" fill="#9DC3FF"/>
<path d="M55.8594 77.8379C55.8909 77.8061 55.9197 77.7716 55.9453 77.7348L55.9023 77.7928L55.8594 77.8379Z" fill="#4F504C"/>
<path d="M84.5882 59.9737C84.5882 76.4995 71.1433 89.9444 54.6175 89.9444C47.97 89.9466 41.5104 87.7392 36.2545 83.6692C30.9987 79.5991 27.2449 73.8975 25.5835 67.461C24.9686 65.0111 24.6547 62.4953 24.6489 59.9694C24.6489 43.4436 38.0938 29.9965 54.6196 29.9965C62.5686 29.9971 70.1917 33.1552 75.8122 38.7761C81.4328 44.3971 84.5903 52.0205 84.5903 59.9694L84.5882 59.9737Z" fill="#9DC3FF"/>
<path d="M53.5518 77.9325C53.5688 77.9506 53.5875 77.9672 53.6076 77.9819C53.5964 77.9739 53.5856 77.9653 53.5754 77.9561L53.5518 77.9325ZM55.8592 77.8379C55.8907 77.8061 55.9195 77.7716 55.9451 77.7348L55.9022 77.7928L55.8463 77.8551C55.8463 77.8551 55.8592 77.8444 55.8592 77.8379Z" fill="#4F504C"/>
<path d="M81.8104 59.9737C81.8078 66.5927 79.3918 72.9836 75.0152 77.9491C70.6386 82.9147 64.6016 86.114 58.0353 86.9477C51.469 87.7814 44.824 86.1924 39.3453 82.4782C33.8666 78.764 29.9301 73.1796 28.2734 66.7713C27.7116 64.5488 27.423 62.2661 27.4141 59.9737C27.422 52.7621 30.2909 45.8483 35.3911 40.7497C40.4913 35.6512 47.406 32.7844 54.6176 32.7787C61.8297 32.7793 68.7463 35.6447 73.8459 40.7447C78.9455 45.8447 81.8104 52.7615 81.8104 59.9737Z" fill="#3A86FF"/>
<path d="M65.2977 67.2633L56.2893 77.1139L56.3323 77.0559C56.3067 77.0926 56.2779 77.1272 56.2464 77.159C56.2464 77.159 56.2464 77.159 56.2335 77.1762L56.2142 77.1955C56.1929 77.2193 56.1699 77.2416 56.1454 77.2621C56.127 77.2824 56.1068 77.3011 56.0852 77.318C56.0471 77.3513 56.007 77.3821 55.9649 77.4104C55.9335 77.4334 55.9005 77.4542 55.8661 77.4727C55.7594 77.5388 55.6446 77.5908 55.5245 77.6274C55.3695 77.6762 55.2079 77.7008 55.0454 77.7004C54.9925 77.7036 54.9394 77.7036 54.8864 77.7004H54.8477C54.8116 77.6969 54.7757 77.6912 54.7403 77.6832C54.7096 77.6791 54.6794 77.6719 54.6501 77.6617C54.6308 77.6598 54.6119 77.6547 54.5942 77.6467C54.57 77.6415 54.5463 77.6343 54.5233 77.6252C54.4975 77.6182 54.4723 77.6088 54.4481 77.5973C54.4179 77.5866 54.3884 77.5737 54.3601 77.5586L54.3214 77.5393C54.2888 77.5242 54.2572 77.507 54.2268 77.4877C54.213 77.4814 54.2001 77.4735 54.1882 77.4641C54.1551 77.446 54.1241 77.4244 54.0958 77.3996C54.083 77.393 54.0714 77.3843 54.0614 77.3738C54.0359 77.3569 54.0122 77.3375 53.9905 77.3158C53.9704 77.3011 53.9517 77.2846 53.9347 77.2664L44.0433 68.2129C43.7279 67.9243 43.5401 67.5222 43.5211 67.0951C43.5022 66.6681 43.6537 66.2509 43.9423 65.9356C44.2309 65.6202 44.633 65.4324 45.06 65.4134C45.4871 65.3945 45.9042 65.546 46.2196 65.8346L53.4341 72.4324V43.8582C53.4341 43.4309 53.6038 43.021 53.906 42.7188C54.2082 42.4167 54.6181 42.2469 55.0454 42.2469C55.4728 42.2469 55.8826 42.4167 56.1848 42.7188C56.487 43.021 56.6567 43.4309 56.6567 43.8582V71.9383L62.9194 65.0977C63.208 64.7823 63.6101 64.5945 64.0372 64.5755C64.4643 64.5566 64.8814 64.7081 65.1968 64.9967C65.5122 65.2853 65.7 65.6874 65.7189 66.1145C65.7378 66.5415 65.5863 66.9587 65.2977 67.274V67.2633Z" fill="white"/>
<path d="M53.9258 77.2535C53.9428 77.2717 53.9615 77.2883 53.9816 77.303C53.9704 77.295 53.9596 77.2864 53.9494 77.2772L53.9258 77.2535Z" fill="#4F504C"/>
</svg>
