<svg width="184" height="156" viewBox="0 0 184 156" fill="none" xmlns="http://www.w3.org/2000/svg">
<path d="M3.03687 131.202C3.03687 134.424 4.31683 137.515 6.59518 139.793C8.87353 142.071 11.9636 143.351 15.1857 143.351H88.0788C91.3009 143.351 94.391 142.071 96.6694 139.793C98.9477 137.515 100.228 134.424 100.228 131.202V79.5698C100.228 76.3477 98.9477 73.2576 96.6694 70.9792C94.391 68.7009 91.3009 67.4209 88.0788 67.4209H60.7439C49.9254 67.4209 51.6323 52.2349 35.1189 52.2349H15.1857C11.9636 52.2349 8.87353 53.5148 6.59518 55.7932C4.31683 58.0715 3.03687 61.1616 3.03687 64.3837V131.202Z" fill="#3070D5"/>
<path d="M101.248 79.5697H81.318C64.8016 79.5697 64.9687 94.7558 54.1471 94.7558H26.8122C20.103 94.7558 14.1136 100.195 13.4302 106.905L11.9359 118.671L10.3444 131.202L10.2836 131.196C9.93437 133.037 8.24264 134.23 6.33527 134.23C4.38235 134.23 2.97611 132.691 3.0733 130.759C3.06723 130.908 3.03687 131.05 3.03687 131.202C3.04143 134.102 4.08602 136.904 5.9809 139.1C7.87577 141.295 10.4952 142.738 13.3634 143.166C13.9625 143.293 14.5734 143.355 15.1857 143.351H94.1533C100.862 143.351 106.855 137.912 107.535 131.202L112.164 91.7185C112.844 85.0093 107.957 79.5697 101.248 79.5697Z" fill="#5B9AFF"/>
<g clip-path="url(#clip0_1311_1093)">
<path opacity="0.3" d="M112.645 11.7894L96.8039 6.02372L88.0577 10.1021L79.6276 33.2638C79.2772 34.2263 79.773 35.2896 80.7355 35.6399L101.247 43.1054C102.209 43.4557 103.273 42.9599 103.623 41.9974L113.753 14.1655C114.103 13.2029 113.607 12.1397 112.645 11.7894ZM103.333 39.9883C102.837 41.3507 101.351 42.0608 100.022 41.5773L82.656 35.2565C81.3274 34.773 80.645 33.2734 81.1409 31.9109L88.5423 11.5758C88.5916 11.4403 88.6903 11.338 88.8129 11.2752L96.6174 7.50643C96.7493 7.4393 96.9046 7.43441 97.0402 7.48376L110.631 12.4303C111.959 12.9139 112.642 14.4135 112.146 15.776L103.333 39.9883Z" fill="#3A86FF"/>
<path d="M96.7787 5.43885L95.1553 9.89901C94.7038 11.1395 93.3263 11.7818 92.0858 11.3303L87.6257 9.70698L96.7787 5.43885Z" fill="#3A86FF"/>
<path d="M113.015 10.7727L96.9641 4.93052C96.8285 4.88118 96.68 4.88853 96.5505 4.94889L87.3975 9.21702C87.2681 9.27738 87.167 9.38643 87.1176 9.52199L78.611 32.8938C78.0584 34.4121 78.8473 36.1041 80.3657 36.6567L100.877 44.1222C102.395 44.6748 104.087 43.8859 104.64 42.3675L114.77 14.5356C115.323 13.0172 114.534 11.3253 113.015 10.7727ZM103.623 41.9975C103.273 42.96 102.21 43.4558 101.247 43.1055L80.7357 35.6399C79.7732 35.2896 79.2774 34.2264 79.6278 33.2639L88.0579 10.1022L96.8041 6.02376L112.645 11.7894C113.608 12.1398 114.103 13.203 113.753 14.1655L103.623 41.9975Z" fill="#2759AA"/>
<path d="M105.186 22.2011L90.5446 16.8721C90.2666 16.771 90.1201 16.4566 90.2212 16.1787C90.3224 15.9008 90.6367 15.7542 90.9146 15.8554L105.556 21.1844C105.834 21.2855 105.98 21.5999 105.879 21.8778C105.778 22.1557 105.464 22.3023 105.186 22.2011Z" fill="#3A86FF"/>
<path d="M103.409 27.0815L88.7682 21.7525C88.4903 21.6514 88.3437 21.337 88.4448 21.0591C88.546 20.7812 88.8603 20.6346 89.1383 20.7358L103.78 26.0647C104.057 26.1659 104.204 26.4802 104.103 26.7581C104.002 27.0361 103.687 27.1826 103.409 27.0815Z" fill="#7CAEFF"/>
<path d="M101.633 31.9619L86.9921 26.6329C86.7142 26.5318 86.5676 26.2174 86.6687 25.9395C86.7699 25.6616 87.0842 25.515 87.3621 25.6162L102.003 30.9452C102.281 31.0463 102.428 31.3607 102.327 31.6386C102.226 31.9165 101.911 32.0631 101.633 31.9619Z" fill="#9DC3FF"/>
<path opacity="0.3" d="M99.857 36.8424L85.2157 31.5134C84.9378 31.4122 84.7912 31.0979 84.8924 30.82C84.9935 30.542 85.3079 30.3955 85.5858 30.4966L100.227 35.8256C100.505 35.9268 100.652 36.2411 100.55 36.519C100.449 36.7969 100.135 36.9435 99.857 36.8424Z" fill="#3A86FF"/>
</g>
<g clip-path="url(#clip1_1311_1093)">
<path opacity="0.3" d="M161.092 38.3175L148.178 27.4816L138.564 28.3227L122.721 47.2042C122.062 47.9889 122.164 49.1576 122.949 49.816L139.67 63.8465C140.455 64.5049 141.623 64.4027 142.282 63.618L161.32 40.9292C161.978 40.1446 161.876 38.9759 161.092 38.3175ZM142.697 61.631C141.765 62.7416 140.125 62.9005 139.042 61.9917L124.885 50.1125C123.802 49.2037 123.673 47.5612 124.605 46.4505L138.515 29.8732C138.608 29.7627 138.736 29.7003 138.873 29.6832L147.495 28.8111C147.642 28.7931 147.79 28.8416 147.9 28.9343L158.98 38.2309C160.063 39.1397 160.191 40.7822 159.259 41.8929L142.697 61.631Z" fill="#3A86FF"/>
<path d="M148.355 26.9234L145.304 30.5593C144.455 31.5705 142.941 31.703 141.93 30.8545L138.294 27.8036L148.355 26.9234Z" fill="#3A86FF"/>
<path d="M161.787 37.4886L148.702 26.5089C148.591 26.4162 148.449 26.3723 148.307 26.3847L138.246 27.2649C138.104 27.2774 137.972 27.3453 137.879 27.4558L121.892 46.5087C120.853 47.7464 121.016 49.6062 122.253 50.6448L138.974 64.6753C140.212 65.714 142.072 65.5513 143.111 64.3135L162.149 41.6247C163.187 40.3869 163.025 38.5272 161.787 37.4886ZM142.282 63.618C141.623 64.4026 140.455 64.5049 139.67 63.8465L122.949 49.8159C122.164 49.1575 122.062 47.9888 122.72 47.2042L138.564 28.3226L148.178 27.4815L161.091 38.3174C161.876 38.9758 161.978 40.1445 161.32 40.9292L142.282 63.618Z" fill="#2759AA"/>
<path d="M150.522 45.5501L138.586 35.5349C138.359 35.3448 138.329 34.9993 138.519 34.7727C138.709 34.5462 139.055 34.5159 139.281 34.706L151.217 44.7212C151.444 44.9113 151.474 45.2569 151.284 45.4834C151.094 45.71 150.748 45.7402 150.522 45.5501Z" fill="#3A86FF"/>
<path d="M147.182 49.5287L135.247 39.5135C135.02 39.3234 134.99 38.9779 135.18 38.7513C135.37 38.5248 135.715 38.4946 135.942 38.6847L147.878 48.6999C148.104 48.89 148.134 49.2355 147.944 49.4621C147.754 49.6886 147.409 49.7188 147.182 49.5287Z" fill="#7CAEFF"/>
<path d="M143.844 53.5073L131.909 43.4921C131.682 43.302 131.652 42.9565 131.842 42.7299C132.032 42.5034 132.378 42.4731 132.604 42.6632L144.54 52.6785C144.766 52.8686 144.797 53.2141 144.606 53.4406C144.416 53.6672 144.071 53.6974 143.844 53.5073Z" fill="#9DC3FF"/>
<path opacity="0.3" d="M140.506 57.4858L128.571 47.4706C128.344 47.2805 128.314 46.935 128.504 46.7084C128.694 46.4819 129.04 46.4517 129.266 46.6418L141.202 56.657C141.428 56.8471 141.459 57.1926 141.269 57.4192C141.078 57.6457 140.733 57.6759 140.506 57.4858Z" fill="#3A86FF"/>
</g>
<g clip-path="url(#clip2_1311_1093)">
<path opacity="0.3" d="M44.8908 9.29924L29.0498 15.0649L24.9713 23.8111L33.4015 46.9728C33.7518 47.9353 34.8151 48.4311 35.7776 48.0808L56.2889 40.6153C57.2514 40.2649 57.7472 39.2017 57.3969 38.2392L47.2669 10.4072C46.9166 9.4447 45.8533 8.94891 44.8908 9.29924ZM55.8835 36.8863C56.3794 38.2487 55.697 39.7483 54.3685 40.2319L37.0023 46.5527C35.6737 47.0362 34.1871 46.3261 33.6912 44.9636L26.2898 24.6285C26.2405 24.493 26.2503 24.3512 26.3039 24.2243L29.8599 16.3206C29.9178 16.1844 30.0337 16.0809 30.1692 16.0315L43.7598 11.0849C45.0884 10.6014 46.5751 11.3115 47.071 12.674L55.8835 36.8863Z" fill="#3A86FF"/>
<path d="M28.6544 14.633L30.2778 19.0932C30.7293 20.3336 30.0869 21.7112 28.8465 22.1627L24.3863 23.786L28.6544 14.633Z" fill="#3A86FF"/>
<path d="M44.5208 8.28245L28.4697 14.1246C28.3341 14.1739 28.2251 14.275 28.1647 14.4045L23.8966 23.5575C23.8362 23.6869 23.8289 23.8355 23.8782 23.971L32.3849 47.3428C32.9375 48.8612 34.6294 49.6501 36.1478 49.0975L56.6591 41.632C58.1774 41.0794 58.9664 39.3874 58.4138 37.8691L48.2838 10.0371C47.7311 8.51877 46.0392 7.72981 44.5208 8.28245ZM57.397 38.2391C57.7473 39.2017 57.2515 40.2649 56.289 40.6152L35.7777 48.0807C34.8152 48.4311 33.7519 47.9353 33.4016 46.9728L24.9715 23.8111L29.0499 15.0649L44.8909 9.2992C45.8534 8.94887 46.9167 9.44466 47.267 10.4072L57.397 38.2391Z" fill="#2759AA"/>
<path d="M45.8698 22.0696L31.2285 27.3986C30.9506 27.4997 30.6363 27.3531 30.5351 27.0752C30.434 26.7973 30.5806 26.483 30.8585 26.3818L45.4997 21.0528C45.7776 20.9517 46.092 21.0982 46.1931 21.3762C46.2943 21.6541 46.1477 21.9684 45.8698 22.0696Z" fill="#3A86FF"/>
<path d="M47.6462 26.9499L33.0049 32.2789C32.727 32.3801 32.4127 32.2335 32.3115 31.9556C32.2103 31.6777 32.3569 31.3633 32.6348 31.2622L47.2761 25.9332C47.554 25.832 47.8684 25.9786 47.9695 26.2565C48.0707 26.5344 47.9241 26.8488 47.6462 26.9499Z" fill="#7CAEFF"/>
<path d="M49.4223 31.8304L34.781 37.1594C34.5031 37.2605 34.1888 37.1139 34.0876 36.836C33.9865 36.5581 34.1331 36.2438 34.411 36.1426L49.0522 30.8136C49.3301 30.7125 49.6445 30.859 49.7456 31.137C49.8468 31.4149 49.7002 31.7292 49.4223 31.8304Z" fill="#9DC3FF"/>
<path opacity="0.3" d="M51.1991 36.7107L36.5579 42.0397C36.28 42.1409 35.9656 41.9943 35.8645 41.7164C35.7633 41.4385 35.9099 41.1241 36.1878 41.023L50.8291 35.694C51.107 35.5928 51.4213 35.7394 51.5225 36.0173C51.6236 36.2952 51.4771 36.6096 51.1991 36.7107Z" fill="#3A86FF"/>
</g>
<g clip-path="url(#clip3_1311_1093)">
<path opacity="0.3" d="M180.668 106.289L177.741 89.6872L169.836 84.152L145.562 88.4321C144.553 88.61 143.88 89.5709 144.058 90.5797L147.849 112.076C148.027 113.085 148.987 113.757 149.996 113.58L179.164 108.436C180.173 108.259 180.846 107.298 180.668 106.289ZM151.591 112.324C150.164 112.576 148.805 111.643 148.56 110.251L145.351 92.0511C145.105 90.6588 146.063 89.318 147.49 89.0663L168.802 85.3085C168.944 85.2834 169.082 85.3177 169.197 85.3925L176.364 90.267C176.488 90.3477 176.569 90.4797 176.595 90.6218L179.106 104.865C179.351 106.257 178.394 107.598 176.966 107.85L151.591 112.324Z" fill="#3A86FF"/>
<path d="M178.235 89.3732L173.561 90.1974C172.261 90.4266 171.016 89.5548 170.787 88.2548L169.962 83.5805L178.235 89.3732Z" fill="#3A86FF"/>
<path d="M181.734 106.101L178.768 89.2789C178.743 89.1368 178.662 89.0119 178.545 88.93L170.272 83.1373C170.155 83.0554 170.01 83.0223 169.868 83.0474L145.374 87.3663C143.783 87.6469 142.712 89.1761 142.993 90.7674L146.783 112.263C147.064 113.855 148.593 114.925 150.184 114.645L179.352 109.502C180.944 109.221 182.014 107.692 181.734 106.101ZM149.996 113.579C148.987 113.757 148.027 113.084 147.849 112.076L144.058 90.5795C143.88 89.5707 144.553 88.6098 145.562 88.4319L169.836 84.1518L177.741 89.687L180.668 106.289C180.846 107.297 180.173 108.258 179.164 108.436L149.996 113.579Z" fill="#2759AA"/>
<path d="M167.922 105.035L165.216 89.6908C165.165 89.3995 165.364 89.1154 165.655 89.064C165.946 89.0127 166.231 89.2116 166.282 89.5029L168.988 104.847C169.039 105.138 168.84 105.422 168.549 105.474C168.257 105.525 167.973 105.326 167.922 105.035Z" fill="#3A86FF"/>
<path d="M162.806 105.936L160.101 90.5921C160.05 90.3009 160.248 90.0168 160.54 89.9654C160.831 89.914 161.115 90.113 161.166 90.4042L163.872 105.748C163.923 106.04 163.724 106.324 163.433 106.375C163.142 106.427 162.858 106.228 162.806 105.936Z" fill="#7CAEFF"/>
<path d="M157.692 106.838L154.987 91.4943C154.935 91.203 155.134 90.9189 155.425 90.8676C155.717 90.8162 156.001 91.0151 156.052 91.3064L158.758 106.651C158.809 106.942 158.61 107.226 158.319 107.277C158.028 107.329 157.744 107.13 157.692 106.838Z" fill="#9DC3FF"/>
<path opacity="0.3" d="M152.578 107.741L149.872 92.3965C149.821 92.1052 150.02 91.8211 150.311 91.7697C150.602 91.7184 150.886 91.9173 150.938 92.2086L153.643 107.553C153.695 107.844 153.496 108.128 153.204 108.179C152.913 108.231 152.629 108.032 152.578 107.741Z" fill="#3A86FF"/>
</g>
<defs>
<clipPath id="clip0_1311_1093">
<rect width="36.9325" height="36.9325" fill="white" transform="translate(85.6318) rotate(20)"/>
</clipPath>
<clipPath id="clip1_1311_1093">
<rect width="36.9325" height="36.9325" fill="white" transform="translate(139.74 18) rotate(40)"/>
</clipPath>
<clipPath id="clip2_1311_1093">
<rect width="36.9325" height="36.9325" fill="white" transform="translate(16.6196 17.6317) rotate(-20)"/>
</clipPath>
<clipPath id="clip3_1311_1093">
<rect width="36.9325" height="36.9325" fill="white" transform="translate(177.372 77) rotate(80)"/>
</clipPath>
</defs>
</svg>
