<svg width="26" height="27" viewBox="0 0 26 27" fill="none" xmlns="http://www.w3.org/2000/svg">
<path d="M9 2.5H17V0.5H9V2.5ZM24 9.5V17.5H26V9.5H24ZM17 24.5H9V26.5H17V24.5ZM2 17.5V9.5H0V17.5H2ZM9 24.5C5.13401 24.5 2 21.366 2 17.5H0C0 22.4706 4.02944 26.5 9 26.5V24.5ZM24 17.5C24 21.366 20.866 24.5 17 24.5V26.5C21.9706 26.5 26 22.4706 26 17.5H24ZM17 2.5C20.866 2.5 24 5.63401 24 9.5H26C26 4.52944 21.9706 0.5 17 0.5V2.5ZM9 0.5C4.02944 0.5 0 4.52944 0 9.5H2C2 5.63401 5.13401 2.5 9 2.5V0.5Z" fill="#171717"/>
</svg>
