<svg width="40" height="56" viewBox="0 0 40 56" fill="none" xmlns="http://www.w3.org/2000/svg">
<g clip-path="url(#clip0_650_1739)">
<path fill-rule="evenodd" clip-rule="evenodd" d="M3.6256 0C1.62305 0 0 1.98834 0 4.44051V51.5595C0 54.0125 1.62305 56 3.6256 56H36.3397C38.3415 56 39.966 54.0125 39.966 51.5595V17.7743L26.4563 0H3.6256V0Z" fill="#45B058"/>
<path d="M14.4889 37.8035C14.579 37.9296 14.6304 38.0871 14.6304 38.2604C14.6304 38.5912 14.4118 38.8905 14.128 38.8905C13.9994 38.8905 13.8579 38.8275 13.7678 38.6857C13.2661 37.9453 12.4163 37.4719 11.6188 37.4719C9.73985 37.4719 8.3119 39.237 8.3119 41.7426C8.3119 44.2324 9.74056 46.0124 11.6188 46.0124C12.4292 46.0124 13.2268 45.5871 13.7678 44.8144C13.8572 44.6883 13.9994 44.6105 14.128 44.6105C14.4246 44.6105 14.6304 44.9246 14.6304 45.2563C14.6304 45.4138 14.579 45.5714 14.4889 45.6974C13.8193 46.548 12.9059 47.179 11.6195 47.179C9.1488 47.179 7.20557 44.9728 7.20557 41.7426C7.20557 38.5124 9.1488 36.3062 11.6195 36.3062C12.9059 36.307 13.8321 36.9371 14.4889 37.8035ZM19.3502 47.1799C18.0767 47.1799 17.0725 46.6601 16.3393 45.8715C16.2235 45.7455 16.172 45.5722 16.172 45.399C16.172 45.083 16.365 44.7365 16.6737 44.7365C16.7767 44.7365 16.8924 44.768 16.9825 44.8625C17.5742 45.5092 18.3976 46.0124 19.3888 46.0124C20.9204 46.0124 21.4092 45.0043 21.4092 44.2C21.4092 41.4897 16.3264 42.9871 16.3264 39.2362C16.3264 37.5034 17.5871 36.321 19.2731 36.321C20.3794 36.321 21.3321 36.7297 22.0267 37.4395C22.1425 37.5655 22.2068 37.7388 22.2068 37.9121C22.2068 38.2271 21.9881 38.5422 21.7044 38.5422C21.6015 38.5422 21.4857 38.4949 21.3957 38.4004C20.7653 37.7703 19.9806 37.4867 19.1952 37.4867C18.166 37.4867 17.432 38.1641 17.432 39.1574C17.432 41.5212 22.5149 40.1656 22.5149 44.0897C22.5156 45.6195 21.6665 47.1799 19.3502 47.1799ZM31.4956 37.331L28.5232 46.3756C28.3817 46.801 28.0337 47.0845 27.6742 47.0845H27.6485C27.2754 47.0845 26.9281 46.801 26.7858 46.3756L23.8256 37.331C23.7999 37.2522 23.787 37.1734 23.787 37.0789C23.787 36.7639 24.0179 36.3849 24.3659 36.3849C24.5846 36.3849 24.7904 36.5424 24.8805 36.8102L27.6599 45.5547L30.4393 36.8102C30.5165 36.5582 30.7223 36.3849 30.9539 36.3849C31.2884 36.3849 31.5328 36.7157 31.5328 37.0789C31.5335 37.1577 31.5206 37.2522 31.4956 37.331Z" fill="white"/>
<path fill-rule="evenodd" clip-rule="evenodd" d="M39.9992 17.8153V18.6904H30.8512C30.8512 18.6904 26.3401 17.5877 26.4716 12.8208C26.4716 12.8208 26.6202 17.8153 30.7618 17.8153H39.9992Z" fill="#349C42"/>
<path opacity="0.5" fill-rule="evenodd" clip-rule="evenodd" d="M26.4893 0.00488281V12.7479C26.4893 14.1972 27.2783 17.8159 30.8517 17.8159H39.9997L26.4893 0.00488281Z" fill="white"/>
</g>
<defs>
<clipPath id="clip0_650_1739">
<rect width="40" height="56" fill="white"/>
</clipPath>
</defs>
</svg>
