<svg width="40" height="56" viewBox="0 0 40 56" fill="none" xmlns="http://www.w3.org/2000/svg">
<path opacity="0.4" d="M39.1976 34.7007H35.7172V16.1982C35.7172 15.564 35.5009 14.9558 35.1159 14.5076L23.2632 0.700402C22.8785 0.251852 22.3563 0 21.812 0H2.05253C0.918987 0 0 1.07053 0 2.391V53.609C0 54.9295 0.918987 56 2.05253 56H33.6647C34.7982 56 35.7172 54.9295 35.7172 53.609V47.7248H39.1976C39.6408 47.7248 40 47.3063 40 46.7902V35.6354C40 35.1193 39.6408 34.7007 39.1976 34.7007ZM31.6123 51.218H4.10506V4.78199H20.7089V15.117C20.7089 16.4375 21.6279 17.508 22.7615 17.508H31.6123V34.7007H16.1774C15.7343 34.7007 15.3751 35.1193 15.3751 35.6354V46.7902C15.3751 47.3063 15.7343 47.7248 16.1774 47.7248H31.6123V51.218ZM36.1713 45.5564H31.0506H31.0288H29.6744L27.5804 42.1804L25.4948 45.5564H24.3464H24.12H19.2038V36.8692H24.2158V38.174H20.3237V40.4463H23.7866V41.7511H20.3237V44.2518H24.3463V45.1902L26.8925 41.0762L24.299 36.8692H25.6718L27.5803 39.9622L29.4971 36.8692H30.8714L28.267 41.0762L31.0287 45.5214V36.8692H36.0408V38.174H32.1488V40.4463H35.6117V41.7511H32.1488V44.2518H36.1713V45.5564Z" fill="white"/>
</svg>
