<svg width="24" height="24" viewBox="0 0 24 24" fill="none" xmlns="http://www.w3.org/2000/svg">
<path d="M22.909 8.20355V3.25082C22.909 1.71264 22.2108 1.09082 20.4762 1.09082H16.069C14.3344 1.09082 13.6362 1.71264 13.6362 3.25082V8.19264C13.6362 9.74173 14.3344 10.3526 16.069 10.3526H20.4762C22.2108 10.3635 22.909 9.74173 22.909 8.20355Z" stroke="#9DC3FF" stroke-width="1.5" stroke-linecap="round" stroke-linejoin="round"/>
<path d="M22.909 20.4762V16.069C22.909 14.3344 22.2108 13.6362 20.4762 13.6362H16.069C14.3344 13.6362 13.6362 14.3344 13.6362 16.069V20.4762C13.6362 22.2108 14.3344 22.909 16.069 22.909H20.4762C22.2108 22.909 22.909 22.2108 22.909 20.4762Z" stroke="#9DC3FF" stroke-width="1.5" stroke-linecap="round" stroke-linejoin="round"/>
<path d="M10.3635 8.20355V3.25082C10.3635 1.71264 9.66537 1.09082 7.93082 1.09082H3.52355C1.789 1.09082 1.09082 1.71264 1.09082 3.25082V8.19264C1.09082 9.74173 1.789 10.3526 3.52355 10.3526H7.93082C9.66537 10.3635 10.3635 9.74173 10.3635 8.20355Z" stroke="#9DC3FF" stroke-width="1.5" stroke-linecap="round" stroke-linejoin="round"/>
<path d="M10.3635 20.4762V16.069C10.3635 14.3344 9.66537 13.6362 7.93082 13.6362H3.52355C1.789 13.6362 1.09082 14.3344 1.09082 16.069V20.4762C1.09082 22.2108 1.789 22.909 3.52355 22.909H7.93082C9.66537 22.909 10.3635 22.2108 10.3635 20.4762Z" stroke="#9DC3FF" stroke-width="1.5" stroke-linecap="round" stroke-linejoin="round"/>
</svg>
