<svg width="24" height="25" viewBox="0 0 24 25" fill="none" xmlns="http://www.w3.org/2000/svg">
<g clip-path="url(#clip0_678_545)">
<path d="M22.909 12.4999C22.909 6.47498 18.0248 1.59082 11.9999 1.59082C5.97498 1.59082 1.09082 6.47498 1.09082 12.4999C1.09082 18.5248 5.97498 23.409 11.9999 23.409C18.0248 23.409 22.909 18.5248 22.909 12.4999Z" stroke="#2C2D28" stroke-width="2"/>
<path d="M9.27295 8.91966C9.42007 8.53174 9.64236 8.18402 9.92086 7.89653C10.4309 7.37003 11.1293 7.04541 11.8999 7.04541C13.4615 7.04541 14.7275 8.3791 14.7275 10.0243C14.7275 11.4743 13.7441 12.6822 12.4417 12.9485C12.1466 13.0089 11.8999 13.2474 11.8999 13.5486V14.6818" stroke="#2C2D28" stroke-width="2" stroke-linecap="round"/>
<path d="M12.0001 19.318C12.6026 19.318 13.091 18.8296 13.091 18.2271C13.091 17.6246 12.6026 17.1362 12.0001 17.1362C11.3976 17.1362 10.9092 17.6246 10.9092 18.2271C10.9092 18.8296 11.3976 19.318 12.0001 19.318Z" fill="#2C2D28"/>
</g>
<defs>
<clipPath id="clip0_678_545">
<rect width="24" height="24" fill="white" transform="translate(0 0.5)"/>
</clipPath>
</defs>
</svg>
