<svg width="40" height="56" viewBox="0 0 40 56" fill="none" xmlns="http://www.w3.org/2000/svg">
<path d="M24.1377 44.4024C23.9314 44.1031 23.6959 43.8878 23.4328 43.7555C23.1697 43.6233 22.8923 43.5576 22.5999 43.5576C22.3003 43.5576 22.015 43.6184 21.743 43.742C21.471 43.8656 21.2283 44.0742 21.0141 44.3687C20.7999 44.6631 20.631 45.0436 20.5101 45.5109C20.3883 45.9772 20.3234 46.5488 20.3154 47.2266C20.3234 47.887 20.3865 48.4499 20.5039 48.9162C20.6212 49.3826 20.783 49.763 20.9901 50.0584C21.1972 50.3539 21.4319 50.5682 21.695 50.7053C21.9581 50.8424 22.2354 50.91 22.5279 50.91C22.8274 50.91 23.1128 50.8463 23.3848 50.7189C23.6568 50.5914 23.8994 50.3819 24.1137 50.0922C24.3279 49.8026 24.4968 49.4212 24.6177 48.95C24.7385 48.4789 24.8043 47.9053 24.8123 47.2275C24.8043 46.5671 24.7412 46.0062 24.6239 45.5447C24.5065 45.0831 24.3448 44.7018 24.1377 44.4024Z" fill="#3A86FF"/>
<path d="M40 37.6552V13.496C40 12.7564 39.9182 12.209 39.5111 11.7658L29.1671 0.531034C28.8569 0.194069 28.4267 0 27.9867 0H2.18933C1.13511 0 0 0.884414 0 2.8251V37.6552H40ZM20.4444 31.8621C20.4444 32.395 20.0471 32.8276 19.5556 32.8276C19.064 32.8276 18.6667 32.395 18.6667 31.8621V28.9655C18.6667 28.4325 19.064 28 19.5556 28C20.0471 28 20.4444 28.4325 20.4444 28.9655V31.8621ZM27.5556 3.27407C27.5556 2.83186 28.0471 2.61076 28.3351 2.92358L37.3084 12.6705C37.5964 12.9833 37.3929 13.5172 36.9858 13.5172H27.5556V3.27407ZM26.6667 23.1724V19.3103C26.6667 18.7783 26.2684 18.3448 25.7778 18.3448C25.2862 18.3448 24.8889 17.9123 24.8889 17.3793C24.8889 16.8463 25.2862 16.4138 25.7778 16.4138C27.248 16.4138 28.4444 17.7134 28.4444 19.3103V23.1724C28.4444 24.2374 29.2418 25.1034 30.2222 25.1034C30.7138 25.1034 31.1111 25.536 31.1111 26.069C31.1111 26.6019 30.7138 27.0345 30.2222 27.0345C29.2418 27.0345 28.4444 27.9005 28.4444 28.9655V32.8276C28.4444 34.4245 27.248 35.7241 25.7778 35.7241C25.2862 35.7241 24.8889 35.2916 24.8889 34.7586C24.8889 34.2256 25.2862 33.7931 25.7778 33.7931C26.2684 33.7931 26.6667 33.3596 26.6667 32.8276V28.9655C26.6667 27.8069 27.1484 26.7776 27.8951 26.069C27.1484 25.3603 26.6667 24.331 26.6667 23.1724ZM19.5556 21.2414C20.2916 21.2414 20.8889 21.8902 20.8889 22.6896C20.8889 23.4891 20.2916 24.1379 19.5556 24.1379C18.8196 24.1379 18.2222 23.4891 18.2222 22.6896C18.2222 21.8902 18.8196 21.2414 19.5556 21.2414ZM8.88889 25.1034C9.86933 25.1034 10.6667 24.2374 10.6667 23.1724V19.3103C10.6667 17.7134 11.8631 16.4138 13.3333 16.4138C13.8249 16.4138 14.2222 16.8463 14.2222 17.3793C14.2222 17.9123 13.8249 18.3448 13.3333 18.3448C12.8427 18.3448 12.4444 18.7783 12.4444 19.3103V23.1724C12.4444 24.331 11.9627 25.3603 11.216 26.069C11.9627 26.7776 12.4444 27.8069 12.4444 28.9655V32.8276C12.4444 33.3596 12.8427 33.7931 13.3333 33.7931C13.8249 33.7931 14.2222 34.2256 14.2222 34.7586C14.2222 35.2916 13.8249 35.7241 13.3333 35.7241C11.8631 35.7241 10.6667 34.4245 10.6667 32.8276V28.9655C10.6667 27.9005 9.86933 27.0345 8.88889 27.0345C8.39733 27.0345 8 26.6019 8 26.069C8 25.536 8.39733 25.1034 8.88889 25.1034Z" fill="#3A86FF"/>
<path d="M0 39.5864V54.0692C0 55.0434 1.08444 56.0002 2.18933 56.0002H37.8107C38.9156 56.0002 40 55.0434 40 54.0692V39.5864H0ZM10.2409 49.7881C10.2409 50.2457 10.1636 50.631 10.0098 50.9428C9.856 51.2547 9.64978 51.5057 9.39022 51.695C9.13067 51.8842 8.83289 52.0165 8.49689 52.0908C8.16089 52.1652 7.81422 52.2028 7.45778 52.2028C7.28 52.2028 7.07022 52.1826 6.832 52.143C6.59378 52.1034 6.34578 52.0426 6.09067 51.9586C5.83556 51.8746 5.59022 51.7799 5.35556 51.6747C5.12089 51.5695 4.92267 51.4507 4.76 51.3184L5.37956 50.2496C5.46044 50.3104 5.576 50.3751 5.72622 50.4408C5.87644 50.5064 6.04089 50.5682 6.21867 50.6252C6.39644 50.6821 6.58311 50.7324 6.77778 50.7768C6.97244 50.8212 7.15467 50.8424 7.32444 50.8424C7.75378 50.8424 8.096 50.7517 8.35111 50.5721C8.60622 50.3925 8.74133 50.0855 8.75822 49.6548V42.2097H10.2409V49.7881ZM17.296 50.4948C17.1627 50.825 16.9742 51.1157 16.7307 51.3657C16.4871 51.6158 16.1884 51.8166 15.8311 51.9663C15.4738 52.1159 15.0702 52.1903 14.616 52.1903C14.4213 52.1903 14.2213 52.1787 14.0142 52.1575C13.8071 52.1362 13.5991 52.0976 13.3884 52.0455C13.1778 51.9923 12.9769 51.9199 12.7867 51.8272C12.5964 51.7346 12.4329 51.6226 12.2942 51.4903L12.5493 50.3548C12.6631 50.4253 12.8062 50.4939 12.9804 50.5595C13.1547 50.6252 13.3342 50.687 13.5209 50.7439C13.7076 50.8009 13.8933 50.8472 14.08 50.883C14.2667 50.9187 14.44 50.9361 14.6027 50.9361C15.0969 50.9361 15.4756 50.8106 15.7387 50.5595C16.0018 50.3085 16.1333 49.9368 16.1333 49.4444C16.1333 49.145 16.0409 48.8901 15.8542 48.6787C15.6676 48.4672 15.4347 48.2761 15.1556 48.1042C14.8764 47.9324 14.5742 47.7615 14.2498 47.5896C13.9253 47.4177 13.6222 47.215 13.3387 46.9823C13.0551 46.7496 12.8204 46.4744 12.6338 46.1577C12.4471 45.841 12.3547 45.4452 12.3547 44.9701C12.3547 44.5395 12.4276 44.1562 12.5733 43.8221C12.7191 43.4881 12.9156 43.2033 13.1627 42.9706C13.4098 42.7379 13.6978 42.5593 14.0258 42.4357C14.3538 42.3121 14.7004 42.2513 15.0649 42.2513C15.4373 42.2513 15.8142 42.2889 16.1947 42.3633C16.5751 42.4376 16.8827 42.5593 17.1182 42.7263C17.0693 42.8402 17.0133 42.9657 16.9484 43.1028C16.8836 43.2399 16.8222 43.3664 16.7662 43.4852C16.7102 43.6039 16.6613 43.7034 16.6204 43.7826C16.5796 43.8617 16.5556 43.9061 16.5476 43.9148C16.4987 43.8888 16.4444 43.854 16.3831 43.8096C16.3218 43.7652 16.2356 43.7217 16.1218 43.6773C16.008 43.6329 15.8587 43.603 15.672 43.5846C15.4853 43.5663 15.2462 43.5711 14.9547 43.5981C14.792 43.6165 14.6391 43.6657 14.4924 43.7497C14.3458 43.8337 14.2169 43.9361 14.1031 44.0597C13.9893 44.1832 13.9004 44.3213 13.8356 44.4758C13.7707 44.6303 13.7387 44.778 13.7387 44.918C13.7387 45.2695 13.8311 45.5533 14.0178 45.7696C14.2044 45.9859 14.4356 46.1741 14.7102 46.3373C14.9849 46.5005 15.2853 46.6588 15.6098 46.8124C15.9342 46.9659 16.2356 47.1541 16.5156 47.3733C16.7956 47.5925 17.0276 47.8686 17.2142 48.1979C17.4009 48.5271 17.4933 48.9519 17.4933 49.4714C17.4969 49.8238 17.4293 50.1646 17.296 50.4948ZM26.0098 49.3922C25.8196 50.0169 25.5556 50.5364 25.2196 50.9496C24.8836 51.3628 24.4907 51.6757 24.0409 51.8871C23.5911 52.0986 23.0987 52.2038 22.5644 52.2038C22.0302 52.2038 21.5378 52.0986 21.088 51.8871C20.6382 51.6757 20.2453 51.3638 19.9093 50.9496C19.5733 50.5354 19.3093 50.0169 19.1191 49.3922C18.9289 48.7675 18.8338 48.0453 18.8338 47.2275C18.8338 46.4097 18.9289 45.6895 19.1191 45.0696C19.3093 44.4497 19.5733 43.9322 19.9093 43.519C20.2453 43.1057 20.6382 42.791 21.088 42.5747C21.5378 42.3584 22.0302 42.2513 22.5644 42.2513C23.0987 42.2513 23.5911 42.3584 24.0409 42.5747C24.4907 42.791 24.8836 43.1048 25.2196 43.519C25.5556 43.9332 25.8196 44.4497 26.0098 45.0696C26.2 45.6895 26.2951 46.4097 26.2951 47.2275C26.2951 48.0453 26.2 48.7675 26.0098 49.3922ZM34.8267 52.1381H33.344L29.832 45.4326V52.1381H28.3493V42.4096H29.832L33.344 49.1151V42.4096H34.8267V52.1381Z" fill="#3A86FF"/>
</svg>
