<svg width="24" height="25" viewBox="0 0 24 25" fill="none" xmlns="http://www.w3.org/2000/svg">
<g clip-path="url(#clip0_678_519)">
<path d="M6.85714 5.45639C6.38857 5.45639 6 5.10161 6 4.67379V1.54335C6 1.11552 6.38857 0.760742 6.85714 0.760742C7.32571 0.760742 7.71429 1.11552 7.71429 1.54335V4.67379C7.71429 5.10161 7.32571 5.45639 6.85714 5.45639Z" fill="#2C2D28"/>
<path d="M16.0002 5.45639C15.5316 5.45639 15.1431 5.10161 15.1431 4.67379V1.54335C15.1431 1.11552 15.5316 0.760742 16.0002 0.760742C16.4688 0.760742 16.8574 1.11552 16.8574 1.54335V4.67379C16.8574 5.10161 16.4688 5.45639 16.0002 5.45639Z" fill="#2C2D28"/>
<path d="M7.4285 14.587C7.13136 14.587 6.83422 14.4722 6.61707 14.2844C6.41136 14.0861 6.28564 13.8253 6.28564 13.5435C6.28564 13.4079 6.31993 13.2722 6.37707 13.147C6.43422 13.0218 6.51422 12.9071 6.61707 12.8027C7.03993 12.4167 7.80564 12.4167 8.23993 12.8027C8.44564 13.001 8.57136 13.2722 8.57136 13.5435C8.57136 13.6061 8.55993 13.6793 8.5485 13.7523C8.53707 13.8149 8.51422 13.8774 8.47993 13.94C8.45707 14.0026 8.42279 14.0653 8.37707 14.1279C8.33136 14.18 8.28564 14.2322 8.23993 14.2844C8.02279 14.4722 7.72564 14.587 7.4285 14.587Z" fill="#2C2D28"/>
<path d="M11.4285 14.587C11.2799 14.587 11.1314 14.5557 10.9942 14.5035C10.8456 14.4514 10.7314 14.3783 10.6171 14.2844C10.4114 14.0861 10.2856 13.8253 10.2856 13.5435C10.2856 13.4079 10.3199 13.2722 10.3771 13.147C10.4342 13.0218 10.5142 12.907 10.6171 12.8027C10.7314 12.7088 10.8456 12.6357 10.9942 12.5835C11.4171 12.427 11.9199 12.5105 12.2399 12.8027C12.4456 13.0009 12.5714 13.2722 12.5714 13.5435C12.5714 13.6061 12.5599 13.6792 12.5485 13.7522C12.5371 13.8148 12.5142 13.8775 12.4799 13.9401C12.4571 14.0027 12.4228 14.0653 12.3771 14.1279C12.3428 14.1801 12.2856 14.2322 12.2399 14.2844C12.0228 14.4722 11.7256 14.587 11.4285 14.587Z" fill="#2C2D28"/>
<path d="M7.4285 18.239C7.27993 18.239 7.13136 18.2077 6.99422 18.1555C6.84564 18.1034 6.71993 18.0303 6.61707 17.9364C6.51422 17.8425 6.43422 17.7277 6.37707 17.5921C6.31993 17.4668 6.28564 17.3312 6.28564 17.1955C6.28564 17.0599 6.31993 16.9242 6.37707 16.799C6.43422 16.6634 6.51422 16.5486 6.61707 16.4547C6.71993 16.3608 6.84564 16.2877 6.99422 16.2355C7.2685 16.1312 7.5885 16.1208 7.86279 16.2355C8.01136 16.2877 8.13707 16.3608 8.23993 16.4547C8.34279 16.5486 8.42279 16.6634 8.47993 16.799C8.53707 16.9242 8.57136 17.0599 8.57136 17.1955C8.57136 17.3312 8.53707 17.4668 8.47993 17.5921C8.42279 17.7277 8.34279 17.8425 8.23993 17.9364C8.13707 18.0303 8.01136 18.1034 7.86279 18.1555C7.72564 18.2077 7.57707 18.239 7.4285 18.239Z" fill="#2C2D28"/>
<path d="M21.1426 9.7244H1.71408C1.24551 9.7244 0.856934 9.36961 0.856934 8.94179C0.856934 8.51396 1.24551 8.15918 1.71408 8.15918H21.1426C21.6112 8.15918 21.9998 8.51396 21.9998 8.94179C21.9998 9.36961 21.6112 9.7244 21.1426 9.7244Z" fill="#2C2D28"/>
<path d="M18.2855 24.2392C16.9484 24.2392 15.6798 23.801 14.7084 22.9975C14.2969 22.6844 13.9312 22.2879 13.6341 21.8288C13.1312 21.0775 12.8569 20.1905 12.8569 19.2827C12.8569 16.5488 15.2912 14.3262 18.2855 14.3262C19.8398 14.3262 21.3255 14.9418 22.3541 16.0062C23.2341 16.9244 23.7141 18.0827 23.7141 19.2827C23.7141 20.1905 23.4398 21.0775 22.9255 21.8392C21.9655 23.321 20.1826 24.2392 18.2855 24.2392ZM18.2855 15.8914C16.2398 15.8914 14.5712 17.4149 14.5712 19.2827C14.5712 19.8983 14.7541 20.5036 15.1084 21.0253C15.3026 21.3383 15.5541 21.5992 15.8284 21.8183C16.5141 22.3818 17.3712 22.674 18.2855 22.674C19.5998 22.674 20.7884 22.0583 21.4626 21.0357C21.8169 20.5036 21.9998 19.9088 21.9998 19.2827C21.9998 18.4688 21.6684 17.6757 21.0741 17.0392C20.3655 16.3088 19.3484 15.8914 18.2855 15.8914Z" fill="#2C2D28"/>
<path d="M17.6342 21.0983C17.417 21.0983 17.1999 21.0252 17.0284 20.8687L15.897 19.8356C15.5656 19.533 15.5656 19.0323 15.897 18.7297C16.2284 18.4271 16.777 18.4271 17.1084 18.7297L17.657 19.2305L19.4856 17.6862C19.8284 17.394 20.377 17.4149 20.697 17.7279C21.017 18.041 20.9942 18.5418 20.6513 18.834L18.217 20.8897C18.0456 21.0253 17.8399 21.0983 17.6342 21.0983Z" fill="#2C2D28"/>
<path d="M15.2799 23.1957H6.85707C2.68564 23.1957 0.285645 21.0044 0.285645 17.1957V8.32617C0.285645 4.51748 2.68564 2.32617 6.85707 2.32617H15.9999C20.1714 2.32617 22.5714 4.51748 22.5714 8.32617V16.5279C22.5714 16.8514 22.3542 17.1436 22.0114 17.2583C21.6799 17.3731 21.3028 17.2896 21.0628 17.0392C20.3542 16.3088 19.3371 15.8914 18.2742 15.8914C16.2285 15.8914 14.5599 17.4149 14.5599 19.2827C14.5599 19.8983 14.7428 20.5036 15.0971 21.0253C15.2914 21.3383 15.5428 21.5992 15.8171 21.8183C16.0914 22.027 16.1942 22.3714 16.0685 22.6844C15.9656 22.987 15.6456 23.1957 15.2799 23.1957ZM6.85707 3.89139C3.5885 3.89139 1.99993 5.34182 1.99993 8.32617V17.1957C1.99993 20.1801 3.5885 21.6305 6.85707 21.6305H13.5085C13.0856 20.921 12.8571 20.1175 12.8571 19.2827C12.8571 16.5488 15.2914 14.3262 18.2856 14.3262C19.1885 14.3262 20.0799 14.5349 20.8571 14.921V8.32617C20.8571 5.34182 19.2685 3.89139 15.9999 3.89139H6.85707Z" fill="#2C2D28"/>
</g>
<defs>
<clipPath id="clip0_678_519">
<rect width="24" height="24" fill="white" transform="translate(0 0.5)"/>
</clipPath>
</defs>
</svg>
