<svg width="24" height="23" viewBox="0 0 24 23" fill="none" xmlns="http://www.w3.org/2000/svg">
<path d="M19.875 18.875C21.3247 18.875 22.5 17.6997 22.5 16.25C22.5 14.8003 21.3247 13.625 19.875 13.625C18.4253 13.625 17.25 14.8003 17.25 16.25C17.25 17.6997 18.4253 18.875 19.875 18.875Z" stroke="#9DC3FF" stroke-width="1.5"/>
<path d="M19.875 1.375V13.625" stroke="#9DC3FF" stroke-width="1.5" stroke-linecap="round"/>
<path d="M19.875 18.875V21.5" stroke="#9DC3FF" stroke-width="1.5" stroke-linecap="round"/>
<path d="M4.125 18.875C5.57475 18.875 6.75 17.6997 6.75 16.25C6.75 14.8003 5.57475 13.625 4.125 13.625C2.67525 13.625 1.5 14.8003 1.5 16.25C1.5 17.6997 2.67525 18.875 4.125 18.875Z" stroke="#9DC3FF" stroke-width="1.5"/>
<path d="M4.125 1.375V13.625" stroke="#9DC3FF" stroke-width="1.5" stroke-linecap="round"/>
<path d="M4.125 18.875V21.5" stroke="#9DC3FF" stroke-width="1.5" stroke-linecap="round"/>
<path d="M12 4C13.4497 4 14.625 5.17525 14.625 6.625C14.625 8.07475 13.4497 9.25 12 9.25C10.5503 9.25 9.375 8.07475 9.375 6.625C9.375 5.17525 10.5503 4 12 4Z" stroke="#9DC3FF" stroke-width="1.5"/>
<path d="M12 21.5V9.25" stroke="#9DC3FF" stroke-width="1.5" stroke-linecap="round"/>
<path d="M12 4V1.375" stroke="#9DC3FF" stroke-width="1.5" stroke-linecap="round"/>
</svg>
