<svg width="32" height="32" viewBox="0 0 32 32" fill="none" xmlns="http://www.w3.org/2000/svg">
<path d="M15.9999 20.3635C18.4099 20.3635 20.3635 18.4099 20.3635 15.9999C20.3635 13.5899 18.4099 11.6362 15.9999 11.6362C13.5899 11.6362 11.6362 13.5899 11.6362 15.9999C11.6362 18.4099 13.5899 20.3635 15.9999 20.3635Z" stroke="#292D32" stroke-width="1.5" stroke-miterlimit="10" stroke-linecap="round" stroke-linejoin="round"/>
<path d="M1.45459 17.2798V14.7198C1.45459 13.2071 2.69095 11.9562 4.21823 11.9562C6.85095 11.9562 7.92732 10.0944 6.60368 7.81073C5.84732 6.50164 6.29823 4.79982 7.62186 4.04345L10.1382 2.60346C11.2873 1.91982 12.771 2.32709 13.4546 3.47618L13.6146 3.75255C14.9237 6.03618 17.0764 6.03618 18.4 3.75255L18.56 3.47618C19.2437 2.32709 20.7273 1.91982 21.8764 2.60346L24.3928 4.04345C25.7164 4.79982 26.1673 6.50164 25.411 7.81073C24.0873 10.0944 25.1637 11.9562 27.7964 11.9562C29.3091 11.9562 30.56 13.1925 30.56 14.7198V17.2798C30.56 18.7925 29.3237 20.0434 27.7964 20.0434C25.1637 20.0434 24.0873 21.9052 25.411 24.1888C26.1673 25.5125 25.7164 27.1998 24.3928 27.9561L21.8764 29.3961C20.7273 30.0798 19.2437 29.6725 18.56 28.5234L18.4 28.247C17.091 25.9634 14.9382 25.9634 13.6146 28.247L13.4546 28.5234C12.771 29.6725 11.2873 30.0798 10.1382 29.3961L7.62186 27.9561C6.29823 27.1998 5.84732 25.4979 6.60368 24.1888C7.92732 21.9052 6.85095 20.0434 4.21823 20.0434C2.69095 20.0434 1.45459 18.7925 1.45459 17.2798Z" stroke="#292D32" stroke-width="1.5" stroke-miterlimit="10" stroke-linecap="round" stroke-linejoin="round"/>
</svg>
