<svg width="24" height="25" viewBox="0 0 24 25" fill="none" xmlns="http://www.w3.org/2000/svg">
<g clip-path="url(#clip0_678_511)">
<path d="M22.0307 13.3778C21.5867 13.3778 21.2147 13.0418 21.1667 12.5978C20.8787 9.95784 19.4627 7.58185 17.2787 6.06984C16.8827 5.79384 16.7867 5.25384 17.0627 4.85784C17.3387 4.46184 17.8787 4.36584 18.2747 4.64184C20.8787 6.45384 22.5587 9.28584 22.9067 12.4178C22.9547 12.8978 22.6067 13.3298 22.1267 13.3778C22.0907 13.3778 22.0667 13.3778 22.0307 13.3778Z" fill="#2C2D28"/>
<path d="M2.08717 13.4374C2.06317 13.4374 2.02717 13.4374 2.00317 13.4374C1.52317 13.3894 1.17518 12.9574 1.22317 12.4774C1.54717 9.34541 3.20317 6.51341 5.78317 4.68941C6.16717 4.41341 6.71917 4.50941 6.99517 4.89341C7.27117 5.28941 7.17517 5.82941 6.79117 6.10541C4.63117 7.64141 3.22717 10.0174 2.96317 12.6454C2.91517 13.1014 2.53117 13.4374 2.08717 13.4374Z" fill="#2C2D28"/>
<path d="M16.7885 23.4205C15.3125 24.1285 13.7285 24.4885 12.0725 24.4885C10.3445 24.4885 8.70051 24.1045 7.16451 23.3245C6.73251 23.1205 6.56451 22.5925 6.78051 22.1605C6.98451 21.7285 7.51251 21.5605 7.94451 21.7645C8.70051 22.1485 9.50451 22.4125 10.3205 22.5685C11.4245 22.7845 12.5525 22.7965 13.6565 22.6045C14.4725 22.4605 15.2765 22.2085 16.0205 21.8485C16.4645 21.6445 16.9925 21.8125 17.1845 22.2565C17.4005 22.6885 17.2325 23.2165 16.7885 23.4205Z" fill="#2C2D28"/>
<path d="M12.0608 0.51416C10.2008 0.51416 8.67676 2.02616 8.67676 3.89816C8.67676 5.77016 10.1888 7.28216 12.0608 7.28216C13.9328 7.28216 15.4448 5.77016 15.4448 3.89816C15.4448 2.02616 13.9328 0.51416 12.0608 0.51416Z" fill="#2C2D28"/>
<path d="M3.66037 14.7451C1.80037 14.7451 0.276367 16.2571 0.276367 18.1291C0.276367 20.0011 1.78837 21.5131 3.66037 21.5131C5.53237 21.5131 7.04437 20.0011 7.04437 18.1291C7.04437 16.2571 5.52037 14.7451 3.66037 14.7451Z" fill="#2C2D28"/>
<path d="M20.341 14.7451C18.481 14.7451 16.957 16.2571 16.957 18.1291C16.957 20.0011 18.469 21.5131 20.341 21.5131C22.213 21.5131 23.725 20.0011 23.725 18.1291C23.725 16.2571 22.213 14.7451 20.341 14.7451Z" fill="#2C2D28"/>
</g>
<defs>
<clipPath id="clip0_678_511">
<rect width="24" height="24" fill="white" transform="translate(0 0.5)"/>
</clipPath>
</defs>
</svg>
