<svg width="26" height="26" viewBox="0 0 26 26" fill="none" xmlns="http://www.w3.org/2000/svg">
<path fill-rule="evenodd" clip-rule="evenodd" d="M6 2C5.45579 2 4.93936 2.10813 4.46911 2.30313C3.95896 2.51468 3.37389 2.27262 3.16234 1.76246C2.95078 1.2523 3.19285 0.667231 3.70301 0.455676C4.41184 0.161735 5.18829 0 6 0H7.75C8.30228 0 8.75 0.447715 8.75 1C8.75 1.55228 8.30228 2 7.75 2H6ZM10.25 1C10.25 0.447715 10.6977 0 11.25 0H14.75C15.3023 0 15.75 0.447715 15.75 1C15.75 1.55228 15.3023 2 14.75 2H14V3.91667H12V2H11.25C10.6977 2 10.25 1.55228 10.25 1ZM17.25 1C17.25 0.447715 17.6977 0 18.25 0H20C20.8117 0 21.5882 0.161735 22.297 0.455677C22.8072 0.667232 23.0492 1.2523 22.8377 1.76246C22.6261 2.27262 22.041 2.51468 21.5309 2.30313C21.0606 2.10813 20.5442 2 20 2H18.25C17.6977 2 17.25 1.55228 17.25 1ZM1.76246 3.16233C2.27262 3.37389 2.51468 3.95895 2.30313 4.46911C2.10813 4.93936 2 5.45579 2 6V7.75C2 8.30228 1.55228 8.75 1 8.75C0.447715 8.75 0 8.30228 0 7.75V6C0 5.18829 0.161735 4.41184 0.455677 3.70301C0.667232 3.19285 1.2523 2.95078 1.76246 3.16233ZM24.2375 3.16234C24.7477 2.95078 25.3328 3.19285 25.5443 3.70301C25.8383 4.41184 26 5.18829 26 6V7.75C26 8.30228 25.5523 8.75 25 8.75C24.4477 8.75 24 8.30228 24 7.75V6C24 5.45579 23.8919 4.93936 23.6969 4.46911C23.4853 3.95896 23.7274 3.37389 24.2375 3.16234ZM1 10.25C1.55228 10.25 2 10.6977 2 11.25V12H24V11.25C24 10.6977 24.4477 10.25 25 10.25C25.5523 10.25 26 10.6977 26 11.25V14.75C26 15.3023 25.5523 15.75 25 15.75C24.4477 15.75 24 15.3023 24 14.75V14H2V14.75C2 15.3023 1.55228 15.75 1 15.75C0.447715 15.75 0 15.3023 0 14.75V11.25C0 10.6977 0.447715 10.25 1 10.25ZM1 17.25C1.55228 17.25 2 17.6977 2 18.25V20C2 20.5442 2.10813 21.0606 2.30313 21.5309C2.51468 22.041 2.27262 22.6261 1.76246 22.8377C1.2523 23.0492 0.667231 22.8072 0.455676 22.297C0.161735 21.5882 0 20.8117 0 20V18.25C0 17.6977 0.447715 17.25 1 17.25ZM25 17.25C25.5523 17.25 26 17.6977 26 18.25V20C26 20.8117 25.8383 21.5882 25.5443 22.297C25.3328 22.8072 24.7477 23.0492 24.2375 22.8377C23.7274 22.6261 23.4853 22.041 23.6969 21.5309C23.8919 21.0606 24 20.5442 24 20V18.25C24 17.6977 24.4477 17.25 25 17.25ZM3.16233 24.2375C3.37389 23.7274 3.95895 23.4853 4.46911 23.6969C4.93936 23.8919 5.45579 24 6 24H7.75C8.30228 24 8.75 24.4477 8.75 25C8.75 25.5523 8.30228 26 7.75 26H6C5.18829 26 4.41184 25.8383 3.70301 25.5443C3.19285 25.3328 2.95078 24.7477 3.16233 24.2375ZM22.8377 24.2375C23.0492 24.7477 22.8072 25.3328 22.297 25.5443C21.5882 25.8383 20.8117 26 20 26H18.25C17.6977 26 17.25 25.5523 17.25 25C17.25 24.4477 17.6977 24 18.25 24H20C20.5442 24 21.0606 23.8919 21.5309 23.6969C22.041 23.4853 22.6261 23.7274 22.8377 24.2375ZM10.25 25C10.25 24.4477 10.6977 24 11.25 24H12V23.0833H14V24H14.75C15.3023 24 15.75 24.4477 15.75 25C15.75 25.5523 15.3023 26 14.75 26H11.25C10.6977 26 10.25 25.5523 10.25 25ZM14 19.25V15.4167H12V19.25H14ZM14 11.5833V7.75H12V11.5833H14Z" fill="white"/>
</svg>
