<svg width="20" height="20" viewBox="0 0 20 20" fill="none" xmlns="http://www.w3.org/2000/svg">
<path d="M11.7276 1.44418L13.4874 4.99288C13.7274 5.48688 14.3673 5.9607 14.9073 6.05144L18.0969 6.58576C20.1367 6.92853 20.6167 8.42059 19.1468 9.89249L16.6671 12.3927C16.2471 12.8161 16.0172 13.6327 16.1471 14.2175L16.8571 17.3125C17.417 19.7623 16.1271 20.71 13.9774 19.4296L10.9877 17.6452C10.4478 17.3226 9.55787 17.3226 9.00793 17.6452L6.01827 19.4296C3.87851 20.71 2.57865 19.7522 3.13859 17.3125L3.84851 14.2175C3.97849 13.6327 3.74852 12.8161 3.32857 12.3927L0.848839 9.89249C-0.611 8.42059 -0.141052 6.92853 1.89872 6.58576L5.08837 6.05144C5.61831 5.9607 6.25824 5.48688 6.49822 4.99288L8.25801 1.44418C9.21791 -0.481393 10.7777 -0.481393 11.7276 1.44418Z" fill="#3070D5"/>
</svg>
