<svg width="24" height="25" viewBox="0 0 24 25" fill="none" xmlns="http://www.w3.org/2000/svg">
<path d="M4.5 19.9998H5.6L16.675 8.9248L15.575 7.8248L4.5 18.8998V19.9998ZM19.85 7.8498L16.65 4.6498L17.7 3.5998C17.9833 3.31647 18.3333 3.1748 18.75 3.1748C19.1667 3.1748 19.5167 3.31647 19.8 3.5998L20.9 4.6998C21.1833 4.98314 21.325 5.33314 21.325 5.7498C21.325 6.16647 21.1833 6.51647 20.9 6.7998L19.85 7.8498ZM18.8 8.8998L6.2 21.4998H3V18.2998L15.6 5.6998L18.8 8.8998ZM16.125 8.3748L15.575 7.8248L16.675 8.9248L16.125 8.3748Z" fill="black"/>
</svg>
