<svg width="172" height="51" viewBox="0 0 172 51" fill="none" xmlns="http://www.w3.org/2000/svg">
<path d="M22.5825 24.5046H11.4125L16.2925 19.6246C16.6825 19.2346 16.6825 18.5946 16.2925 18.2046C15.9025 17.8146 15.2725 17.8146 14.8825 18.2046L8.2925 24.7946C7.9025 25.1846 7.9025 25.8146 8.2925 26.2046L14.8825 32.7946C15.2725 33.1846 15.9025 33.1846 16.2925 32.7946C16.6825 32.4046 16.6825 31.7746 16.2925 31.3846L11.4125 26.5046H22.5825C23.1325 26.5046 23.5825 26.0546 23.5825 25.5046C23.5825 24.9546 23.1325 24.5046 22.5825 24.5046Z" fill="black"/>
<path d="M41.7105 36.24C39.7905 36.24 38.1425 35.888 36.7665 35.184C35.3905 34.464 34.3345 33.432 33.5985 32.088C32.8785 30.744 32.5185 29.128 32.5185 27.24C32.5185 25.352 32.8785 23.736 33.5985 22.392C34.3345 21.048 35.3905 20.024 36.7665 19.32C38.1425 18.6 39.7905 18.24 41.7105 18.24C43.9025 18.24 45.8465 18.712 47.5425 19.656L46.7745 22.584C45.1265 21.656 43.4865 21.192 41.8545 21.192C40.6385 21.192 39.5905 21.432 38.7105 21.912C37.8305 22.392 37.1585 23.088 36.6945 24C36.2305 24.896 35.9985 25.976 35.9985 27.24C35.9985 28.488 36.2305 29.568 36.6945 30.48C37.1585 31.392 37.8305 32.088 38.7105 32.568C39.5905 33.048 40.6385 33.288 41.8545 33.288C43.4545 33.288 45.0945 32.824 46.7745 31.896L47.5425 34.824C45.8465 35.768 43.9025 36.24 41.7105 36.24ZM61.2617 36V18.48H64.6217V36H61.2617ZM50.7977 36V18.48H54.1577V36H50.7977ZM52.4777 28.368V25.416H62.9417V28.368H52.4777ZM75.265 36.24C72.849 36.24 71.057 35.648 69.889 34.464C68.721 33.264 68.137 31.432 68.137 28.968V18.48H71.497V28.32C71.497 29.568 71.617 30.552 71.857 31.272C72.097 31.992 72.489 32.512 73.033 32.832C73.593 33.136 74.337 33.288 75.265 33.288C76.209 33.288 76.953 33.136 77.497 32.832C78.041 32.512 78.433 31.992 78.673 31.272C78.913 30.552 79.033 29.568 79.033 28.32V18.48H82.393V28.968C82.393 31.432 81.809 33.264 80.641 34.464C79.473 35.648 77.681 36.24 75.265 36.24ZM85.9071 36V18.48H89.4111L96.7311 30.408H96.7791V18.48H100.139V36H96.6111L89.3151 24.072H89.2671V36H85.9071ZM103.837 36V18.48H107.197V26.064H107.245L114.397 18.48H118.477L110.605 26.88L118.717 36H114.637L107.245 27.696H107.197V36H103.837ZM120.496 36V23.52H123.664L123.688 25.848H123.76C124.176 25.288 124.664 24.824 125.224 24.456C125.8 24.072 126.424 23.784 127.096 23.592C127.784 23.384 128.488 23.28 129.208 23.28V26.088C128.216 26.088 127.312 26.272 126.496 26.64C125.68 27.008 125.032 27.512 124.552 28.152C124.072 28.776 123.832 29.472 123.832 30.24V36H120.496ZM131.474 36.24C130.85 36.24 130.354 36.064 129.986 35.712C129.634 35.344 129.458 34.856 129.458 34.248C129.458 33.624 129.634 33.136 129.986 32.784C130.354 32.432 130.85 32.256 131.474 32.256C132.114 32.256 132.61 32.432 132.962 32.784C133.33 33.136 133.514 33.624 133.514 34.248C133.514 34.856 133.33 35.344 132.962 35.712C132.61 36.064 132.114 36.24 131.474 36.24Z" fill="#161714"/>
<path d="M137.735 36V23.76H141.095V36H137.735ZM139.415 22.056C138.791 22.056 138.295 21.888 137.927 21.552C137.559 21.2 137.375 20.72 137.375 20.112C137.375 19.504 137.559 19.032 137.927 18.696C138.295 18.344 138.791 18.168 139.415 18.168C140.039 18.168 140.535 18.344 140.903 18.696C141.271 19.032 141.455 19.504 141.455 20.112C141.455 20.72 141.271 21.2 140.903 21.552C140.535 21.888 140.039 22.056 139.415 22.056ZM153.246 36.24C151.406 36.24 149.806 35.88 148.446 35.16C147.086 34.424 146.038 33.384 145.302 32.04C144.582 30.68 144.222 29.08 144.222 27.24C144.222 25.384 144.582 23.784 145.302 22.44C146.038 21.096 147.086 20.064 148.446 19.344C149.806 18.608 151.406 18.24 153.246 18.24C155.118 18.24 156.726 18.608 158.07 19.344C159.43 20.064 160.47 21.096 161.19 22.44C161.926 23.784 162.294 25.384 162.294 27.24C162.294 29.08 161.926 30.68 161.19 32.04C160.47 33.384 159.43 34.424 158.07 35.16C156.726 35.88 155.118 36.24 153.246 36.24ZM153.246 33.288C154.43 33.288 155.438 33.048 156.27 32.568C157.102 32.088 157.734 31.4 158.166 30.504C158.614 29.592 158.838 28.504 158.838 27.24C158.838 25.976 158.614 24.896 158.166 24C157.734 23.088 157.102 22.392 156.27 21.912C155.438 21.432 154.43 21.192 153.246 21.192C152.078 21.192 151.07 21.432 150.222 21.912C149.39 22.392 148.75 23.088 148.302 24C147.87 24.896 147.654 25.976 147.654 27.24C147.654 28.504 147.87 29.592 148.302 30.504C148.75 31.4 149.39 32.088 150.222 32.568C151.07 33.048 152.078 33.288 153.246 33.288Z" fill="#3A86FF"/>
</svg>
