<svg width="403" height="38" viewBox="0 0 403 38" fill="none" xmlns="http://www.w3.org/2000/svg">
<path d="M31.8352 14.3125H24.3693C24.233 13.3466 23.9545 12.4886 23.5341 11.7386C23.1136 10.9773 22.5739 10.3295 21.9148 9.79545C21.2557 9.26136 20.4943 8.85227 19.6307 8.56818C18.7784 8.28409 17.8523 8.14205 16.8523 8.14205C15.0455 8.14205 13.4716 8.59091 12.1307 9.48864C10.7898 10.375 9.75 11.6705 9.01136 13.375C8.27273 15.0682 7.90341 17.125 7.90341 19.5455C7.90341 22.0341 8.27273 24.125 9.01136 25.8182C9.76136 27.5114 10.8068 28.7898 12.1477 29.6534C13.4886 30.517 15.0398 30.9489 16.8011 30.9489C17.7898 30.9489 18.7045 30.8182 19.5455 30.5568C20.3977 30.2955 21.1534 29.9148 21.8125 29.4148C22.4716 28.9034 23.017 28.2841 23.4489 27.5568C23.892 26.8295 24.1989 26 24.3693 25.0682L31.8352 25.1023C31.642 26.7045 31.1591 28.25 30.3864 29.7386C29.625 31.2159 28.5966 32.5398 27.3011 33.7102C26.017 34.8693 24.483 35.7898 22.6989 36.4716C20.9261 37.142 18.9205 37.4773 16.6818 37.4773C13.5682 37.4773 10.7841 36.7727 8.32955 35.3636C5.88636 33.9545 3.95455 31.9148 2.53409 29.2443C1.125 26.5739 0.420455 23.3409 0.420455 19.5455C0.420455 15.7386 1.13636 12.5 2.56818 9.82955C4 7.15909 5.94318 5.125 8.39773 3.72727C10.8523 2.31818 13.6136 1.61364 16.6818 1.61364C18.7045 1.61364 20.5795 1.89773 22.3068 2.46591C24.0455 3.03409 25.5852 3.86364 26.9261 4.95454C28.267 6.03409 29.358 7.35795 30.1989 8.92614C31.0511 10.4943 31.5966 12.2898 31.8352 14.3125ZM37.1278 37V2.09091H44.5085V16.4943H59.4915V2.09091H66.8551V37H59.4915V22.5795H44.5085V37H37.1278ZM94.5028 2.09091H101.884V24.7614C101.884 27.3068 101.276 29.5341 100.06 31.4432C98.8551 33.3523 97.1676 34.8409 94.9972 35.9091C92.8267 36.9659 90.2983 37.4943 87.4119 37.4943C84.5142 37.4943 81.9801 36.9659 79.8097 35.9091C77.6392 34.8409 75.9517 33.3523 74.7472 31.4432C73.5426 29.5341 72.9403 27.3068 72.9403 24.7614V2.09091H80.321V24.1307C80.321 25.4602 80.6108 26.642 81.1903 27.6761C81.7813 28.7102 82.6108 29.5227 83.679 30.1136C84.7472 30.7045 85.9915 31 87.4119 31C88.8438 31 90.0881 30.7045 91.1449 30.1136C92.2131 29.5227 93.0369 28.7102 93.6165 27.6761C94.2074 26.642 94.5028 25.4602 94.5028 24.1307V2.09091ZM137.155 2.09091V37H130.78L115.592 15.0284H115.337V37H107.956V2.09091H114.433L129.501 24.0455H129.808V2.09091H137.155ZM143.253 37V2.09091H150.634V17.483H151.094L163.656 2.09091H172.503L159.548 17.7216L172.656 37H163.827L154.264 22.6477L150.634 27.0795V37H143.253ZM176.21 37V10.8182H183.25V15.3864H183.523C184 13.7614 184.801 12.5341 185.926 11.7045C187.051 10.8636 188.347 10.4432 189.812 10.4432C190.176 10.4432 190.568 10.4659 190.989 10.5114C191.409 10.5568 191.778 10.6193 192.097 10.6989V17.142C191.756 17.0398 191.284 16.9489 190.682 16.8693C190.08 16.7898 189.528 16.75 189.028 16.75C187.96 16.75 187.006 16.983 186.165 17.4489C185.335 17.9034 184.676 18.5398 184.188 19.358C183.71 20.1761 183.472 21.1193 183.472 22.1875V37H176.21ZM197.095 37.4432C195.97 37.4432 195.004 37.0455 194.197 36.25C193.402 35.4432 193.004 34.4773 193.004 33.3523C193.004 32.2386 193.402 31.2841 194.197 30.4886C195.004 29.6932 195.97 29.2955 197.095 29.2955C198.186 29.2955 199.141 29.6932 199.959 30.4886C200.777 31.2841 201.186 32.2386 201.186 33.3523C201.186 34.1023 200.993 34.7898 200.607 35.4148C200.232 36.0284 199.737 36.5227 199.124 36.8977C198.51 37.2614 197.834 37.4432 197.095 37.4432Z" fill="#161714"/>
<path d="M207.148 37V10.8182H214.409V37H207.148ZM210.795 7.44318C209.716 7.44318 208.79 7.08523 208.017 6.36932C207.256 5.64204 206.875 4.77273 206.875 3.76136C206.875 2.76136 207.256 1.90341 208.017 1.1875C208.79 0.460226 209.716 0.0965891 210.795 0.0965891C211.875 0.0965891 212.795 0.460226 213.557 1.1875C214.33 1.90341 214.716 2.76136 214.716 3.76136C214.716 4.77273 214.33 5.64204 213.557 6.36932C212.795 7.08523 211.875 7.44318 210.795 7.44318ZM252.442 19.5455C252.442 23.3523 251.72 26.5909 250.277 29.2614C248.845 31.9318 246.891 33.9716 244.413 35.3807C241.947 36.7784 239.175 37.4773 236.095 37.4773C232.993 37.4773 230.209 36.7727 227.743 35.3636C225.277 33.9545 223.328 31.9148 221.896 29.2443C220.464 26.5739 219.749 23.3409 219.749 19.5455C219.749 15.7386 220.464 12.5 221.896 9.82955C223.328 7.15909 225.277 5.125 227.743 3.72727C230.209 2.31818 232.993 1.61364 236.095 1.61364C239.175 1.61364 241.947 2.31818 244.413 3.72727C246.891 5.125 248.845 7.15909 250.277 9.82955C251.72 12.5 252.442 15.7386 252.442 19.5455ZM244.959 19.5455C244.959 17.0795 244.589 15 243.851 13.3068C243.124 11.6136 242.095 10.3295 240.766 9.45455C239.436 8.57955 237.879 8.14205 236.095 8.14205C234.311 8.14205 232.754 8.57955 231.425 9.45455C230.095 10.3295 229.061 11.6136 228.322 13.3068C227.595 15 227.232 17.0795 227.232 19.5455C227.232 22.0114 227.595 24.0909 228.322 25.7841C229.061 27.4773 230.095 28.7614 231.425 29.6364C232.754 30.5114 234.311 30.9489 236.095 30.9489C237.879 30.9489 239.436 30.5114 240.766 29.6364C242.095 28.7614 243.124 27.4773 243.851 25.7841C244.589 24.0909 244.959 22.0114 244.959 19.5455Z" fill="#3A86FF"/>
<path d="M292.166 13.375C291.928 12.5455 291.592 11.8125 291.161 11.1761C290.729 10.5284 290.2 9.98295 289.575 9.53977C288.962 9.08523 288.257 8.73864 287.462 8.5C286.678 8.26136 285.808 8.14205 284.854 8.14205C283.07 8.14205 281.501 8.58523 280.149 9.47159C278.808 10.358 277.763 11.6477 277.013 13.3409C276.263 15.0227 275.888 17.0795 275.888 19.5114C275.888 21.9432 276.257 24.0114 276.996 25.7159C277.734 27.4205 278.78 28.7216 280.132 29.6193C281.484 30.5057 283.081 30.9489 284.922 30.9489C286.592 30.9489 288.018 30.6534 289.2 30.0625C290.393 29.4602 291.303 28.6136 291.928 27.5227C292.564 26.4318 292.882 25.142 292.882 23.6534L294.382 23.875H285.382V18.3182H299.99V22.7159C299.99 25.7841 299.342 28.4205 298.047 30.625C296.751 32.8182 294.967 34.5114 292.695 35.7045C290.422 36.8864 287.82 37.4773 284.888 37.4773C281.615 37.4773 278.74 36.7557 276.263 35.3125C273.786 33.858 271.854 31.7955 270.467 29.125C269.092 26.4432 268.405 23.2614 268.405 19.5795C268.405 16.75 268.814 14.2273 269.632 12.0114C270.462 9.78409 271.621 7.89773 273.109 6.35227C274.598 4.80682 276.331 3.63068 278.308 2.82386C280.286 2.01704 282.428 1.61364 284.734 1.61364C286.712 1.61364 288.553 1.90341 290.257 2.48295C291.962 3.05114 293.473 3.85795 294.791 4.90341C296.121 5.94886 297.206 7.19318 298.047 8.63636C298.888 10.0682 299.428 11.6477 299.666 13.375H292.166ZM322.188 25.8523V10.8182H329.449V37H322.477V32.2443H322.205C321.614 33.7784 320.631 35.0114 319.256 35.9432C317.892 36.875 316.227 37.3409 314.261 37.3409C312.511 37.3409 310.972 36.9432 309.642 36.1477C308.313 35.3523 307.273 34.2216 306.523 32.7557C305.784 31.2898 305.409 29.5341 305.398 27.4886V10.8182H312.659V26.1932C312.67 27.7386 313.085 28.9602 313.903 29.858C314.722 30.7557 315.818 31.2045 317.193 31.2045C318.068 31.2045 318.886 31.0057 319.648 30.608C320.409 30.1989 321.023 29.5966 321.489 28.8011C321.966 28.0057 322.199 27.0227 322.188 25.8523ZM335.257 37V10.8182H342.518V37H335.257ZM338.905 7.44318C337.825 7.44318 336.899 7.08523 336.126 6.36932C335.365 5.64204 334.984 4.77273 334.984 3.76136C334.984 2.76136 335.365 1.90341 336.126 1.1875C336.899 0.460226 337.825 0.0965891 338.905 0.0965891C339.984 0.0965891 340.905 0.460226 341.666 1.1875C342.439 1.90341 342.825 2.76136 342.825 3.76136C342.825 4.77273 342.439 5.64204 341.666 6.36932C340.905 7.08523 339.984 7.44318 338.905 7.44318ZM357.983 37.4261C355.994 37.4261 354.193 36.9148 352.58 35.892C350.977 34.858 349.705 33.3409 348.761 31.3409C347.83 29.3295 347.364 26.8636 347.364 23.9432C347.364 20.9432 347.847 18.4489 348.812 16.4602C349.778 14.4602 351.063 12.9659 352.665 11.9773C354.278 10.9773 356.045 10.4773 357.966 10.4773C359.432 10.4773 360.653 10.7273 361.631 11.2273C362.619 11.7159 363.415 12.3295 364.017 13.0682C364.631 13.7955 365.097 14.5114 365.415 15.2159H365.636V2.09091H372.881V37H365.722V32.8068H365.415C365.074 33.5341 364.591 34.2557 363.966 34.9716C363.352 35.6761 362.551 36.2614 361.562 36.7273C360.585 37.1932 359.392 37.4261 357.983 37.4261ZM360.284 31.6477C361.455 31.6477 362.443 31.3295 363.25 30.6932C364.068 30.0455 364.693 29.142 365.125 27.983C365.568 26.8239 365.79 25.4659 365.79 23.9091C365.79 22.3523 365.574 21 365.142 19.8523C364.71 18.7045 364.085 17.8182 363.267 17.1932C362.449 16.5682 361.455 16.2557 360.284 16.2557C359.091 16.2557 358.085 16.5795 357.267 17.2273C356.449 17.875 355.83 18.7727 355.409 19.9205C354.989 21.0682 354.778 22.3977 354.778 23.9091C354.778 25.4318 354.989 26.7784 355.409 27.9489C355.841 29.108 356.46 30.017 357.267 30.6761C358.085 31.3239 359.091 31.6477 360.284 31.6477ZM390.783 37.5114C388.089 37.5114 385.771 36.9659 383.828 35.875C381.896 34.7727 380.408 33.2159 379.362 31.2045C378.317 29.1818 377.794 26.7898 377.794 24.0284C377.794 21.3352 378.317 18.9716 379.362 16.9375C380.408 14.9034 381.879 13.3182 383.777 12.1818C385.686 11.0455 387.925 10.4773 390.493 10.4773C392.22 10.4773 393.828 10.7557 395.317 11.3125C396.817 11.858 398.124 12.6818 399.237 13.7841C400.362 14.8864 401.237 16.2727 401.862 17.9432C402.487 19.6023 402.8 21.5455 402.8 23.7727V25.767H380.692V21.267H395.964C395.964 20.2216 395.737 19.2955 395.283 18.4886C394.828 17.6818 394.197 17.0511 393.391 16.5966C392.595 16.1307 391.669 15.8977 390.612 15.8977C389.51 15.8977 388.533 16.1534 387.68 16.6648C386.839 17.1648 386.18 17.8409 385.703 18.6932C385.226 19.5341 384.982 20.4716 384.97 21.5057V25.7841C384.97 27.0795 385.209 28.1989 385.686 29.142C386.175 30.0852 386.862 30.8125 387.749 31.3239C388.635 31.8352 389.686 32.0909 390.902 32.0909C391.709 32.0909 392.447 31.9773 393.118 31.75C393.788 31.5227 394.362 31.1818 394.839 30.7273C395.317 30.2727 395.68 29.7159 395.93 29.0568L402.646 29.5C402.305 31.1136 401.607 32.5227 400.55 33.7273C399.504 34.9205 398.152 35.8523 396.493 36.5227C394.845 37.1818 392.942 37.5114 390.783 37.5114Z" fill="#0F0F0D"/>
</svg>
