<svg width="40" height="38" viewBox="0 0 40 38" fill="none" xmlns="http://www.w3.org/2000/svg">
<rect x="1.5" y="1.5" width="37" height="35" rx="17.5" fill="white"/>
<path d="M17.416 25.744C17.416 25.008 17.4853 24.2987 17.624 23.616C17.7733 22.9227 18.0133 22.2827 18.344 21.696C18.632 21.1307 18.952 20.6827 19.304 20.352C19.656 20.0107 20.0507 19.6747 20.488 19.344C20.9253 19.0027 21.4107 18.5493 21.944 17.984C22.3813 17.504 22.6693 17.0293 22.808 16.56C22.9467 16.08 23.016 15.568 23.016 15.024C23.016 14.672 22.9787 14.3413 22.904 14.032C22.8293 13.7227 22.696 13.456 22.504 13.232C22.2053 12.8373 21.8213 12.56 21.352 12.4C20.8827 12.2293 20.3813 12.144 19.848 12.144C19.4107 12.144 18.9893 12.2027 18.584 12.32C18.1893 12.4267 17.8533 12.5973 17.576 12.832C17.256 13.088 17.0213 13.4027 16.872 13.776C16.7227 14.1493 16.6533 14.56 16.664 15.008H12.6C12.7067 13.9413 12.9947 12.9547 13.464 12.048C13.944 11.1307 14.5733 10.4 15.352 9.856C15.96 9.408 16.6427 9.072 17.4 8.848C18.168 8.624 18.936 8.512 19.704 8.512C20.8773 8.512 21.9813 8.69333 23.016 9.056C24.0613 9.41867 24.9307 10.016 25.624 10.848C26.104 11.392 26.4667 12.0213 26.712 12.736C26.968 13.4507 27.096 14.176 27.096 14.912C27.096 16.0107 26.856 17.0133 26.376 17.92C25.9067 18.8267 25.3093 19.664 24.584 20.432C24.2427 20.7947 23.9173 21.1147 23.608 21.392C23.2987 21.6693 23.0107 21.9413 22.744 22.208C22.488 22.464 22.2747 22.736 22.104 23.024C21.8053 23.5253 21.6293 23.952 21.576 24.304C21.5227 24.6453 21.496 25.1253 21.496 25.744H17.416ZM17.448 32V27.76H21.496V32H17.448Z" fill="#2C2D28"/>
<rect x="1.5" y="1.5" width="37" height="35" rx="17.5" stroke="#2C2D28" stroke-width="3"/>
</svg>
