<svg width="24" height="24" viewBox="0 0 24 24" fill="none" xmlns="http://www.w3.org/2000/svg">
<path d="M13.3746 12.9851V22.7463C13.3746 23.1045 13.2437 23.403 12.9819 23.6418C12.72 23.8806 12.3928 24 12 24C11.6072 24 11.28 23.8806 11.0181 23.6418C10.7563 23.403 10.6254 23.1045 10.6254 22.7463V12.9851L0.168323 0.940298C-0.0280539 0.761193 -0.0526007 0.559701 0.0946815 0.335821C0.241964 0.11194 0.430158 0 0.659263 0H23.3407C23.5698 0 23.758 0.11194 23.9053 0.335821C24.0526 0.559701 24.0281 0.761193 23.8317 0.940298L13.3746 12.9851ZM12 12.9851L22.3589 0.985074H1.64115L12 12.9851Z" fill="#9DC3FF"/>
</svg>
