<svg width="1076" height="413" viewBox="0 0 1076 413" fill="none" xmlns="http://www.w3.org/2000/svg">
<g clip-path="url(#clip0_322_601)">
<path d="M931.877 239.734C930.398 239.388 929.032 238.67 927.908 237.648C926.952 236.743 926.237 235.613 925.828 234.361C925.415 233.057 925.24 231.689 925.312 230.324C925.451 227.365 926.226 224.472 927.585 221.84C928.209 220.614 929.054 219.513 930.077 218.593C931.064 217.716 932.252 217.096 933.536 216.787C935.02 216.464 936.562 216.525 938.016 216.965C939.699 217.38 941.235 218.253 942.454 219.486C943.069 220.134 943.521 220.92 943.773 221.778C944.097 222.911 944.262 224.084 944.264 225.263L939.631 225.14C939.581 224.227 939.34 223.335 938.924 222.521C938.695 222.128 938.386 221.788 938.016 221.524C937.646 221.259 937.224 221.077 936.778 220.988C936.236 220.83 935.662 220.815 935.112 220.943C934.605 221.071 934.133 221.308 933.727 221.638C933.305 221.984 932.933 222.388 932.623 222.838C932.293 223.311 932.004 223.811 931.759 224.333C931.515 224.848 931.304 225.377 931.126 225.918C930.954 226.453 930.808 226.938 930.689 227.381C930.079 229.213 929.94 231.169 930.283 233.07C930.427 233.72 930.757 234.315 931.234 234.78C931.71 235.246 932.312 235.562 932.966 235.69C933.467 235.835 933.99 235.884 934.509 235.837C934.944 235.793 935.366 235.661 935.75 235.451C936.136 235.227 936.493 234.955 936.811 234.641C937.178 234.285 937.524 233.908 937.848 233.512L942.009 235.874C941.382 236.769 940.648 237.584 939.824 238.303C939.132 238.887 938.345 239.348 937.496 239.666C935.678 240.282 933.71 240.306 931.877 239.734ZM949.652 244.497C947.996 244.042 946.487 243.165 945.274 241.95C944.586 241.307 944.022 240.543 943.608 239.698C943.159 238.729 942.866 237.696 942.737 236.636L947.179 235.962C947.273 236.512 947.405 237.055 947.575 237.586C947.727 238.065 947.952 238.519 948.24 238.931C948.527 239.335 948.885 239.685 949.295 239.964C949.76 240.277 950.277 240.505 950.821 240.64C951.228 240.753 951.644 240.826 952.065 240.858C952.457 240.888 952.851 240.847 953.229 240.739C953.587 240.633 953.911 240.432 954.167 240.159C954.464 239.827 954.672 239.424 954.771 238.989C954.861 238.606 954.85 238.206 954.738 237.828C954.626 237.451 954.418 237.109 954.133 236.837C953.353 235.974 952.476 235.203 951.521 234.539C949.838 233.414 948.343 232.032 947.089 230.443C946.63 229.764 946.332 228.989 946.217 228.178C946.101 227.366 946.172 226.539 946.424 225.759C946.635 224.912 947.04 224.127 947.607 223.463C948.173 222.8 948.886 222.277 949.689 221.935C951.481 221.144 953.499 221.023 955.373 221.594C957.043 222.014 958.56 222.897 959.751 224.142C960.34 224.756 960.819 225.468 961.165 226.246C961.562 227.171 961.829 228.146 961.958 229.143L957.213 229.31C957.116 228.452 956.843 227.622 956.411 226.874C956.168 226.514 955.857 226.206 955.495 225.966C955.133 225.726 954.727 225.56 954.3 225.478C953.974 225.391 953.639 225.339 953.301 225.322C952.972 225.302 952.641 225.332 952.321 225.411C951.994 225.488 951.695 225.656 951.458 225.895C951.222 226.134 951.056 226.434 950.981 226.762C950.902 227.073 950.921 227.402 951.036 227.703C951.202 228.11 951.459 228.473 951.786 228.767C952.667 229.614 953.619 230.383 954.633 231.064C956.121 232.049 957.435 233.276 958.519 234.694C959.079 235.415 959.453 236.263 959.607 237.162C959.762 238.062 959.692 238.986 959.405 239.853C959.207 240.811 958.794 241.711 958.199 242.487C957.604 243.262 956.841 243.894 955.968 244.333C953.947 245.13 951.711 245.188 949.652 244.497ZM964.638 248.193L964.709 224.434L969.447 225.704L969.035 241.605L976.795 227.673L981.566 228.951L969.718 249.554L964.638 248.193ZM945.666 123.676L977.977 132.334L975.313 142.279L943.001 133.621L945.666 123.676ZM970.957 178.411L999.969 186.185L997.304 196.129L968.293 188.356L970.957 178.411ZM974.954 163.497L1003.96 171.27L1001.3 181.215L972.289 173.441L974.954 163.497ZM941.67 138.591L973.981 147.248L971.316 157.193L939.005 148.535L941.67 138.591Z" fill="#5B9AFF"/>
<path d="M1029.03 162.22C1029 162.157 1028.97 162.069 1028.93 162.006C1028.9 161.92 1028.86 161.838 1028.81 161.761L1002.81 116.737C1002.78 116.674 1002.72 116.605 1002.68 116.542C1002.64 116.478 1002.57 116.377 1002.53 116.314L1002.26 115.817L939.842 99.0913C937.206 98.3849 934.397 98.7547 932.034 100.119C929.67 101.484 927.945 103.731 927.239 106.368L893.948 230.612C893.241 233.249 893.611 236.057 894.976 238.421C896.34 240.784 898.588 242.509 901.224 243.215L990.68 267.185C993.316 267.891 996.125 267.522 998.489 266.157C1000.85 264.793 1002.58 262.545 1003.28 259.909L1029.33 162.7L1029.03 162.22ZM1001.46 124.683L1021.25 158.963L999.184 153.051C997.868 152.694 996.747 151.831 996.065 150.65C995.383 149.469 995.197 148.067 995.546 146.749L1001.46 124.683ZM933.371 149.691L941.361 119.873C941.537 119.213 941.968 118.652 942.559 118.31C943.15 117.969 943.852 117.877 944.511 118.053L981.785 128.041C982.444 128.217 983.006 128.649 983.347 129.239C983.688 129.83 983.781 130.533 983.604 131.192L976.28 158.525L1007.78 166.967C1008.44 167.143 1009 167.575 1009.35 168.165C1009.69 168.756 1009.78 169.458 1009.6 170.118L1001.61 199.949C1001.43 200.608 1001 201.17 1000.41 201.511C999.82 201.852 999.118 201.944 998.458 201.768L927.197 182.673C926.538 182.497 925.976 182.065 925.635 181.475C925.293 180.884 925.201 180.182 925.378 179.522L933.371 149.691ZM998.313 258.577C997.957 259.893 997.094 261.014 995.913 261.696C994.732 262.377 993.33 262.564 992.012 262.215L902.556 238.246C901.24 237.889 900.119 237.026 899.437 235.845C898.755 234.664 898.569 233.262 898.918 231.944L909.264 193.329L943.382 202.471L948.034 211.947C948.193 212.276 948.422 212.567 948.705 212.799C948.987 213.031 949.317 213.199 949.671 213.291L1006.38 228.485L998.313 258.577Z" fill="#5B9AFF"/>
<path d="M937.674 153.508L969.985 162.166L967.32 172.11L935.009 163.452L937.674 153.508ZM933.678 168.422L965.989 177.08L963.324 187.024L931.013 178.367L933.678 168.422Z" fill="#5B9AFF"/>
</g>
<g clip-path="url(#clip1_322_601)">
<path d="M848.211 242.529C846.757 242.968 845.215 243.03 843.731 242.706C842.45 242.401 841.265 241.78 840.285 240.9C839.275 239.977 838.44 238.88 837.819 237.661C836.461 235.03 835.685 232.136 835.546 229.178C835.474 227.804 835.655 226.428 836.081 225.12C836.497 223.867 837.216 222.736 838.173 221.826C839.297 220.805 840.663 220.086 842.142 219.74C843.807 219.259 845.574 219.246 847.246 219.704C848.103 219.959 848.887 220.413 849.534 221.03C850.381 221.85 851.111 222.783 851.702 223.802L847.628 226.012C847.129 225.247 846.474 224.595 845.707 224.098C845.312 223.872 844.874 223.733 844.421 223.689C843.969 223.644 843.512 223.697 843.081 223.843C842.533 223.978 842.028 224.251 841.616 224.638C841.241 225.002 840.951 225.443 840.764 225.931C840.572 226.443 840.452 226.979 840.408 227.524C840.359 228.098 840.359 228.675 840.407 229.25C840.454 229.817 840.536 230.382 840.652 230.939C840.77 231.488 840.886 231.982 841.005 232.424C841.393 234.316 842.25 236.08 843.498 237.554C843.947 238.046 844.531 238.395 845.176 238.56C845.822 238.725 846.501 238.698 847.132 238.482C847.637 238.357 848.115 238.138 848.541 237.838C848.896 237.582 849.195 237.257 849.422 236.883C849.645 236.496 849.818 236.081 849.936 235.65C850.076 235.159 850.188 234.659 850.271 234.155L855.055 234.119C854.959 235.208 854.731 236.281 854.378 237.315C854.07 238.168 853.619 238.961 853.043 239.66C851.776 241.103 850.084 242.107 848.211 242.529ZM865.985 237.766C864.324 238.2 862.578 238.194 860.92 237.749C860.003 237.536 859.133 237.157 858.352 236.631C857.479 236.017 856.708 235.269 856.067 234.415L859.576 231.611C859.933 232.04 860.318 232.444 860.731 232.819C861.103 233.158 861.524 233.439 861.98 233.651C862.431 233.858 862.915 233.983 863.41 234.019C863.969 234.057 864.531 233.996 865.069 233.841C865.478 233.736 865.875 233.591 866.256 233.408C866.61 233.238 866.931 233.006 867.204 232.723C867.461 232.451 867.642 232.116 867.727 231.752C867.818 231.315 867.797 230.863 867.665 230.437C867.551 230.06 867.342 229.719 867.056 229.448C866.77 229.176 866.419 228.985 866.036 228.892C864.929 228.534 863.784 228.305 862.625 228.208C860.605 228.075 858.619 227.626 856.739 226.876C856.002 226.518 855.356 225.996 854.851 225.351C854.345 224.705 853.993 223.954 853.821 223.152C853.581 222.313 853.538 221.43 853.697 220.573C853.856 219.715 854.212 218.906 854.736 218.209C855.893 216.627 857.579 215.513 859.488 215.071C861.145 214.6 862.9 214.606 864.553 215.088C865.371 215.326 866.142 215.703 866.831 216.204C867.637 216.806 868.355 217.517 868.966 218.316L864.94 220.833C864.426 220.138 863.776 219.557 863.027 219.124C862.637 218.934 862.213 218.823 861.78 218.796C861.346 218.77 860.912 218.829 860.501 218.97C860.175 219.059 859.859 219.181 859.558 219.335C859.263 219.482 858.991 219.674 858.754 219.902C858.509 220.133 858.334 220.428 858.249 220.753C858.163 221.078 858.17 221.42 858.269 221.742C858.356 222.052 858.537 222.327 858.787 222.53C859.134 222.799 859.539 222.985 859.969 223.076C861.155 223.37 862.364 223.559 863.583 223.642C865.364 223.751 867.115 224.157 868.762 224.843C869.608 225.187 870.356 225.734 870.94 226.436C871.523 227.138 871.925 227.973 872.11 228.867C872.417 229.796 872.51 230.782 872.382 231.751C872.255 232.721 871.91 233.649 871.373 234.466C870.022 236.166 868.114 237.335 865.985 237.766V237.766ZM880.812 233.474L868.993 212.862L873.732 211.593L881.326 225.57L881.08 209.624L885.851 208.345L885.891 232.113L880.812 233.474ZM802.123 135.125L834.434 126.467L837.099 136.412L804.788 145.07L802.123 135.125ZM851.394 169.881L880.405 162.108L883.069 172.052L854.058 179.826L851.394 169.881ZM847.397 154.967L876.408 147.193L879.073 157.138L850.062 164.911L847.397 154.967ZM806.119 150.039L838.43 141.382L841.095 151.326L808.784 159.984L806.119 150.039Z" fill="#5B9AFF"/>
<path d="M893.593 126.822C893.53 126.785 893.46 126.724 893.397 126.688C893.328 126.629 893.251 126.578 893.17 126.535L848.146 100.541C848.083 100.505 847.996 100.475 847.933 100.438C847.87 100.402 847.75 100.354 847.687 100.318L847.208 100.02L784.787 116.746C782.151 117.452 779.904 119.177 778.539 121.54C777.174 123.904 776.805 126.712 777.511 129.349L810.802 253.593C811.509 256.23 813.233 258.477 815.597 259.842C817.96 261.206 820.769 261.576 823.405 260.87L912.861 236.9C915.498 236.194 917.745 234.469 919.11 232.105C920.474 229.742 920.844 226.933 920.138 224.297L894.091 127.088L893.593 126.822ZM850.944 108.101L885.224 127.892L863.158 133.805C861.84 134.154 860.438 133.967 859.257 133.285C858.077 132.604 857.214 131.482 856.857 130.167L850.944 108.101ZM804.483 163.802L796.493 133.983C796.317 133.324 796.409 132.622 796.75 132.031C797.091 131.44 797.653 131.009 798.312 130.833L835.586 120.845C836.245 120.669 836.947 120.761 837.538 121.102C838.129 121.443 838.56 122.005 838.736 122.664L846.06 149.998L877.564 141.557C878.223 141.38 878.925 141.473 879.516 141.814C880.107 142.155 880.538 142.717 880.715 143.376L888.708 173.207C888.885 173.866 888.792 174.568 888.451 175.159C888.11 175.75 887.548 176.181 886.889 176.358L815.627 195.452C814.968 195.629 814.266 195.537 813.675 195.195C813.084 194.854 812.653 194.292 812.476 193.633L804.483 163.802ZM915.168 225.629C915.517 226.947 915.33 228.349 914.648 229.53C913.967 230.71 912.846 231.573 911.53 231.93L822.074 255.9C820.756 256.249 819.353 256.062 818.172 255.38C816.992 254.699 816.129 253.578 815.772 252.262L805.425 213.646L839.543 204.505L848.309 210.385C848.612 210.591 848.956 210.728 849.316 210.788C849.677 210.848 850.047 210.828 850.399 210.731L907.105 195.537L915.168 225.629Z" fill="#5B9AFF"/>
<path d="M810.115 164.956L842.426 156.299L845.091 166.243L812.78 174.901L810.115 164.956ZM814.112 179.871L846.423 171.213L849.087 181.157L816.776 189.815L814.112 179.871Z" fill="#5B9AFF"/>
</g>
<g clip-path="url(#clip2_322_601)">
<path d="M207.552 237.671C208.209 240.123 206.744 242.659 204.292 243.316L105.895 269.682C103.443 270.339 100.907 268.874 100.25 266.423L61.8863 123.247C61.2293 120.795 62.6936 118.258 65.1454 117.602L139.379 97.7107L147.046 126.327L175.662 118.659L207.552 237.671Z" fill="white"/>
<path d="M138.143 93.0976L63.9092 112.988C58.9087 114.328 55.9329 119.482 57.2728 124.483L95.6367 267.659C96.9766 272.659 102.131 275.635 107.131 274.295L205.528 247.93C210.529 246.59 213.505 241.436 212.165 236.435L180.284 117.455L138.143 93.0976ZM207.551 237.671C208.208 240.123 206.744 242.66 204.292 243.316L105.895 269.682C103.443 270.339 100.907 268.875 100.25 266.423L61.8862 123.247C61.2292 120.795 62.6935 118.259 65.1454 117.602L139.379 97.711L147.046 126.327L175.662 118.659L207.551 237.671Z" fill="#3A86FF"/>
<path d="M138.143 93.0974L147.055 126.359L180.284 117.455L138.143 93.0974Z" fill="#3070D5"/>
<path d="M219.274 225.16L83.8411 261.449L71.4969 215.38C70.6497 212.218 72.5154 208.987 75.6771 208.14L199.658 174.919C202.819 174.072 206.051 175.938 206.898 179.099L219.242 225.169L219.274 225.16Z" fill="#3070D5"/>
<path d="M209.822 227.693L211.508 233.984L219.275 225.16L209.822 227.693Z" fill="#2759AA"/>
<path d="M93.2944 258.916L94.98 265.207L83.8418 261.449L93.2944 258.916Z" fill="#2759AA"/>
<path d="M77.3398 213.953L201.127 180.784L211.889 220.95L88.1021 254.118L77.3398 213.953Z" fill="#3A86FF"/>
<path d="M133.032 119.571L75.9292 134.871C75.356 135.025 74.7452 134.944 74.2312 134.648C73.7172 134.351 73.3422 133.862 73.1886 133.289C73.0349 132.716 73.1154 132.105 73.4121 131.591C73.7089 131.077 74.1976 130.702 74.7709 130.548L131.874 115.248C132.447 115.094 133.058 115.174 133.572 115.471C134.086 115.768 134.461 116.257 134.614 116.83C134.768 117.403 134.687 118.014 134.391 118.528C134.094 119.042 133.605 119.417 133.032 119.571V119.571Z" fill="#3A86FF"/>
<path d="M135.796 129.894L78.6929 145.195C78.1196 145.349 77.5088 145.268 76.9949 144.971C76.4809 144.675 76.1058 144.186 75.9522 143.613C75.7986 143.039 75.879 142.429 76.1758 141.915C76.4725 141.401 76.9613 141.026 77.5346 140.872L134.637 125.571C135.21 125.418 135.821 125.498 136.335 125.795C136.849 126.092 137.224 126.58 137.378 127.154C137.532 127.727 137.451 128.338 137.154 128.852C136.858 129.366 136.369 129.741 135.796 129.894V129.894Z" fill="#3A86FF"/>
<path d="M168.72 132.103L81.4527 155.487C80.8794 155.64 80.2686 155.56 79.7546 155.263C79.2406 154.966 78.8656 154.477 78.712 153.904C78.5584 153.331 78.6388 152.72 78.9355 152.206C79.2323 151.692 79.7211 151.317 80.2943 151.163L167.561 127.78C168.135 127.627 168.745 127.707 169.259 128.004C169.773 128.301 170.148 128.789 170.302 129.363C170.456 129.936 170.375 130.547 170.079 131.061C169.782 131.575 169.293 131.95 168.72 132.103Z" fill="#3A86FF"/>
<path d="M171.485 142.427L84.2183 165.81C83.645 165.964 83.0342 165.883 82.5202 165.587C82.0063 165.29 81.6312 164.801 81.4776 164.228C81.324 163.655 81.4044 163.044 81.7012 162.53C81.9979 162.016 82.4867 161.641 83.06 161.487L170.327 138.104C170.9 137.95 171.511 138.031 172.025 138.328C172.539 138.624 172.914 139.113 173.068 139.686C173.221 140.26 173.141 140.871 172.844 141.384C172.547 141.898 172.059 142.274 171.485 142.427Z" fill="#3A86FF"/>
<path d="M174.251 152.751L86.9839 176.134C86.4107 176.287 85.7998 176.207 85.2859 175.91C84.7719 175.613 84.3968 175.125 84.2432 174.551C84.0896 173.978 84.17 173.367 84.4668 172.853C84.7635 172.339 85.2523 171.964 85.8256 171.811L173.093 148.428C173.666 148.274 174.277 148.354 174.791 148.651C175.305 148.948 175.68 149.437 175.833 150.01C175.987 150.583 175.906 151.194 175.61 151.708C175.313 152.222 174.824 152.597 174.251 152.751Z" fill="#3A86FF"/>
<path d="M177.009 163.042L89.7417 186.425C89.1685 186.579 88.5577 186.498 88.0437 186.202C87.5297 185.905 87.1547 185.416 87.0011 184.843C86.8474 184.27 86.9279 183.659 87.2246 183.145C87.5214 182.631 88.0101 182.256 88.5834 182.102L175.85 158.719C176.424 158.565 177.035 158.646 177.548 158.943C178.062 159.239 178.438 159.728 178.591 160.301C178.745 160.875 178.664 161.486 178.368 161.999C178.071 162.513 177.582 162.889 177.009 163.042V163.042Z" fill="#3A86FF"/>
<path d="M179.774 173.366L92.5074 196.749C91.9341 196.903 91.3233 196.822 90.8093 196.525C90.2953 196.229 89.9203 195.74 89.7667 195.167C89.6131 194.593 89.6935 193.983 89.9902 193.469C90.287 192.955 90.7757 192.58 91.349 192.426L178.616 169.043C179.189 168.889 179.8 168.97 180.314 169.266C180.828 169.563 181.203 170.052 181.357 170.625C181.51 171.198 181.43 171.809 181.133 172.323C180.836 172.837 180.348 173.212 179.774 173.366V173.366Z" fill="#3A86FF"/>
<path d="M122.043 216.255L125.838 230.418C126.304 232.16 126.216 233.636 125.531 234.822C124.846 236.008 123.685 236.838 122.008 237.287C121.621 237.391 121.289 237.445 120.958 237.5C120.627 237.554 120.287 237.576 119.915 237.606L119.227 234.264C119.502 234.259 119.704 234.239 119.906 234.22C120.109 234.2 120.302 234.148 120.593 234.071C121.076 233.941 121.388 233.684 121.551 233.26C121.714 232.836 121.705 232.286 121.523 231.608L117.728 217.445L122.051 216.287L122.043 216.255ZM121.082 213.055L116.694 214.23L115.907 211.294L120.295 210.119L121.082 213.055Z" fill="white"/>
<path d="M136.322 223.217C136.227 222.862 135.955 222.623 135.49 222.437C135.034 222.282 134.255 222.215 133.162 222.265C131.463 222.375 130.075 222.228 129.087 221.767C128.066 221.314 127.437 220.514 127.117 219.321C126.789 218.095 127.02 216.892 127.828 215.776C128.626 214.629 129.901 213.838 131.676 213.362C133.547 212.861 135.143 212.883 136.465 213.428C137.787 213.972 138.588 214.899 138.91 216.23L138.895 216.303L134.669 217.436C134.522 216.887 134.281 216.502 133.912 216.29C133.544 216.077 133.058 216.069 132.445 216.234C131.993 216.355 131.641 216.587 131.387 216.932C131.134 217.276 131.091 217.634 131.195 218.021C131.29 218.376 131.57 218.646 131.994 218.809C132.418 218.972 133.188 219.008 134.346 218.94C136.142 218.804 137.539 218.983 138.559 219.436C139.547 219.898 140.217 220.721 140.546 221.947C140.883 223.205 140.611 224.384 139.698 225.493C138.785 226.602 137.446 227.411 135.607 227.903C133.703 228.414 132.057 228.336 130.701 227.662C129.345 226.988 128.511 226.07 128.256 224.859L128.271 224.786L132.239 223.723C132.453 224.392 132.767 224.792 133.232 224.978C133.697 225.165 134.289 225.179 134.999 224.989C135.579 224.833 135.996 224.583 136.226 224.28C136.359 224.002 136.434 223.636 136.322 223.217V223.217Z" fill="white"/>
<path d="M142.982 218.009C142.42 215.912 142.543 214.047 143.382 212.404C144.221 210.762 145.693 209.675 147.823 209.105C149.952 208.534 151.802 208.73 153.351 209.733C154.899 210.736 155.937 212.29 156.499 214.387L156.569 214.645C157.13 216.742 157.017 218.64 156.169 220.25C155.329 221.893 153.857 222.979 151.728 223.549C149.598 224.12 147.748 223.924 146.2 222.921C144.652 221.918 143.613 220.364 143.051 218.267L142.982 218.009ZM147.447 217.124C147.758 218.285 148.203 219.169 148.739 219.751C149.275 220.334 150.007 220.483 150.878 220.25C151.717 220.025 152.244 219.538 152.449 218.757C152.622 217.985 152.574 217.029 152.263 215.868L152.176 215.545C151.874 214.416 151.438 213.565 150.893 212.95C150.357 212.368 149.616 212.186 148.745 212.419C147.874 212.653 147.356 213.172 147.183 213.944C147.01 214.717 147.067 215.704 147.369 216.833L147.447 217.124Z" fill="white"/>
<path d="M162.499 205.415L163.188 207.339C163.449 206.509 163.883 205.805 164.425 205.245C164.998 204.676 165.689 204.284 166.527 204.059C167.882 203.696 169.1 203.854 170.125 204.582C171.15 205.31 171.935 206.69 172.471 208.69L174.727 217.11L170.372 218.277L168.124 209.889C167.882 208.986 167.589 208.408 167.195 208.098C166.801 207.789 166.338 207.74 165.822 207.878C165.37 207.999 164.977 208.209 164.633 208.474C164.321 208.73 164.059 209.042 163.888 209.434L166.55 219.371L162.195 220.538L158.452 206.568L162.517 205.479L162.499 205.415Z" fill="white"/>
</g>
<g clip-path="url(#clip3_322_601)">
<path d="M275.188 268.683C274.531 271.135 271.995 272.599 269.543 271.943L171.146 245.577C168.694 244.92 167.23 242.384 167.887 239.932L206.25 96.756C206.907 94.3042 209.444 92.8399 211.895 93.4969L286.129 113.388L278.461 142.004L307.077 149.671L275.188 268.683Z" fill="white"/>
<path d="M287.365 108.774L213.132 88.8834C208.131 87.5435 202.977 90.5193 201.637 95.5198L163.273 238.696C161.934 243.696 164.909 248.85 169.91 250.19L268.307 276.556C273.308 277.896 278.462 274.92 279.802 269.919L311.682 150.939L287.365 108.774ZM275.188 268.683C274.531 271.135 271.995 272.599 269.543 271.942L171.146 245.577C168.694 244.92 167.23 242.384 167.887 239.932L206.251 96.7559C206.908 94.3041 209.444 92.8398 211.896 93.4968L286.129 113.388L278.462 142.003L307.077 149.671L275.188 268.683Z" fill="#3A86FF"/>
<path d="M287.365 108.774L278.453 142.036L311.682 150.94L287.365 108.774Z" fill="#3070D5"/>
<path d="M291.596 263.709L156.163 227.42L168.507 181.35C169.354 178.189 172.586 176.323 175.747 177.17L299.728 210.391C302.889 211.238 304.755 214.469 303.908 217.631L291.564 263.7L291.596 263.709Z" fill="#3070D5"/>
<path d="M282.145 261.176L280.459 267.467L291.597 263.709L282.145 261.176Z" fill="#2759AA"/>
<path d="M165.615 229.952L163.929 236.243L156.162 227.42L165.615 229.952Z" fill="#2759AA"/>
<path d="M174.279 183.036L298.066 216.204L287.304 256.37L163.517 223.201L174.279 183.036Z" fill="#3A86FF"/>
<path d="M269.703 129.145L212.601 113.844C212.028 113.69 211.539 113.315 211.242 112.801C210.945 112.287 210.865 111.677 211.018 111.103C211.172 110.53 211.547 110.041 212.061 109.745C212.575 109.448 213.186 109.367 213.759 109.521L270.862 124.822C271.435 124.975 271.924 125.35 272.221 125.864C272.517 126.378 272.598 126.989 272.444 127.562C272.291 128.136 271.916 128.624 271.402 128.921C270.888 129.218 270.277 129.298 269.703 129.145V129.145Z" fill="#3A86FF"/>
<path d="M266.936 139.467L209.833 124.167C209.26 124.013 208.771 123.638 208.474 123.124C208.178 122.61 208.097 121.999 208.251 121.426C208.405 120.853 208.78 120.364 209.294 120.067C209.808 119.771 210.418 119.69 210.992 119.844L268.094 135.144C268.668 135.298 269.156 135.673 269.453 136.187C269.75 136.701 269.83 137.312 269.677 137.885C269.523 138.458 269.148 138.947 268.634 139.244C268.12 139.541 267.509 139.621 266.936 139.467V139.467Z" fill="#3A86FF"/>
<path d="M294.342 157.842L207.075 134.459C206.502 134.305 206.013 133.93 205.717 133.416C205.42 132.902 205.339 132.291 205.493 131.718C205.647 131.145 206.022 130.656 206.536 130.359C207.05 130.063 207.661 129.982 208.234 130.136L295.501 153.519C296.074 153.673 296.563 154.048 296.86 154.562C297.156 155.076 297.237 155.686 297.083 156.26C296.93 156.833 296.555 157.322 296.041 157.618C295.527 157.915 294.916 157.996 294.342 157.842Z" fill="#3A86FF"/>
<path d="M291.577 168.165L204.31 144.782C203.737 144.629 203.248 144.254 202.951 143.74C202.654 143.226 202.574 142.615 202.727 142.042C202.881 141.468 203.256 140.98 203.77 140.683C204.284 140.386 204.895 140.306 205.468 140.459L292.735 163.842C293.308 163.996 293.797 164.371 294.094 164.885C294.391 165.399 294.471 166.01 294.318 166.583C294.164 167.156 293.789 167.645 293.275 167.942C292.761 168.239 292.15 168.319 291.577 168.165Z" fill="#3A86FF"/>
<path d="M288.809 178.489L201.542 155.106C200.969 154.952 200.48 154.577 200.183 154.063C199.887 153.549 199.806 152.938 199.96 152.365C200.113 151.792 200.489 151.303 201.003 151.006C201.516 150.71 202.127 150.629 202.701 150.783L289.968 174.166C290.541 174.32 291.03 174.695 291.326 175.209C291.623 175.723 291.704 176.333 291.55 176.907C291.396 177.48 291.021 177.969 290.507 178.265C289.993 178.562 289.383 178.643 288.809 178.489Z" fill="#3A86FF"/>
<path d="M286.053 188.78L198.786 165.397C198.213 165.244 197.724 164.869 197.428 164.355C197.131 163.841 197.05 163.23 197.204 162.657C197.358 162.083 197.733 161.595 198.247 161.298C198.761 161.001 199.371 160.921 199.945 161.074L287.212 184.457C287.785 184.611 288.274 184.986 288.571 185.5C288.867 186.014 288.948 186.625 288.794 187.198C288.64 187.771 288.265 188.26 287.751 188.557C287.237 188.854 286.627 188.934 286.053 188.78V188.78Z" fill="#3A86FF"/>
<path d="M283.286 199.104L196.019 175.721C195.446 175.568 194.957 175.193 194.66 174.679C194.363 174.165 194.283 173.554 194.436 172.981C194.59 172.407 194.965 171.919 195.479 171.622C195.993 171.325 196.604 171.245 197.177 171.398L284.444 194.781C285.017 194.935 285.506 195.31 285.803 195.824C286.1 196.338 286.18 196.949 286.027 197.522C285.873 198.095 285.498 198.584 284.984 198.881C284.47 199.178 283.859 199.258 283.286 199.104V199.104Z" fill="#3A86FF"/>
<path d="M211.844 207.382L208.049 221.544C207.582 223.286 206.768 224.52 205.581 225.205C204.395 225.89 202.975 226.028 201.297 225.579C200.91 225.475 200.596 225.356 200.282 225.238C199.968 225.119 199.663 224.968 199.326 224.808L200.401 221.57C200.642 221.703 200.827 221.787 201.011 221.871C201.196 221.956 201.39 222.007 201.68 222.085C202.164 222.215 202.562 222.149 202.915 221.863C203.269 221.577 203.536 221.096 203.718 220.418L207.512 206.255L211.835 207.414L211.844 207.382ZM212.612 204.129L208.224 202.954L209.011 200.018L213.398 201.194L212.612 204.129Z" fill="white"/>
<path d="M220.729 220.551C220.824 220.196 220.708 219.854 220.399 219.46C220.081 219.098 219.44 218.649 218.469 218.147C216.942 217.392 215.813 216.571 215.188 215.677C214.531 214.775 214.386 213.768 214.706 212.575C215.034 211.349 215.836 210.422 217.093 209.86C218.359 209.266 219.858 209.218 221.633 209.693C223.504 210.195 224.876 211.012 225.748 212.145C226.62 213.277 226.851 214.48 226.464 215.794L226.415 215.85L222.188 214.718C222.335 214.169 222.319 213.715 222.106 213.347C221.893 212.979 221.476 212.729 220.863 212.565C220.412 212.444 219.99 212.469 219.598 212.641C219.206 212.812 218.991 213.1 218.887 213.487C218.792 213.842 218.899 214.217 219.185 214.57C219.471 214.923 220.12 215.339 221.156 215.859C222.78 216.64 223.9 217.493 224.557 218.395C225.182 219.289 225.351 220.337 225.022 221.563C224.685 222.821 223.86 223.706 222.515 224.21C221.169 224.714 219.605 224.745 217.766 224.252C215.863 223.742 214.476 222.852 213.639 221.59C212.801 220.328 212.538 219.117 212.922 217.94L212.972 217.884L216.94 218.948C216.791 219.634 216.863 220.137 217.173 220.531C217.482 220.925 217.987 221.234 218.697 221.424C219.278 221.58 219.764 221.571 220.115 221.423C220.369 221.249 220.617 220.97 220.729 220.551V220.551Z" fill="white"/>
<path d="M229.1 219.37C229.662 217.273 230.701 215.719 232.249 214.716C233.797 213.713 235.615 213.509 237.745 214.08C239.874 214.65 241.379 215.745 242.218 217.387C243.057 219.03 243.18 220.895 242.618 222.992L242.549 223.251C241.987 225.348 240.939 226.934 239.4 227.905C237.852 228.908 236.033 229.112 233.904 228.541C231.775 227.971 230.27 226.876 229.431 225.234C228.592 223.591 228.469 221.726 229.031 219.629L229.1 219.37ZM233.41 220.836C233.099 221.998 233.042 222.985 233.215 223.758C233.388 224.53 233.947 225.026 234.818 225.259C235.657 225.484 236.356 225.326 236.925 224.752C237.461 224.17 237.897 223.318 238.208 222.157L238.295 221.834C238.597 220.705 238.646 219.75 238.481 218.945C238.308 218.172 237.758 217.645 236.886 217.411C236.015 217.178 235.307 217.368 234.771 217.951C234.235 218.533 233.79 219.417 233.488 220.546L233.41 220.836Z" fill="white"/>
<path d="M252.3 218.222L251.934 220.233C252.576 219.644 253.304 219.251 254.053 219.037C254.834 218.831 255.628 218.837 256.467 219.061C257.822 219.424 258.798 220.17 259.321 221.313C259.845 222.456 259.834 224.044 259.298 226.044L257.042 234.464L252.687 233.297L254.934 224.909C255.176 224.006 255.212 223.358 255.025 222.893C254.838 222.429 254.462 222.155 253.946 222.017C253.494 221.896 253.049 221.88 252.619 221.937C252.221 222.004 251.838 222.143 251.493 222.397L248.83 232.333L244.475 231.166L248.218 217.197L252.283 218.286L252.3 218.222Z" fill="white"/>
</g>
<g clip-path="url(#clip4_322_601)">
<path d="M580.088 271.031H374.156V64.5312H683.906V206.087" fill="#969694"/>
<path d="M464.5 347.669H593.562M580.088 271.031H374.156V64.5312H683.906V206.087L580.088 271.031ZM529.031 271.005V347.669V271.005Z" stroke="#4F504C" stroke-width="25.8125"/>
<path d="M619.116 277.225L585.457 151.57C584.77 149.031 584.591 146.381 584.931 143.773C585.271 141.165 586.122 138.649 587.437 136.371C588.751 134.093 590.502 132.096 592.59 130.497C594.677 128.897 597.06 127.725 599.602 127.048C610.34 124.183 620.897 130.61 624.124 141.219L648.8 221.909" fill="white"/>
<path d="M619.116 277.225L585.457 151.57C584.77 149.031 584.591 146.381 584.931 143.773C585.271 141.165 586.122 138.649 587.437 136.371C588.751 134.093 590.502 132.096 592.59 130.497C594.677 128.897 597.06 127.725 599.602 127.048C610.34 124.183 620.897 130.61 624.124 141.219L648.8 221.909" stroke="#252621" stroke-width="25.813"/>
<path d="M635.171 220.953L722.056 197.696L732.923 238.093C743.996 279.212 718.597 323.016 675.877 334.476C633.157 345.937 589.25 320.693 578.099 279.057L572.859 258.562C571.495 253.431 572.22 247.969 574.877 243.372C577.533 238.776 581.904 235.42 587.03 234.04L606.132 228.903" fill="white"/>
<path d="M635.171 220.953L722.056 197.696L732.923 238.093C743.996 279.212 718.597 323.016 675.877 334.476C633.157 345.937 589.25 320.693 578.099 279.057L572.859 258.562C571.495 253.431 572.22 247.969 574.877 243.372C577.533 238.776 581.904 235.42 587.03 234.04L606.132 228.903" stroke="#252621" stroke-width="25.813"/>
</g>
<defs>
<clipPath id="clip0_322_601">
<rect width="164.644" height="164.644" fill="white" transform="translate(907.051 82.3149) rotate(15)"/>
</clipPath>
<clipPath id="clip1_322_601">
<rect width="164.644" height="164.644" fill="white" transform="translate(748 118.613) rotate(-15)"/>
</clipPath>
<clipPath id="clip2_322_601">
<rect width="171.005" height="171.005" fill="white" transform="translate(30 120) rotate(-15)"/>
</clipPath>
<clipPath id="clip3_322_601">
<rect width="171.005" height="171.005" fill="white" transform="translate(180.26 78) rotate(15)"/>
</clipPath>
<clipPath id="clip4_322_601">
<rect width="413" height="413" fill="white" transform="translate(335.438)"/>
</clipPath>
</defs>
</svg>
