<svg width="237" height="200" viewBox="0 0 237 200" fill="none" xmlns="http://www.w3.org/2000/svg">
<g clip-path="url(#clip0_322_1046)">
<path d="M109.091 118.182V172.727C109.091 180.303 106.439 186.742 101.136 192.045C95.8333 197.348 89.3939 200 81.8182 200H27.2727C19.697 200 13.2576 197.348 7.95455 192.045C2.65152 186.742 0 180.303 0 172.727V72.7273C0 62.8788 1.91761 53.4801 5.75284 44.5312C9.58807 35.5824 14.7727 27.8409 21.3068 21.3068C27.8409 14.7727 35.5824 9.58807 44.5312 5.75284C53.4801 1.91761 62.8788 0 72.7273 0H81.8182C84.2803 0 86.411 0.899621 88.2102 2.69886C90.0095 4.49811 90.9091 6.62879 90.9091 9.09091V27.2727C90.9091 29.7348 90.0095 31.8655 88.2102 33.6648C86.411 35.464 84.2803 36.3636 81.8182 36.3636H72.7273C62.6894 36.3636 54.1193 39.9148 47.017 47.017C39.9148 54.1193 36.3636 62.6894 36.3636 72.7273V77.2727C36.3636 81.0606 37.6894 84.2803 40.3409 86.9318C42.9924 89.5833 46.2121 90.9091 50 90.9091H81.8182C89.3939 90.9091 95.8333 93.5606 101.136 98.8636C106.439 104.167 109.091 110.606 109.091 118.182ZM236.364 118.182V172.727C236.364 180.303 233.712 186.742 228.409 192.045C223.106 197.348 216.667 200 209.091 200H154.545C146.97 200 140.53 197.348 135.227 192.045C129.924 186.742 127.273 180.303 127.273 172.727V72.7273C127.273 62.8788 129.19 53.4801 133.026 44.5312C136.861 35.5824 142.045 27.8409 148.58 21.3068C155.114 14.7727 162.855 9.58807 171.804 5.75284C180.753 1.91761 190.152 0 200 0H209.091C211.553 0 213.684 0.899621 215.483 2.69886C217.282 4.49811 218.182 6.62879 218.182 9.09091V27.2727C218.182 29.7348 217.282 31.8655 215.483 33.6648C213.684 35.464 211.553 36.3636 209.091 36.3636H200C189.962 36.3636 181.392 39.9148 174.29 47.017C167.187 54.1193 163.636 62.6894 163.636 72.7273V77.2727C163.636 81.0606 164.962 84.2803 167.614 86.9318C170.265 89.5833 173.485 90.9091 177.273 90.9091H209.091C216.667 90.9091 223.106 93.5606 228.409 98.8636C233.712 104.167 236.364 110.606 236.364 118.182Z" fill="#9CC2FF
" fill-opacity="0.2"/>
</g>
<defs>
<clipPath id="clip0_322_1046">
<rect width="236.364" height="200" fill="white"/>
</clipPath>
</defs>
</svg>
