<svg width="184" height="156" viewBox="0 0 184 156" fill="none" xmlns="http://www.w3.org/2000/svg">
<path d="M3.03711 131.202C3.03711 134.425 4.31707 137.515 6.59543 139.793C8.87378 142.071 11.9639 143.351 15.186 143.351H88.0791C91.3012 143.351 94.3913 142.071 96.6696 139.793C98.948 137.515 100.228 134.425 100.228 131.202V79.5698C100.228 76.3478 98.948 73.2577 96.6696 70.9793C94.3913 68.701 91.3012 67.421 88.0791 67.421H60.7442C49.9256 67.421 51.6325 52.2349 35.1192 52.2349H15.186C11.9639 52.2349 8.87378 53.5149 6.59543 55.7932C4.31707 58.0716 3.03711 61.1617 3.03711 64.3838V131.202Z" fill="#3070D5"/>
<path d="M101.248 79.5697H81.3182C64.8019 79.5697 64.9689 94.7558 54.1473 94.7558H26.8124C20.1032 94.7558 14.1138 100.195 13.4305 106.905L11.9361 118.671L10.3446 131.202L10.2839 131.196C9.93461 133.037 8.24289 134.23 6.33552 134.23C4.38259 134.23 2.97636 132.691 3.07355 130.759C3.06747 130.908 3.03711 131.05 3.03711 131.202C3.04167 134.102 4.08627 136.904 5.98114 139.1C7.87602 141.295 10.4955 142.738 13.3636 143.166C13.9627 143.293 14.5736 143.355 15.186 143.351H94.1535C100.863 143.351 106.855 137.912 107.535 131.202L112.164 91.7185C112.845 85.0093 107.958 79.5697 101.248 79.5697Z" fill="#5B9AFF"/>
<g clip-path="url(#clip0_322_1173)">
<path opacity="0.3" d="M112.646 11.7894L96.8049 6.02372L88.0587 10.1021L79.6285 33.2638C79.2782 34.2263 79.774 35.2896 80.7365 35.6399L101.248 43.1054C102.21 43.4557 103.274 42.9599 103.624 41.9974L113.754 14.1655C114.104 13.2029 113.608 12.1397 112.646 11.7894V11.7894ZM103.334 39.9883C102.838 41.3507 101.352 42.0608 100.023 41.5773L82.657 35.2565C81.3284 34.773 80.646 33.2734 81.1419 31.9109L88.5433 11.5758C88.5926 11.4403 88.6912 11.338 88.8139 11.2752L96.6184 7.50643C96.7503 7.4393 96.9056 7.43441 97.0411 7.48376L110.632 12.4303C111.96 12.9139 112.643 14.4135 112.147 15.776L103.334 39.9883V39.9883Z" fill="#3A86FF"/>
<path d="M96.7789 5.43891L95.1556 9.89907C94.7041 11.1395 93.3265 11.7819 92.0861 11.3304L87.6259 9.70704L96.7789 5.43891Z" fill="#3A86FF"/>
<path d="M113.016 10.7726L96.965 4.93046C96.8295 4.88112 96.681 4.88847 96.5515 4.94883L87.3985 9.21696C87.2691 9.27731 87.168 9.38637 87.1186 9.52193L78.612 32.8937C78.0593 34.4121 78.8483 36.104 80.3666 36.6566L100.878 44.1221C102.396 44.6748 104.088 43.8858 104.641 42.3675L114.771 14.5355C115.324 13.0172 114.535 11.3252 113.016 10.7726ZM103.624 41.9974C103.274 42.9599 102.211 43.4557 101.248 43.1054L80.7367 35.6399C79.7742 35.2896 79.2784 34.2263 79.6287 33.2638L88.0589 10.1021L96.8051 6.0237L112.646 11.7894C113.609 12.1397 114.104 13.2029 113.754 14.1655L103.624 41.9974V41.9974Z" fill="#2759AA"/>
<path d="M105.186 22.2011L90.5446 16.8721C90.2666 16.7709 90.1201 16.4566 90.2212 16.1787C90.3224 15.9008 90.6367 15.7542 90.9146 15.8553L105.556 21.1843C105.834 21.2855 105.98 21.5998 105.879 21.8777C105.778 22.1556 105.464 22.3022 105.186 22.2011Z" fill="#3A86FF"/>
<path d="M103.41 27.0816L88.7692 21.7526C88.4913 21.6514 88.3447 21.3371 88.4458 21.0592C88.547 20.7812 88.8613 20.6347 89.1392 20.7358L103.78 26.0648C104.058 26.166 104.205 26.4803 104.104 26.7582C104.003 27.0361 103.688 27.1827 103.41 27.0816Z" fill="#7CAEFF"/>
<path d="M101.635 31.9619L86.9938 26.6329C86.7159 26.5318 86.5693 26.2174 86.6704 25.9395C86.7716 25.6616 87.0859 25.515 87.3638 25.6162L102.005 30.9452C102.283 31.0463 102.43 31.3607 102.328 31.6386C102.227 31.9165 101.913 32.0631 101.635 31.9619Z" fill="#9DC3FF"/>
<path opacity="0.3" d="M99.8577 36.8423L85.2164 31.5133C84.9385 31.4122 84.7919 31.0978 84.8931 30.8199C84.9942 30.542 85.3086 30.3954 85.5865 30.4966L100.228 35.8255C100.506 35.9267 100.652 36.241 100.551 36.519C100.45 36.7969 100.136 36.9434 99.8577 36.8423Z" fill="#3A86FF"/>
</g>
<g clip-path="url(#clip1_322_1173)">
<path opacity="0.3" d="M161.092 38.3174L148.179 27.4815L138.565 28.3226L122.721 47.2042C122.063 47.9888 122.165 49.1575 122.95 49.8159L139.671 63.8465C140.456 64.5049 141.624 64.4026 142.283 63.618L161.321 40.9292C161.979 40.1445 161.877 38.9758 161.092 38.3174V38.3174ZM142.698 61.6309C141.766 62.7416 140.126 62.9004 139.043 61.9916L124.886 50.1125C123.803 49.2037 123.674 47.5611 124.606 46.4504L138.516 29.8731C138.609 29.7626 138.737 29.7002 138.873 29.6832L147.496 28.811C147.643 28.793 147.791 28.8416 147.901 28.9343L158.98 38.2308C160.063 39.1396 160.192 40.7822 159.26 41.8929L142.698 61.6309V61.6309Z" fill="#3A86FF"/>
<path d="M148.355 26.9233L145.304 30.5593C144.456 31.5705 142.942 31.703 141.93 30.8545L138.294 27.8035L148.355 26.9233Z" fill="#3A86FF"/>
<path d="M161.788 37.4885L148.703 26.5089C148.593 26.4161 148.451 26.3722 148.308 26.3847L138.248 27.2649C138.105 27.2773 137.973 27.3452 137.88 27.4557L121.893 46.5086C120.854 47.7464 121.017 49.6061 122.255 50.6447L138.976 64.6753C140.214 65.7139 142.073 65.5512 143.112 64.3134L162.15 41.6246C163.189 40.3868 163.026 38.5271 161.788 37.4885ZM142.283 63.6179C141.625 64.4026 140.456 64.5048 139.671 63.8464L122.95 49.8159C122.166 49.1574 122.064 47.9888 122.722 47.2041L138.565 28.3225L148.179 27.4815L161.093 38.3174C161.877 38.9758 161.98 40.1445 161.321 40.9291L142.283 63.6179V63.6179Z" fill="#2759AA"/>
<path d="M150.522 45.5501L138.586 35.5349C138.36 35.3448 138.329 34.9993 138.519 34.7727C138.71 34.5462 139.055 34.5159 139.282 34.706L151.217 44.7212C151.444 44.9113 151.474 45.2569 151.284 45.4834C151.094 45.71 150.748 45.7402 150.522 45.5501Z" fill="#3A86FF"/>
<path d="M147.182 49.5287L135.246 39.5135C135.02 39.3234 134.989 38.9779 135.18 38.7513C135.37 38.5248 135.715 38.4946 135.942 38.6847L147.877 48.6999C148.104 48.89 148.134 49.2355 147.944 49.4621C147.754 49.6886 147.408 49.7188 147.182 49.5287Z" fill="#7CAEFF"/>
<path d="M143.844 53.5073L131.908 43.492C131.682 43.3019 131.652 42.9564 131.842 42.7299C132.032 42.5033 132.377 42.4731 132.604 42.6632L144.54 52.6784C144.766 52.8685 144.796 53.214 144.606 53.4406C144.416 53.6671 144.071 53.6974 143.844 53.5073Z" fill="#9DC3FF"/>
<path opacity="0.3" d="M140.506 57.4858L128.57 47.4706C128.344 47.2805 128.314 46.9349 128.504 46.7084C128.694 46.4818 129.039 46.4516 129.266 46.6417L141.202 56.6569C141.428 56.847 141.458 57.1925 141.268 57.4191C141.078 57.6456 140.733 57.6759 140.506 57.4858Z" fill="#3A86FF"/>
</g>
<g clip-path="url(#clip2_322_1173)">
<path opacity="0.3" d="M44.8901 9.29924L29.049 15.0649L24.9706 23.8111L33.4008 46.9728C33.7511 47.9353 34.8143 48.4311 35.7769 48.0808L56.2882 40.6153C57.2507 40.2649 57.7465 39.2017 57.3962 38.2392L47.2662 10.4072C46.9158 9.4447 45.8526 8.94891 44.8901 9.29924V9.29924ZM55.8828 36.8863C56.3787 38.2487 55.6963 39.7483 54.3677 40.2319L37.0016 46.5527C35.673 47.0362 34.1863 46.3261 33.6904 44.9636L26.2891 24.6285C26.2397 24.493 26.2496 24.3512 26.3031 24.2243L29.8592 16.3206C29.9171 16.1844 30.0329 16.0809 30.1685 16.0315L43.7591 11.0849C45.0877 10.6014 46.5744 11.3115 47.0702 12.674L55.8828 36.8863V36.8863Z" fill="#3A86FF"/>
<path d="M28.6539 14.633L30.2773 19.0932C30.7288 20.3336 30.0864 21.7112 28.846 22.1627L24.3858 23.786L28.6539 14.633Z" fill="#3A86FF"/>
<path d="M44.5201 8.28245L28.469 14.1246C28.3334 14.1739 28.2243 14.275 28.164 14.4045L23.8959 23.5575C23.8355 23.6869 23.8281 23.8355 23.8775 23.971L32.3841 47.3428C32.9368 48.8612 34.6287 49.6501 36.147 49.0975L56.6584 41.632C58.1767 41.0794 58.9657 39.3874 58.413 37.8691L48.283 10.0371C47.7304 8.51877 46.0385 7.72981 44.5201 8.28245ZM57.3963 38.2391C57.7466 39.2017 57.2508 40.2649 56.2883 40.6152L35.777 48.0807C34.8144 48.4311 33.7512 47.9353 33.4009 46.9728L24.9707 23.8111L29.0492 15.0649L44.8902 9.2992C45.8527 8.94887 46.9159 9.44466 47.2663 10.4072L57.3963 38.2391V38.2391Z" fill="#2759AA"/>
<path d="M45.8693 22.0695L31.2281 27.3985C30.9501 27.4996 30.6358 27.3531 30.5346 27.0751C30.4335 26.7972 30.5801 26.4829 30.858 26.3817L45.4992 21.0528C45.7772 20.9516 46.0915 21.0982 46.1927 21.3761C46.2938 21.654 46.1472 21.9684 45.8693 22.0695Z" fill="#3A86FF"/>
<path d="M47.6447 26.9499L33.0034 32.2789C32.7255 32.38 32.4112 32.2334 32.31 31.9555C32.2089 31.6776 32.3555 31.3633 32.6334 31.2621L47.2746 25.9331C47.5526 25.832 47.8669 25.9786 47.968 26.2565C48.0692 26.5344 47.9226 26.8487 47.6447 26.9499Z" fill="#7CAEFF"/>
<path d="M49.422 31.8304L34.7808 37.1594C34.5029 37.2605 34.1885 37.1139 34.0874 36.836C33.9862 36.5581 34.1328 36.2438 34.4107 36.1426L49.052 30.8136C49.3299 30.7125 49.6442 30.859 49.7454 31.137C49.8465 31.4149 49.7 31.7292 49.422 31.8304Z" fill="#9DC3FF"/>
<path opacity="0.3" d="M51.1994 36.7107L36.5581 42.0397C36.2802 42.1409 35.9659 41.9943 35.8647 41.7164C35.7636 41.4385 35.9102 41.1241 36.1881 41.023L50.8293 35.694C51.1072 35.5928 51.4216 35.7394 51.5227 36.0173C51.6239 36.2952 51.4773 36.6096 51.1994 36.7107Z" fill="#3A86FF"/>
</g>
<g clip-path="url(#clip3_322_1173)">
<path opacity="0.3" d="M180.667 106.289L177.74 89.6872L169.834 84.152L145.561 88.4321C144.552 88.61 143.879 89.5709 144.057 90.5797L147.847 112.076C148.025 113.085 148.986 113.757 149.995 113.58L179.163 108.436C180.172 108.259 180.845 107.298 180.667 106.289V106.289ZM151.59 112.324C150.162 112.576 148.804 111.643 148.558 110.251L145.349 92.0511C145.104 90.6588 146.061 89.318 147.489 89.0663L168.801 85.3085C168.943 85.2834 169.081 85.3177 169.196 85.3925L176.362 90.267C176.486 90.3477 176.568 90.4797 176.593 90.6218L179.105 104.865C179.35 106.257 178.393 107.598 176.965 107.85L151.59 112.324V112.324Z" fill="#3A86FF"/>
<path d="M178.234 89.3732L173.56 90.1974C172.26 90.4266 171.015 89.5548 170.786 88.2548L169.961 83.5805L178.234 89.3732Z" fill="#3A86FF"/>
<path d="M181.734 106.101L178.768 89.2789C178.743 89.1368 178.662 89.0119 178.545 88.93L170.272 83.1373C170.155 83.0554 170.01 83.0223 169.868 83.0474L145.374 87.3663C143.783 87.6469 142.712 89.1761 142.993 90.7674L146.783 112.263C147.064 113.855 148.593 114.925 150.184 114.645L179.352 109.502C180.944 109.221 182.014 107.692 181.734 106.101ZM149.996 113.579C148.987 113.757 148.027 113.084 147.849 112.076L144.058 90.5795C143.88 89.5707 144.553 88.6098 145.562 88.4319L169.836 84.1518L177.741 89.687L180.668 106.289C180.846 107.297 180.173 108.258 179.164 108.436L149.996 113.579V113.579Z" fill="#2759AA"/>
<path d="M167.921 105.035L165.216 89.6908C165.165 89.3995 165.363 89.1154 165.655 89.064C165.946 89.0127 166.23 89.2116 166.281 89.5029L168.987 104.847C169.038 105.138 168.839 105.422 168.548 105.474C168.257 105.525 167.973 105.326 167.921 105.035Z" fill="#3A86FF"/>
<path d="M162.806 105.936L160.101 90.5921C160.049 90.3009 160.248 90.0168 160.539 89.9654C160.831 89.914 161.115 90.113 161.166 90.4042L163.872 105.748C163.923 106.04 163.724 106.324 163.433 106.375C163.142 106.427 162.858 106.228 162.806 105.936Z" fill="#7CAEFF"/>
<path d="M157.691 106.839L154.985 91.4944C154.934 91.2031 155.133 90.919 155.424 90.8676C155.716 90.8163 156 91.0152 156.051 91.3065L158.757 106.651C158.808 106.942 158.609 107.226 158.318 107.277C158.026 107.329 157.742 107.13 157.691 106.839Z" fill="#9DC3FF"/>
<path opacity="0.3" d="M152.578 107.741L149.872 92.3965C149.821 92.1052 150.02 91.8211 150.311 91.7697C150.602 91.7184 150.886 91.9173 150.938 92.2086L153.643 107.553C153.695 107.844 153.496 108.128 153.204 108.179C152.913 108.231 152.629 108.032 152.578 107.741Z" fill="#3A86FF"/>
</g>
<defs>
<clipPath id="clip0_322_1173">
<rect width="36.9325" height="36.9325" fill="white" transform="translate(85.6328) rotate(20)"/>
</clipPath>
<clipPath id="clip1_322_1173">
<rect width="36.9325" height="36.9325" fill="white" transform="translate(139.74 18) rotate(40)"/>
</clipPath>
<clipPath id="clip2_322_1173">
<rect width="36.9325" height="36.9325" fill="white" transform="translate(16.6191 17.6316) rotate(-20)"/>
</clipPath>
<clipPath id="clip3_322_1173">
<rect width="36.9325" height="36.9325" fill="white" transform="translate(177.371 77) rotate(80)"/>
</clipPath>
</defs>
</svg>
