<svg width="60" height="56" viewBox="0 0 60 56" fill="none" xmlns="http://www.w3.org/2000/svg">
<g clip-path="url(#clip0_322_1006)">
<path d="M32.2476 33.0909V48.3636C32.2476 50.4848 32.9195 52.2879 34.2631 53.7727C35.6068 55.2576 37.2384 56 39.1579 56H52.9784C54.8979 56 56.5295 55.2576 57.8732 53.7727C59.2168 52.2879 59.8887 50.4848 59.8887 48.3636V20.3636C59.8887 17.6061 59.4028 14.9744 58.431 12.4687C57.4593 9.96307 56.1456 7.79545 54.49 5.96591C52.8345 4.13636 50.8729 2.68466 48.6055 1.6108C46.3381 0.536932 43.9567 0 41.4613 0H39.1579C38.5341 0 37.9942 0.251894 37.5383 0.755682C37.0824 1.25947 36.8545 1.85606 36.8545 2.54545V7.63636C36.8545 8.32576 37.0824 8.92235 37.5383 9.42614C37.9942 9.92992 38.5341 10.1818 39.1579 10.1818H41.4613C44.0047 10.1818 46.1761 11.1761 47.9757 13.1648C49.7752 15.1534 50.675 17.553 50.675 20.3636V21.6364C50.675 22.697 50.3391 23.5985 49.6673 24.3409C48.9954 25.0833 48.1796 25.4545 47.2199 25.4545H39.1579C37.2384 25.4545 35.6068 26.197 34.2631 27.6818C32.9195 29.1667 32.2476 30.9697 32.2476 33.0909ZM-0.000218868 33.0909V48.3636C-0.000218868 50.4848 0.671612 52.2879 2.01527 53.7727C3.35893 55.2576 4.99052 56 6.91004 56H20.7306C22.6501 56 24.2817 55.2576 25.6253 53.7727C26.969 52.2879 27.6408 50.4848 27.6408 48.3636V20.3636C27.6408 17.6061 27.1549 14.9744 26.1832 12.4687C25.2114 9.96307 23.8978 7.79545 22.2422 5.96591C20.5866 4.13636 18.6251 2.68466 16.3577 1.6108C14.0902 0.536932 11.7088 0 9.21346 0H6.91004C6.2862 0 5.74633 0.251894 5.29045 0.755682C4.83456 1.25947 4.60662 1.85606 4.60662 2.54545V7.63636C4.60662 8.32576 4.83456 8.92235 5.29045 9.42614C5.74633 9.92992 6.2862 10.1818 6.91004 10.1818H9.21346C11.7568 10.1818 13.9283 11.1761 15.7278 13.1648C17.5274 15.1534 18.4271 17.553 18.4271 20.3636V21.6364C18.4271 22.697 18.0912 23.5985 17.4194 24.3409C16.7476 25.0833 15.9318 25.4545 14.972 25.4545H6.91004C4.99052 25.4545 3.35893 26.197 2.01527 27.6818C0.671612 29.1667 -0.000218868 30.9697 -0.000218868 33.0909Z" fill="#252621"/>
</g>
<defs>
<clipPath id="clip0_322_1006">
<rect width="59.8889" height="56" fill="white" transform="matrix(-1 0 0 1 59.8887 0)"/>
</clipPath>
</defs>
</svg>
