<svg width="110" height="110" viewBox="0 0 110 110" fill="none" xmlns="http://www.w3.org/2000/svg">
<path d="M109.678 28.0115V90.8662C109.675 93.3316 108.695 95.6953 106.952 97.4386C105.208 99.1819 102.845 100.162 100.379 100.165H12.4609C9.2432 100.163 6.15765 98.8843 3.88176 96.6097C1.60587 94.335 0.32568 91.2501 0.322266 88.0324V21.9357C0.322921 21.2153 0.386905 20.4964 0.513477 19.7873C1.02619 16.9929 2.5025 14.4667 4.68548 12.6484C6.86845 10.8301 9.61988 9.83479 12.4609 9.83569H40.9449C43.0757 9.84496 45.1168 10.6941 46.6254 12.199L52.7979 18.3714C53.7047 19.2655 54.9233 19.7723 56.1967 19.7851H101.447C103.629 19.7874 105.72 20.6547 107.263 22.1968C108.806 23.7389 109.674 25.83 109.678 28.0115Z" fill="#9DC3FF"/>
<path d="M56.1969 19.7806H0.513672C1.02065 16.984 2.49555 14.455 4.67996 12.6367C6.86438 10.8184 9.61898 9.82675 12.4611 9.83551H40.9451C43.0759 9.84477 45.117 10.694 46.6256 12.1988L52.798 18.3713C53.7056 19.2637 54.9241 19.769 56.1969 19.7806Z" fill="#7CAEFF"/>
<path d="M56.1969 19.7806H0.513672C0.611826 19.2415 0.746047 18.7097 0.91543 18.1886H52.6197L52.798 18.3669C53.7049 19.261 54.9235 19.7678 56.1969 19.7806V19.7806Z" fill="#9DC3FF"/>
<path d="M55.8594 77.8379C55.8909 77.806 55.9197 77.7715 55.9453 77.7347L55.9023 77.7927L55.8594 77.8379Z" fill="#4F504C"/>
<path d="M84.5877 59.9736C84.5877 76.4994 71.1428 89.9443 54.617 89.9443C47.9695 89.9466 41.5099 87.7391 36.254 83.6691C30.9982 79.5991 27.2444 73.8974 25.583 67.4609C24.9681 65.011 24.6542 62.4952 24.6484 59.9693C24.6484 43.4435 38.0934 29.9965 54.6191 29.9965C62.5681 29.997 70.1912 33.1551 75.8118 38.7761C81.4323 44.397 84.5898 52.0204 84.5898 59.9693L84.5877 59.9736Z" fill="#9DC3FF"/>
<path d="M53.5527 77.9324C53.5698 77.9506 53.5885 77.9671 53.6086 77.9818C53.5973 77.9739 53.5866 77.9653 53.5764 77.956L53.5527 77.9324ZM55.8602 77.8379C55.8917 77.806 55.9205 77.7715 55.9461 77.7347L55.9031 77.7927L55.8473 77.8551C55.8473 77.8551 55.8602 77.8443 55.8602 77.8379Z" fill="#4F504C"/>
<path d="M81.8104 59.9736C81.8078 66.5926 79.3918 72.9836 75.0152 77.9491C70.6386 82.9146 64.6016 86.1139 58.0353 86.9477C51.469 87.7814 44.824 86.1923 39.3453 82.4781C33.8666 78.764 29.9301 73.1796 28.2734 66.7713C27.7116 64.5488 27.423 62.266 27.4141 59.9736C27.422 52.762 30.2909 45.8482 35.3911 40.7497C40.4913 35.6511 47.406 32.7844 54.6176 32.7787C61.8297 32.7793 68.7463 35.6447 73.8459 40.7447C78.9455 45.8446 81.8104 52.7614 81.8104 59.9736Z" fill="#3A86FF"/>
<path d="M65.2977 67.2632L56.2893 77.1138L56.3323 77.0558C56.3067 77.0926 56.2779 77.1271 56.2464 77.1589C56.2464 77.1589 56.2464 77.1589 56.2335 77.1761L56.2142 77.1955C56.1929 77.2193 56.1699 77.2415 56.1454 77.2621C56.127 77.2823 56.1068 77.301 56.0852 77.3179C56.0471 77.3512 56.007 77.3821 55.9649 77.4103C55.9335 77.4334 55.9005 77.4542 55.8661 77.4726C55.7594 77.5387 55.6446 77.5907 55.5245 77.6273C55.3695 77.6761 55.2079 77.7008 55.0454 77.7003C54.9925 77.7036 54.9394 77.7036 54.8864 77.7003H54.8477C54.8116 77.6969 54.7757 77.6911 54.7403 77.6832C54.7096 77.6791 54.6794 77.6719 54.6501 77.6617C54.6308 77.6597 54.6119 77.6546 54.5942 77.6466C54.57 77.6415 54.5463 77.6343 54.5233 77.6251C54.4975 77.6181 54.4723 77.6087 54.4481 77.5972C54.4179 77.5865 54.3884 77.5736 54.3601 77.5585L54.3214 77.5392C54.2888 77.5241 54.2572 77.5069 54.2268 77.4876C54.213 77.4814 54.2001 77.4734 54.1882 77.464C54.1551 77.446 54.1241 77.4244 54.0958 77.3996C54.083 77.3929 54.0714 77.3842 54.0614 77.3738C54.0359 77.3568 54.0122 77.3374 53.9905 77.3158C53.9704 77.3011 53.9517 77.2845 53.9347 77.2664L44.0433 68.2128C43.7279 67.9242 43.5401 67.5222 43.5211 67.0951C43.5022 66.668 43.6537 66.2509 43.9423 65.9355C44.2309 65.6201 44.633 65.4323 45.06 65.4134C45.4871 65.3944 45.9042 65.5459 46.2196 65.8345L53.4341 72.4324V43.8582C53.4341 43.4308 53.6038 43.021 53.906 42.7188C54.2082 42.4166 54.6181 42.2468 55.0454 42.2468C55.4728 42.2468 55.8826 42.4166 56.1848 42.7188C56.487 43.021 56.6567 43.4308 56.6567 43.8582V71.9382L62.9194 65.0976C63.208 64.7822 63.6101 64.5944 64.0372 64.5755C64.4643 64.5565 64.8814 64.708 65.1968 64.9966C65.5122 65.2852 65.7 65.6873 65.7189 66.1144C65.7378 66.5415 65.5864 66.9586 65.2977 67.274V67.2632Z" fill="white"/>
<path d="M53.9258 77.2534C53.9428 77.2716 53.9615 77.2881 53.9816 77.3028C53.9704 77.2949 53.9596 77.2863 53.9494 77.2771L53.9258 77.2534Z" fill="#4F504C"/>
</svg>
