<svg width="24" height="24" viewBox="0 0 24 24" fill="none" xmlns="http://www.w3.org/2000/svg">
<path d="M22.9094 8.20364V3.25091C22.9094 1.71273 22.2113 1.09091 20.4767 1.09091H16.0694C14.3349 1.09091 13.6367 1.71273 13.6367 3.25091V8.19273C13.6367 9.74182 14.3349 10.3527 16.0694 10.3527H20.4767C22.2113 10.3636 22.9094 9.74182 22.9094 8.20364Z" stroke="#9DC3FF" stroke-width="1.5" stroke-linecap="round" stroke-linejoin="round"/>
<path d="M22.9094 20.4764V16.0691C22.9094 14.3345 22.2113 13.6364 20.4767 13.6364H16.0694C14.3349 13.6364 13.6367 14.3345 13.6367 16.0691V20.4764C13.6367 22.2109 14.3349 22.9091 16.0694 22.9091H20.4767C22.2113 22.9091 22.9094 22.2109 22.9094 20.4764Z" stroke="#9DC3FF" stroke-width="1.5" stroke-linecap="round" stroke-linejoin="round"/>
<path d="M10.3645 8.20364V3.25091C10.3645 1.71273 9.66634 1.09091 7.9318 1.09091H3.52452C1.78998 1.09091 1.0918 1.71273 1.0918 3.25091V8.19273C1.0918 9.74182 1.78998 10.3527 3.52452 10.3527H7.9318C9.66634 10.3636 10.3645 9.74182 10.3645 8.20364Z" stroke="#9DC3FF" stroke-width="1.5" stroke-linecap="round" stroke-linejoin="round"/>
<path d="M10.3645 20.4764V16.0691C10.3645 14.3345 9.66634 13.6364 7.9318 13.6364H3.52452C1.78998 13.6364 1.0918 14.3345 1.0918 16.0691V20.4764C1.0918 22.2109 1.78998 22.9091 3.52452 22.9091H7.9318C9.66634 22.9091 10.3645 22.2109 10.3645 20.4764Z" stroke="#9DC3FF" stroke-width="1.5" stroke-linecap="round" stroke-linejoin="round"/>
</svg>
