<svg width="32" height="32" viewBox="0 0 32 32" fill="none" xmlns="http://www.w3.org/2000/svg">
<path d="M16 8.58643V13.0264" stroke="#211F1F" stroke-width="1.5" stroke-miterlimit="10" stroke-linecap="round"/>
<path d="M16.0265 2.6665C11.1199 2.6665 7.14653 6.63984 7.14653 11.5465V14.3465C7.14653 15.2532 6.7732 16.6132 6.30653 17.3865L4.6132 20.2132C3.5732 21.9598 4.2932 23.9065 6.2132 24.5465C12.5865 26.6665 19.4799 26.6665 25.8532 24.5465C27.6532 23.9465 28.4265 21.8398 27.4532 20.2132L25.7599 17.3865C25.2932 16.6132 24.9199 15.2398 24.9199 14.3465V11.5465C24.9065 6.6665 20.9065 2.6665 16.0265 2.6665Z" stroke="#211F1F" stroke-width="1.5" stroke-miterlimit="10" stroke-linecap="round"/>
<path d="M20.4401 25.0933C20.4401 27.5333 18.4401 29.5333 16.0001 29.5333C14.7867 29.5333 13.6667 29.0266 12.8667 28.2266C12.0667 27.4266 11.5601 26.3066 11.5601 25.0933" stroke="#211F1F" stroke-width="1.5" stroke-miterlimit="10"/>
</svg>
