<svg width="110" height="19" viewBox="0 0 110 19" fill="none" xmlns="http://www.w3.org/2000/svg">
<path d="M4.05078 15.3984V15.3633L12.5703 3.1875V0.949219H0.746094V3.55078H8.76172V3.59766L0.371094 15.7266V18H12.6055V15.3984H4.05078ZM23.2109 6.29297V11.8945C23.2109 12.5039 23.1289 13.0664 22.9648 13.5586C22.8008 14.0508 22.5781 14.4609 22.2969 14.7656C22.0156 15.082 21.6875 15.3281 21.3359 15.4922C20.9727 15.6562 20.5977 15.7383 20.1992 15.7383C19.7773 15.7383 19.4375 15.6914 19.1562 15.5977C18.875 15.5039 18.6289 15.3281 18.4414 15.0938C18.2422 14.8594 18.1016 14.5547 18.0078 14.1562C17.9141 13.7695 17.8789 13.2773 17.8789 12.6914V6.29297H15.1953V13.418C15.1953 14.2734 15.3008 15.0117 15.5117 15.6328C15.7227 16.2539 16.0156 16.7461 16.4141 17.1094C16.8125 17.4844 17.2695 17.7539 17.7852 17.9297C18.3008 18.1055 18.8984 18.1875 19.5664 18.1875C20.2578 18.1875 20.9141 18.0469 21.5469 17.7539C22.168 17.4609 22.707 17.0391 23.1758 16.4766H23.2109V18H25.8945V6.29297H23.2109ZM35.6562 6.11719C34.9414 6.11719 34.2734 6.29297 33.6406 6.62109C33.0078 6.94922 32.4688 7.42969 32.0117 8.05078H31.9766V6.29297H29.293V18H31.9766V12.4453C31.9766 11.8125 32.0938 11.2383 32.3398 10.7344C32.5859 10.2305 32.9492 9.83203 33.4414 9.52734C33.9336 9.23438 34.5078 9.08203 35.1758 9.08203C35.4102 9.08203 35.6797 9.09375 35.9844 9.11719V6.12891C35.9141 6.12891 35.8086 6.11719 35.6562 6.11719ZM39.7578 4.54688C40.0742 4.54688 40.3672 4.47656 40.6484 4.3125C40.9297 4.14844 41.1523 3.9375 41.3164 3.65625C41.4805 3.38672 41.5625 3.09375 41.5625 2.76562C41.5625 2.28516 41.375 1.86328 41.0234 1.51172C40.6719 1.16016 40.25 0.984375 39.7578 0.984375C39.2422 0.984375 38.8203 1.16016 38.4688 1.51172C38.1172 1.86328 37.9414 2.27344 37.9414 2.76562C37.9414 3.25781 38.1172 3.67969 38.4688 4.03125C38.8203 4.38281 39.2422 4.54688 39.7578 4.54688ZM38.3984 18H41.082V6.29297H38.3984V18ZM55.0859 18H57.9805V3.55078H62.8672V0.949219H50.2461V3.55078H55.0859V18ZM73.9062 12.0117C73.9062 10.8867 73.6719 9.86719 73.2148 8.97656C72.7461 8.08594 72.0898 7.39453 71.2227 6.87891C70.3555 6.375 69.3477 6.11719 68.2227 6.11719C67.4141 6.11719 66.6641 6.26953 65.9609 6.5625C65.2578 6.85547 64.6484 7.26562 64.1445 7.78125C63.6289 8.30859 63.2305 8.94141 62.9492 9.69141C62.6562 10.4414 62.5156 11.2617 62.5156 12.1406C62.5156 13.3359 62.7734 14.4023 63.3008 15.3281C63.8164 16.2539 64.5312 16.957 65.4453 17.4492C66.3477 17.9414 67.3672 18.1875 68.5039 18.1875C69.5938 18.1875 70.5547 17.9883 71.3867 17.5898C72.2188 17.1914 72.8984 16.6523 73.4375 15.9727L71.5625 14.3672C70.8242 15.293 69.8516 15.75 68.6445 15.75C67.7773 15.75 67.0508 15.5156 66.4531 15.0352C65.8555 14.5664 65.4688 13.9102 65.3047 13.0781H73.8359C73.8828 12.7969 73.9062 12.4453 73.9062 12.0117ZM68.3633 8.55469C68.8555 8.55469 69.3008 8.66016 69.6992 8.85938C70.0977 9.05859 70.4141 9.32812 70.6602 9.67969C70.9062 10.0312 71.0938 10.4414 71.2109 10.9102H65.3516C65.5391 10.1602 65.9023 9.58594 66.4414 9.17578C66.9805 8.76562 67.6133 8.55469 68.3633 8.55469ZM85.2852 6.29297V7.69922H85.2383C84.3477 6.64453 83.1406 6.11719 81.6172 6.11719C80.8203 6.11719 80.0703 6.26953 79.3789 6.57422C78.6758 6.87891 78.0781 7.30078 77.5859 7.82812C77.082 8.36719 76.6836 9.01172 76.4023 9.76172C76.1094 10.5234 75.9688 11.332 75.9688 12.1992C75.9688 12.9141 76.0508 13.582 76.2383 14.2148C76.4258 14.8477 76.6836 15.3984 77.0234 15.8789C77.3633 16.3594 77.7617 16.7695 78.2305 17.1211C78.6992 17.4727 79.2148 17.7422 79.8008 17.918C80.3867 18.1055 80.9961 18.1875 81.6406 18.1875C83.2344 18.1875 84.4766 17.6016 85.3672 16.4297H85.4023V18H87.9688V6.29297H85.2852ZM82.0625 15.75C81.0664 15.75 80.2578 15.4219 79.6367 14.7656C79.0039 14.1094 78.6992 13.2539 78.6992 12.2109C78.6992 11.6719 78.7812 11.168 78.957 10.6992C79.1328 10.2305 79.3789 9.84375 79.6836 9.53906C79.9883 9.23438 80.3398 8.98828 80.75 8.8125C81.1602 8.64844 81.6055 8.55469 82.0742 8.55469C83.0234 8.55469 83.8086 8.90625 84.4414 9.60938C85.0742 10.3125 85.3906 11.1797 85.3906 12.2109C85.3906 13.2539 85.0625 14.1094 84.418 14.7656C83.7734 15.4219 82.9883 15.75 82.0625 15.75ZM105.465 6.11719C104.598 6.11719 103.801 6.29297 103.086 6.62109C102.359 6.94922 101.762 7.42969 101.27 8.0625H101.223C100.52 6.77344 99.3594 6.11719 97.7305 6.11719C97.0391 6.11719 96.3711 6.28125 95.7383 6.58594C95.1055 6.89062 94.543 7.33594 94.0742 7.91016H94.0391V6.29297H91.3555V18H94.0391V12.1641C94.0391 11.0508 94.2969 10.1719 94.8242 9.52734C95.3516 8.88281 96.0312 8.55469 96.8516 8.55469C98.3984 8.55469 99.1836 9.67969 99.1836 11.9062V18.0117H101.867V12.1641C101.867 11.0508 102.125 10.1719 102.641 9.52734C103.156 8.88281 103.812 8.55469 104.598 8.55469C106.121 8.55469 106.895 9.67969 106.895 11.9062V18.0117H109.578V11.2266C109.578 9.51562 109.215 8.23828 108.512 7.39453C107.797 6.55078 106.777 6.11719 105.465 6.11719Z" fill="#514949"/>
<path d="M46.2617 18.1875C46.7539 18.1875 47.1758 18.0234 47.5273 17.6719C47.8789 17.3203 48.0664 16.8984 48.0664 16.4062C48.0664 15.9141 47.8789 15.4922 47.5273 15.1406C47.1758 14.7891 46.7539 14.6133 46.2617 14.6133C45.9219 14.6133 45.6172 14.6953 45.3359 14.8594C45.0547 15.0234 44.832 15.2344 44.668 15.5156C44.5039 15.7969 44.4336 16.0898 44.4336 16.4062C44.4336 16.8984 44.6094 17.3203 44.9609 17.6719C45.3125 18.0234 45.7461 18.1875 46.2617 18.1875Z" fill="#F8444F"/>
</svg>
