<svg width="239" height="151" viewBox="0 0 239 151" fill="none" xmlns="http://www.w3.org/2000/svg">
<g clip-path="url(#clip0_322_1213)">
<path d="M144.459 110.156C143.424 109.913 142.468 109.411 141.681 108.696C141.012 108.062 140.512 107.272 140.225 106.395C139.937 105.483 139.814 104.526 139.864 103.57C139.962 101.5 140.504 99.4754 141.455 97.6339C141.892 96.7758 142.483 96.0055 143.199 95.3616C143.89 94.748 144.721 94.314 145.619 94.0979C146.658 93.8718 147.737 93.9146 148.754 94.2223C149.932 94.5132 151.006 95.1236 151.86 95.9863C152.29 96.4404 152.606 96.9901 152.783 97.5904C153.009 98.3835 153.125 99.2041 153.126 100.029L149.884 99.9429C149.849 99.3042 149.681 98.68 149.389 98.1106C149.229 97.8355 149.013 97.5975 148.754 97.4125C148.495 97.2275 148.2 97.0996 147.888 97.0373C147.508 96.927 147.107 96.9163 146.722 97.0064C146.368 97.0958 146.037 97.2616 145.753 97.4922C145.457 97.7347 145.197 98.0176 144.98 98.3325C144.749 98.6633 144.547 99.0132 144.376 99.3782C144.205 99.7385 144.057 100.109 143.933 100.488C143.812 100.862 143.71 101.201 143.627 101.511C143.201 102.793 143.103 104.162 143.343 105.492C143.444 105.947 143.675 106.363 144.008 106.689C144.342 107.015 144.763 107.236 145.221 107.326C145.571 107.427 145.937 107.462 146.3 107.429C146.605 107.397 146.9 107.305 147.168 107.158C147.439 107.001 147.689 106.811 147.911 106.591C148.168 106.342 148.41 106.078 148.637 105.802L151.549 107.454C151.109 108.08 150.596 108.651 150.02 109.154C149.535 109.563 148.984 109.885 148.391 110.108C147.118 110.539 145.741 110.556 144.459 110.156ZM156.896 113.488C155.738 113.17 154.682 112.556 153.833 111.706C153.352 111.256 152.957 110.722 152.667 110.13C152.353 109.452 152.148 108.729 152.058 107.987L155.166 107.516C155.232 107.901 155.324 108.28 155.443 108.652C155.55 108.988 155.707 109.305 155.909 109.593C156.11 109.876 156.36 110.121 156.647 110.317C156.972 110.535 157.334 110.695 157.715 110.789C157.999 110.868 158.291 110.92 158.585 110.942C158.859 110.963 159.135 110.934 159.399 110.858C159.651 110.784 159.877 110.644 160.056 110.453C160.264 110.22 160.41 109.939 160.479 109.634C160.542 109.366 160.534 109.086 160.456 108.822C160.378 108.558 160.232 108.319 160.032 108.128C159.486 107.524 158.873 106.985 158.204 106.52C157.027 105.733 155.981 104.766 155.103 103.654C154.782 103.179 154.573 102.637 154.493 102.069C154.412 101.501 154.462 100.922 154.638 100.376C154.786 99.7838 155.069 99.2338 155.465 98.7696C155.862 98.3053 156.36 97.9394 156.922 97.7006C158.177 97.1468 159.588 97.062 160.9 97.4619C162.068 97.7558 163.13 98.3737 163.963 99.2444C164.376 99.6745 164.711 100.173 164.953 100.717C165.231 101.364 165.417 102.046 165.508 102.744L162.187 102.861C162.119 102.26 161.929 101.68 161.626 101.157C161.456 100.905 161.239 100.689 160.985 100.521C160.732 100.353 160.448 100.237 160.149 100.179C159.921 100.119 159.686 100.082 159.45 100.07C159.22 100.056 158.988 100.077 158.764 100.132C158.535 100.187 158.326 100.304 158.161 100.471C157.995 100.638 157.879 100.848 157.827 101.078C157.771 101.296 157.784 101.526 157.865 101.736C157.982 102.021 158.161 102.276 158.39 102.481C159.006 103.074 159.673 103.612 160.382 104.088C161.424 104.778 162.343 105.636 163.101 106.628C163.493 107.133 163.755 107.726 163.863 108.356C163.971 108.986 163.923 109.632 163.722 110.239C163.583 110.909 163.294 111.539 162.878 112.081C162.461 112.624 161.927 113.066 161.316 113.374C159.902 113.931 158.337 113.972 156.896 113.488V113.488ZM167.384 116.075L167.433 99.449L170.749 100.338L170.46 111.465L175.89 101.715L179.229 102.61L170.938 117.027L167.384 116.075ZM154.107 28.943L176.717 35.0013L174.853 41.9601L152.243 35.9018L154.107 28.943ZM171.805 67.2442L192.106 72.6838L190.241 79.6426L169.941 74.203L171.805 67.2442ZM174.602 56.8078L194.903 62.2473L193.038 69.2061L172.737 63.7666L174.602 56.8078ZM151.311 39.3794L173.921 45.4378L172.056 52.3965L149.446 46.3382L151.311 39.3794Z" fill="#5B9AFF"/>
<path d="M212.443 55.9145C212.418 55.8704 212.397 55.8089 212.372 55.7648C212.35 55.7046 212.322 55.647 212.287 55.5931L194.097 24.0873C194.072 24.0432 194.029 23.9944 194.004 23.9503C193.978 23.9062 193.923 23.8354 193.897 23.7913L193.711 23.4432L150.031 11.7394C148.187 11.2451 146.221 11.5039 144.567 12.4588C142.914 13.4136 141.707 14.9864 141.213 16.831L117.917 103.772C117.422 105.617 117.681 107.582 118.636 109.236C119.591 110.89 121.164 112.097 123.008 112.591L185.606 129.364C187.451 129.859 189.416 129.6 191.07 128.645C192.724 127.69 193.931 126.117 194.425 124.273L212.652 56.2498L212.443 55.9145ZM193.148 29.6475L206.997 53.6351L191.556 49.4978C190.636 49.2481 189.851 48.6443 189.374 47.8181C188.897 46.9919 188.766 46.0105 189.011 45.0883L193.148 29.6475ZM145.503 47.1471L151.094 26.2812C151.218 25.8201 151.52 25.4269 151.933 25.1882C152.346 24.9494 152.838 24.8848 153.299 25.0083L179.381 31.9971C179.843 32.1206 180.236 32.4224 180.474 32.8358C180.713 33.2493 180.778 33.7407 180.654 34.2018L175.529 53.3289L197.574 59.2358C198.035 59.3594 198.428 59.6611 198.667 60.0746C198.906 60.488 198.971 60.9794 198.847 61.4406L193.254 82.3152C193.13 82.7763 192.828 83.1695 192.415 83.4082C192.001 83.647 191.51 83.7116 191.049 83.5881L141.183 70.2265C140.722 70.1029 140.328 69.8012 140.09 69.3878C139.851 68.9743 139.786 68.4829 139.91 68.0218L145.503 47.1471ZM190.947 123.341C190.698 124.262 190.094 125.046 189.268 125.523C188.441 126 187.46 126.131 186.538 125.887L123.94 109.114C123.019 108.864 122.235 108.26 121.758 107.434C121.281 106.608 121.15 105.626 121.394 104.704L128.635 77.6828L152.509 84.0799L155.764 90.7108C155.875 90.9413 156.035 91.1448 156.233 91.3072C156.431 91.4696 156.662 91.5871 156.91 91.6515L196.59 102.284L190.947 123.341Z" fill="#5B9AFF"/>
<path d="M148.514 49.8177L171.124 55.8761L169.259 62.8349L146.649 56.7765L148.514 49.8177ZM145.717 60.2542L168.327 66.3125L166.463 73.2713L143.853 67.213L145.717 60.2542Z" fill="#5B9AFF"/>
</g>
<g clip-path="url(#clip1_322_1213)">
<path d="M124.244 117.256C124.703 118.971 123.679 120.746 121.963 121.206L53.1089 139.655C51.3931 140.115 49.6184 139.09 49.1587 137.375L22.3133 37.1862C21.8536 35.4705 22.8782 33.6958 24.5939 33.236L76.5393 19.3173L81.9048 39.3415L101.929 33.976L124.244 117.256Z" fill="white"/>
<path d="M75.6738 16.0891L23.7284 30.0079C20.2292 30.9455 18.1469 34.5521 19.0845 38.0513L45.93 138.24C46.8676 141.739 50.4742 143.821 53.9734 142.884L122.828 124.434C126.327 123.497 128.409 119.89 127.471 116.391L105.163 33.1337L75.6738 16.0891ZM124.243 117.256C124.703 118.972 123.678 120.746 121.963 121.206L53.1084 139.655C51.3926 140.115 49.6179 139.091 49.1582 137.375L22.3128 37.1863C21.8531 35.4705 22.8777 33.6958 24.5934 33.2361L76.5388 19.3174L81.9043 39.3415L101.928 33.9761L124.243 117.256Z" fill="#3A86FF"/>
<path d="M75.6738 16.0891L81.9103 39.3641L105.163 33.1336L75.6738 16.0891Z" fill="#3070D5"/>
<path d="M132.446 108.501L37.6754 133.894L29.0375 101.657C28.4447 99.4447 29.7502 97.1834 31.9626 96.5906L118.719 73.3443C120.931 72.7515 123.193 74.0571 123.785 76.2694L132.423 108.507L132.446 108.501Z" fill="#3070D5"/>
<path d="M125.832 110.273L127.012 114.675L132.447 108.501L125.832 110.273Z" fill="#2759AA"/>
<path d="M44.2903 132.122L45.4699 136.524L37.6758 133.894L44.2903 132.122Z" fill="#2759AA"/>
<path d="M33.125 100.658L119.746 77.4485L127.277 105.555L40.656 128.765L33.125 100.658Z" fill="#3A86FF"/>
<path d="M72.0975 34.6139L32.1395 45.3206C31.7384 45.4281 31.3109 45.3718 30.9513 45.1642C30.5916 44.9565 30.3292 44.6145 30.2217 44.2133C30.1142 43.8122 30.1705 43.3848 30.3781 43.0251C30.5858 42.6655 30.9278 42.403 31.3289 42.2955L71.287 31.5888C71.6881 31.4813 72.1155 31.5376 72.4752 31.7452C72.8349 31.9529 73.0973 32.2949 73.2048 32.6961C73.3123 33.0972 73.256 33.5246 73.0484 33.8843C72.8407 34.2439 72.4987 34.5064 72.0975 34.6139V34.6139Z" fill="#3A86FF"/>
<path d="M74.0331 41.8381L34.0751 52.5448C33.6739 52.6523 33.2465 52.5961 32.8868 52.3884C32.5272 52.1808 32.2647 51.8387 32.1572 51.4376C32.0497 51.0364 32.106 50.609 32.3137 50.2494C32.5213 49.8897 32.8633 49.6273 33.2645 49.5198L73.2225 38.813C73.6237 38.7056 74.0511 38.7618 74.4107 38.9695C74.7704 39.1771 75.0328 39.5191 75.1403 39.9203C75.2478 40.3214 75.1916 40.7489 74.9839 41.1085C74.7763 41.4682 74.4342 41.7306 74.0331 41.8381V41.8381Z" fill="#3A86FF"/>
<path d="M97.0705 43.3837L36.0047 59.7463C35.6036 59.8537 35.1762 59.7975 34.8165 59.5898C34.4569 59.3822 34.1944 59.0401 34.0869 58.639C33.9794 58.2379 34.0357 57.8104 34.2434 57.4508C34.451 57.0911 34.793 56.8287 35.1942 56.7212L96.26 40.3587C96.6611 40.2512 97.0885 40.3074 97.4482 40.5151C97.8079 40.7227 98.0703 41.0648 98.1778 41.4659C98.2853 41.8671 98.229 42.2945 98.0214 42.6541C97.8137 43.0138 97.4717 43.2762 97.0705 43.3837Z" fill="#3A86FF"/>
<path d="M99.0061 50.6078L37.9403 66.9704C37.5391 67.0779 37.1117 67.0216 36.7521 66.8139C36.3924 66.6063 36.13 66.2643 36.0225 65.8631C35.915 65.462 35.9713 65.0346 36.1789 64.6749C36.3866 64.3152 36.7286 64.0528 37.1297 63.9453L98.1955 47.5828C98.5967 47.4753 99.0241 47.5316 99.3838 47.7392C99.7434 47.9469 100.006 48.2889 100.113 48.69C100.221 49.0912 100.165 49.5186 99.9569 49.8782C99.7493 50.2379 99.4072 50.5004 99.0061 50.6078Z" fill="#3A86FF"/>
<path d="M100.942 57.8318L39.8758 74.1944C39.4747 74.3019 39.0473 74.2456 38.6876 74.0379C38.3279 73.8303 38.0655 73.4883 37.958 73.0871C37.8505 72.686 37.9068 72.2585 38.1145 71.8989C38.3221 71.5392 38.6641 71.2768 39.0653 71.1693L100.131 54.8068C100.532 54.6993 100.96 54.7555 101.319 54.9632C101.679 55.1708 101.941 55.5129 102.049 55.914C102.156 56.3152 102.1 56.7426 101.892 57.1022C101.685 57.4619 101.343 57.7244 100.942 57.8318Z" fill="#3A86FF"/>
<path d="M102.871 65.0334L41.8055 81.3959C41.4044 81.5034 40.977 81.4471 40.6173 81.2395C40.2576 81.0318 39.9952 80.6898 39.8877 80.2887C39.7802 79.8875 39.8365 79.4601 40.0441 79.1004C40.2518 78.7408 40.5938 78.4783 40.995 78.3708L102.061 62.0083C102.462 61.9008 102.889 61.9571 103.249 62.1647C103.609 62.3724 103.871 62.7144 103.979 63.1156C104.086 63.5167 104.03 63.9441 103.822 64.3038C103.614 64.6635 103.272 64.9259 102.871 65.0334V65.0334Z" fill="#3A86FF"/>
<path d="M104.807 72.2574L43.7411 88.6199C43.3399 88.7274 42.9125 88.6711 42.5528 88.4635C42.1932 88.2558 41.9307 87.9138 41.8233 87.5127C41.7158 87.1115 41.772 86.6841 41.9797 86.3244C42.1873 85.9648 42.5294 85.7023 42.9305 85.5948L103.996 69.2323C104.397 69.1248 104.825 69.1811 105.185 69.3887C105.544 69.5964 105.807 69.9384 105.914 70.3396C106.022 70.7407 105.965 71.1681 105.758 71.5278C105.55 71.8875 105.208 72.1499 104.807 72.2574V72.2574Z" fill="#3A86FF"/>
<path d="M64.4088 102.269L67.0643 112.18C67.391 113.399 67.329 114.432 66.8497 115.262C66.3705 116.092 65.5582 116.673 64.3843 116.987C64.1134 117.06 63.8816 117.098 63.6498 117.136C63.418 117.173 63.1801 117.189 62.9197 117.21L62.4382 114.871C62.6309 114.868 62.7724 114.854 62.9139 114.841C63.0554 114.827 63.1908 114.791 63.394 114.736C63.7326 114.645 63.9507 114.466 64.0648 114.169C64.1788 113.873 64.1723 113.487 64.0453 113.013L61.3898 103.103L64.4149 102.292L64.4088 102.269ZM63.7362 100.03L60.666 100.853L60.1155 98.7984L63.1857 97.9757L63.7362 100.03Z" fill="white"/>
<path d="M74.4011 107.141C74.3346 106.893 74.1447 106.726 73.8194 106.595C73.5001 106.487 72.955 106.44 72.1903 106.475C71.001 106.552 70.0299 106.449 69.3385 106.127C68.6245 105.81 68.1842 105.25 67.9604 104.415C67.7305 103.557 67.8921 102.715 68.4572 101.935C69.0163 101.132 69.9084 100.578 71.15 100.245C72.4594 99.8945 73.5765 99.9098 74.5013 100.291C75.4262 100.672 75.987 101.321 76.2124 102.252L76.2019 102.303L73.2446 103.096C73.1418 102.712 72.9728 102.443 72.7152 102.294C72.4576 102.145 72.1173 102.14 71.6884 102.255C71.3724 102.339 71.1257 102.502 70.9483 102.743C70.7709 102.984 70.7411 103.234 70.8137 103.505C70.8802 103.754 71.0762 103.943 71.3729 104.057C71.6696 104.171 72.2086 104.196 73.0185 104.148C74.2755 104.054 75.2527 104.179 75.9667 104.496C76.6581 104.818 77.127 105.395 77.3569 106.252C77.5928 107.133 77.4026 107.958 76.7637 108.734C76.1247 109.51 75.1875 110.076 73.9007 110.421C72.5688 110.778 71.417 110.723 70.468 110.252C69.519 109.78 68.9356 109.138 68.7569 108.291L68.7674 108.239L71.5441 107.495C71.6937 107.963 71.9139 108.243 72.2392 108.374C72.5646 108.504 72.9786 108.514 73.4752 108.381C73.8816 108.272 74.1734 108.097 74.3343 107.885C74.4274 107.691 74.4798 107.435 74.4011 107.141V107.141Z" fill="white"/>
<path d="M79.0612 103.497C78.6681 102.03 78.7538 100.724 79.3411 99.5749C79.9284 98.4255 80.9587 97.6655 82.4487 97.2663C83.9386 96.867 85.2335 97.004 86.3168 97.7058C87.4001 98.4075 88.1271 99.4951 88.5202 100.963L88.5686 101.143C88.9618 102.611 88.8821 103.938 88.2888 105.065C87.7015 106.215 86.6712 106.975 85.1812 107.374C83.6912 107.773 82.3964 107.636 81.3131 106.934C80.2298 106.233 79.5028 105.145 79.1096 103.678L79.0612 103.497ZM82.1859 102.878C82.4037 103.69 82.7145 104.309 83.0899 104.716C83.4653 105.124 83.9772 105.229 84.5868 105.065C85.1737 104.908 85.5422 104.567 85.686 104.021C85.8073 103.48 85.7734 102.812 85.5557 101.999L85.4952 101.773C85.2834 100.983 84.9786 100.387 84.5972 99.957C84.2219 99.5495 83.7038 99.4221 83.0943 99.5855C82.4848 99.7488 82.1224 100.112 82.0011 100.653C81.8798 101.193 81.9198 101.884 82.1315 102.674L82.1859 102.878Z" fill="white"/>
<path d="M92.7171 94.6841L93.1989 96.0309C93.3819 95.4496 93.6854 94.9569 94.0644 94.565C94.4659 94.1671 94.9488 93.8925 95.5357 93.7352C96.4839 93.4812 97.3361 93.5916 98.0534 94.1011C98.7706 94.6106 99.3197 95.5764 99.6948 96.9761L101.274 102.868L98.2259 103.685L96.6532 97.8153C96.4838 97.1832 96.2786 96.7784 96.0028 96.562C95.727 96.3455 95.4033 96.3113 95.0421 96.4081C94.7261 96.4928 94.4507 96.6391 94.2101 96.8246C93.992 97.004 93.8086 97.2225 93.6885 97.4967L95.5516 104.45L92.5039 105.266L89.8847 95.4914L92.7292 94.7292L92.7171 94.6841Z" fill="white"/>
</g>
<defs>
<clipPath id="clip0_322_1213">
<rect width="115.211" height="115.211" fill="white" transform="translate(127.086) rotate(15)"/>
</clipPath>
<clipPath id="clip1_322_1213">
<rect width="119.662" height="119.662" fill="white" transform="translate(0 34.9141) rotate(-15)"/>
</clipPath>
</defs>
</svg>
