<svg width="307" height="196" viewBox="0 0 307 196" fill="none" xmlns="http://www.w3.org/2000/svg">
<g clip-path="url(#clip0_1311_1575)">
<path d="M173.718 35.8687C177.475 37.4989 180.996 39.3053 184.187 41.2301C195.344 47.9559 204.32 57.748 215.284 64.494C225.637 70.8636 238.281 72.4121 250.128 73.4768C270.778 75.3329 313.849 93.1328 306.072 126.124C303.243 138.13 293.265 146.284 288.157 157.156C282.723 168.721 283.293 183.146 274.642 193.172C270.835 197.58 265.581 200.492 260.187 202.697C224.29 217.371 183.977 216.689 145.913 215.071C115.87 213.795 67.6155 220.542 41.2264 204.066C28.1249 195.886 34.9379 173.524 25.8721 161.514C18.2542 151.422 7.88624 144.793 2.79311 132.16C-5.87412 110.664 6.48018 82.6893 28.1114 75.0585C41.6286 70.2901 55.9489 68.1055 69.3108 62.8687C83.1154 57.4563 88.4344 49.3497 98.9621 39.7547C117.994 22.4117 150.386 25.7402 173.718 35.8687Z" fill="#CCE9FF"/>
<path d="M206.964 206.907H102.762V141.739C102.762 140.508 103.742 139.51 104.95 139.51H204.776C205.985 139.51 206.964 140.508 206.964 141.739V206.907Z" fill="#D3D3D3"/>
<path d="M106.577 144.231H203.153V201.699H106.577V144.231Z" fill="#F2F2F2"/>
<path d="M179.594 201.684H133.612C133.941 200.349 134.242 199.283 134.506 198.542C134.642 198.161 134.831 197.8 135.066 197.471C135.88 196.316 137.275 195.335 139.073 194.505C141.218 193.512 143.933 192.732 146.91 192.114C150.072 191.466 153.522 190.999 156.882 190.66C157.109 190.64 157.334 190.616 157.561 190.596C161.297 190.248 164.886 190.056 167.783 189.963C171.781 189.825 174.476 189.854 174.476 189.854C174.476 189.854 174.693 190.199 175.071 190.886C175.959 192.517 177.733 196.091 179.594 201.684Z" fill="#0B4870"/>
<path d="M144.37 126.655C144.283 127.245 144.129 127.791 143.912 128.316L144.042 126.83C144.152 126.764 144.262 126.721 144.37 126.655Z" fill="#FFE3CA"/>
<path d="M168.728 124.449V124.469C168.683 124.45 168.639 124.427 168.618 124.427C168.662 124.427 168.683 124.449 168.728 124.449Z" fill="#EEBEA7"/>
<path d="M215.917 155.805C215.917 155.805 218.757 153.172 218.194 151.197C217.717 149.521 218.437 147.643 218.617 146.864C218.86 145.832 218.958 142.481 219.727 142.663C221.031 142.98 220.73 148.329 220.89 149.469C221.051 150.608 224.505 146.793 225.682 146.594C226.862 146.39 232.857 152.466 230.186 154.813C227.515 157.154 223.832 158.105 223.443 158.611C223.054 159.117 221.224 160.507 221.224 160.507L215.917 155.805Z" fill="#F1B99E"/>
<path d="M224.928 146.99C224.928 146.99 233.586 140.359 234.532 140.399C235.482 140.437 235.81 140.93 235.025 141.582C234.243 142.236 226.85 148.236 226.85 148.236C226.85 148.236 238.412 142.106 239.198 141.969C239.653 141.888 240.003 142.765 239.614 143.155C239.227 143.54 228.467 150.31 228.467 150.31C228.467 150.31 239.273 144.605 239.962 144.686C240.566 144.759 240.996 145.755 240.224 146.233C239.451 146.71 229.719 152.574 229.719 152.574C229.719 152.574 237.849 148.919 238.39 149.327C238.718 149.58 239.187 150.135 237.063 151.012C234.935 151.89 230.308 154.693 230.308 154.693L224.928 146.99Z" fill="#F1B99E"/>
<path d="M163.113 118.725V119.315C163.067 119.207 163.024 119.119 163.003 119.009C162.958 118.988 162.958 118.945 162.958 118.921C163.003 118.857 163.046 118.792 163.113 118.725Z" fill="#FFBE55"/>
<path d="M156.603 122.309C156.515 122.329 156.404 122.329 156.318 122.329V122.286C156.404 122.309 156.515 122.309 156.603 122.309ZM163.112 118.725V118.9C163.075 118.936 163.039 118.972 163.003 119.009C162.763 119.271 162.499 119.511 162.238 119.752C162.128 119.84 162.041 119.926 161.933 120.013C162.063 119.884 162.216 119.73 162.349 119.599C162.546 119.402 162.741 119.162 162.958 118.92C163.003 118.857 163.046 118.792 163.112 118.725Z" fill="#EEBEA7"/>
<path d="M168.114 111.19C166.913 113.855 165.449 116.259 163.788 118.159C163.571 118.42 163.329 118.682 163.112 118.901V118.726C163.046 118.793 163.003 118.858 162.958 118.922C162.741 119.163 162.545 119.403 162.349 119.6C162.216 119.731 162.063 119.885 161.933 120.014C161.887 120.037 161.845 120.081 161.802 120.124C161.735 120.189 161.67 120.256 161.603 120.277C161.431 120.428 161.249 120.566 161.058 120.692C160.818 120.867 160.6 121.019 160.361 121.15C160.304 121.189 160.245 121.226 160.186 121.26C159.965 121.39 159.749 121.5 159.554 121.586C159.357 121.692 159.152 121.78 158.94 121.849L158.919 121.871C158.745 121.915 158.613 121.98 158.459 122.024C158.414 122.046 158.373 122.068 158.328 122.068C158.177 122.111 158.023 122.154 157.869 122.178C157.827 122.178 157.805 122.198 157.761 122.198H157.694C157.586 122.222 157.456 122.243 157.347 122.265C157.237 122.286 157.106 122.286 156.997 122.286C156.889 122.309 156.777 122.309 156.69 122.309H156.669C156.648 122.329 156.626 122.329 156.604 122.309C156.516 122.309 156.405 122.309 156.319 122.286V122.329C156.189 122.329 156.057 122.309 155.905 122.286C155.751 122.265 155.577 122.243 155.423 122.222C155.336 122.198 155.25 122.198 155.139 122.178C155.053 122.154 154.964 122.154 154.877 122.111C154.419 122.002 153.984 121.827 153.524 121.586C153.38 121.516 153.241 121.436 153.108 121.348C152.388 120.933 151.688 120.343 150.966 119.599C150.707 119.339 150.465 119.032 150.203 118.725C149.089 117.327 147.977 115.472 146.949 113.113C146.53 112.17 146.137 111.215 145.769 110.251C146.314 111.321 145.363 101.337 145.582 101.688C142.612 96.0082 145.572 100.683 146.624 97.8662C153.197 100.64 165.973 105.424 165.973 100.574C165.973 100.574 166.257 103.523 166.586 106.581C166.848 109.093 167.132 111.693 167.264 112.676C167.263 112.675 167.611 112.129 168.114 111.19Z" fill="#F4C7B1"/>
<path d="M156.603 122.309C156.515 122.329 156.404 122.329 156.318 122.329V122.286C156.404 122.309 156.515 122.309 156.603 122.309ZM163.112 118.725V118.9C163.075 118.936 163.039 118.972 163.003 119.009C162.763 119.271 162.499 119.511 162.238 119.752C162.128 119.84 162.041 119.926 161.933 120.013C162.063 119.884 162.216 119.73 162.349 119.599C162.546 119.402 162.741 119.162 162.958 118.92C163.003 118.857 163.046 118.792 163.112 118.725Z" fill="#EEBEA7"/>
<path d="M145.768 110.25C144.019 106.799 141.202 100.203 141.705 93.9553V93.9326C140.919 88.7566 147.363 79.4293 157.193 79.9094C167.021 79.4293 173.466 88.7566 172.679 93.9326V93.9553C172.983 97.7339 172.066 101.622 170.931 104.878C171.652 104.854 172.349 104.942 173.049 105.182C176.96 106.472 178.794 111.561 177.134 116.52C175.497 121.499 170.974 124.469 167.065 123.181C165.251 122.591 163.874 121.172 163.111 119.314V118.9C163.329 118.682 163.571 118.42 163.787 118.158C165.448 116.258 166.913 113.854 168.114 111.189C167.61 112.128 167.304 113.283 167.304 113.283C167.172 112.302 166.846 109.092 166.584 106.58C166.254 103.522 165.971 100.573 165.971 100.573C165.971 105.424 153.195 100.639 146.622 97.8653L145.768 110.25Z" fill="#FFBE55"/>
<path d="M163.112 118.725V119.314C163.112 119.73 163.091 120.232 163.112 120.8C162.478 121.586 161.845 122.242 161.19 122.744C160.969 122.919 160.752 123.072 160.535 123.225C160.37 123.349 160.194 123.458 160.01 123.552H159.989C158.984 124.119 157.979 124.403 156.996 124.426H156.493C156.428 124.426 156.363 124.426 156.318 124.404V122.285C156.404 122.307 156.515 122.307 156.603 122.307C156.625 122.328 156.647 122.328 156.668 122.307H156.689C156.8 122.328 156.888 122.328 156.996 122.328C157.128 122.328 157.28 122.307 157.411 122.285C157.563 122.264 157.739 122.242 157.893 122.22C157.979 122.197 158.065 122.197 158.176 122.176C158.264 122.153 158.351 122.153 158.439 122.11C158.897 122 159.333 121.825 159.79 121.585C159.923 121.521 160.077 121.434 160.206 121.346C160.686 121.084 161.145 120.733 161.604 120.275C161.671 120.253 161.736 120.187 161.802 120.122C161.845 120.079 161.887 120.035 161.933 120.012C162.063 119.883 162.216 119.729 162.349 119.598C162.546 119.401 162.741 119.161 162.958 118.919C163.003 118.857 163.046 118.792 163.112 118.725Z" fill="#A5735B"/>
<path d="M156.32 137.445V196.575L166.522 196.139L174.91 195.768L174.057 185.436L173.118 173.879C171.662 174.497 170.212 175.131 168.77 175.782C169.163 171.216 169.338 167.022 169.076 163.592C168.05 150.835 166.456 140.438 165.21 133.645V133.623C165.34 132.312 165.165 130.848 164.86 129.495C164.816 129.215 164.757 128.938 164.686 128.664C164.598 128.358 164.534 128.075 164.447 127.791L164.248 127.136C164.205 126.983 164.139 126.83 164.097 126.698C163.937 126.164 163.747 125.639 163.527 125.126H163.485C163.66 125.913 164.272 128.534 165.035 132.662V132.684C164.535 134.868 162.939 136.091 160.972 136.77C160.951 136.77 160.909 136.79 160.884 136.79C159.532 137.25 158.003 137.424 156.54 137.445C156.474 137.445 156.387 137.467 156.32 137.445Z" fill="#0E538C"/>
<path d="M179.626 155.839C180.151 156.645 180.892 158.131 181.635 159.814C181.527 161.67 181.396 162.783 181.396 162.783C181.396 162.783 180.588 164.902 179.517 168.224C179.232 169.052 176.482 183.731 176.176 184.694C176.11 184.868 176.065 185.064 176.001 185.239C174.997 185.74 175.221 184.866 173.472 185.567C172.95 185.785 172.381 186.003 171.791 186.264C171.703 186.31 171.595 186.353 171.44 186.418C171.266 186.483 171.091 186.549 170.916 186.636C169.755 187.136 168.597 187.646 167.445 188.166C167.836 183.6 169.338 167.022 169.075 163.592C168.049 150.835 166.456 140.438 165.21 133.645V133.623C165.143 133.296 165.102 132.991 165.036 132.684V132.661C164.272 128.534 163.66 125.914 163.484 125.126H169.142V125.171C170.714 125.061 178.134 124.016 183.203 128.844C180.406 127.642 176.7 128.729 175.457 129.495C174.954 129.783 174.49 130.135 174.078 130.543C173.444 131.134 172.926 131.838 172.55 132.618C168.924 140.111 178.096 153.522 179.626 155.839Z" fill="#2A94F4"/>
<path d="M180.038 201.684H165.98C166.127 199.892 166.313 198.035 166.52 196.14C166.731 194.107 166.982 192.041 167.221 189.963C167.301 189.246 167.384 188.533 167.463 187.818C167.463 187.818 167.468 187.818 167.473 187.813C169.181 187.188 171.426 184.287 173.886 183.315C173.945 183.294 173.999 183.27 174.058 183.25C174.76 183.01 175.457 184.954 176.174 184.694C176.635 189.575 178.281 195.944 180.038 201.684Z" fill="#2A94F4"/>
<path d="M156.32 124.405V137.445C156.387 137.468 156.474 137.445 156.541 137.445C158.003 137.424 159.533 137.25 160.885 136.79C160.91 136.79 160.952 136.77 160.973 136.77C162.939 136.092 164.535 134.868 165.035 132.684V132.662C164.272 128.534 163.661 125.914 163.486 125.126H163.179V124.712C163.179 124.45 163.157 124.209 163.157 123.969C163.136 123.182 163.136 122.44 163.114 121.718V120.802C162.481 121.588 161.847 122.244 161.192 122.746C160.99 122.926 160.771 123.087 160.538 123.226C160.373 123.35 160.197 123.459 160.014 123.554H159.993C158.921 124.166 157.873 124.427 156.824 124.427C156.649 124.427 156.474 124.427 156.32 124.405Z" fill="#F4C7B1"/>
<path d="M218.988 153.051L219.493 153.95L219.509 153.967L223.455 160.944L224.065 162.018C224.065 162.018 222.869 162.5 220.987 163.297C219.274 164.02 217 164.972 214.535 166.039C213.852 166.344 213.165 166.643 212.476 166.935C207.682 169.061 202.637 171.331 200.11 172.784C194.598 175.932 190.011 177.032 187.217 176.974C184.438 176.9 178.341 160.446 177.389 156.499C176.424 152.569 172.857 145.327 170.301 138.431C169.22 135.501 169.533 132.915 170.459 130.863C171.69 128.08 174.012 126.282 175.446 125.994C176.011 125.865 176.591 125.808 177.17 125.825C178.064 125.829 178.907 126 179.699 126.307C187.456 129.329 189.858 145.4 190.312 148.138C190.479 149.087 190.945 150.68 191.546 152.419C192.876 156.487 194.814 161.396 194.814 161.396C198.709 159.717 200.317 159.237 201.801 158.812C202.878 158.497 203.895 158.24 205.652 157.565C206.182 157.368 206.748 157.139 207.358 156.931C208.845 156.393 210.338 155.871 211.838 155.367C215.546 154.128 218.988 153.051 218.988 153.051Z" fill="#2A94F4"/>
<path d="M156.997 122.287V124.405C156.932 124.428 156.889 124.428 156.822 124.428H156.318C155.335 124.405 154.329 124.121 153.324 123.554H153.303C153.12 123.459 152.944 123.35 152.778 123.227C152.556 123.073 152.338 122.913 152.125 122.746C151.469 122.244 150.835 121.587 150.202 120.802C150.223 119.95 150.202 119.229 150.202 118.727C150.464 119.034 150.706 119.34 150.965 119.601C151.687 120.344 152.387 120.935 153.107 121.35C153.238 121.437 153.391 121.525 153.523 121.588C153.983 121.828 154.418 122.003 154.876 122.113C154.963 122.156 155.051 122.156 155.137 122.179C155.25 122.2 155.335 122.2 155.422 122.223C155.576 122.245 155.75 122.267 155.904 122.288C156.055 122.31 156.188 122.331 156.318 122.331C156.404 122.331 156.515 122.331 156.602 122.31C156.625 122.331 156.647 122.331 156.668 122.31H156.688C156.776 122.309 156.888 122.309 156.997 122.287Z" fill="#A5735B"/>
<path d="M156.997 137.445V196.575L146.795 196.139L138.407 195.768L139.259 185.436L140.198 173.879C141.553 174.449 143.082 175.125 144.547 175.782C144.152 171.216 143.98 167.022 144.241 163.592C145.267 150.835 146.86 140.438 148.105 133.645V133.623C147.976 132.312 148.151 130.848 148.456 129.495C148.498 129.208 148.565 128.927 148.632 128.664C148.719 128.358 148.782 128.075 148.87 127.791L149.068 127.136C149.111 126.983 149.177 126.83 149.22 126.698C149.381 126.164 149.571 125.639 149.789 125.126H149.831C149.657 125.913 149.044 128.534 148.281 132.662V132.684C148.782 134.868 150.378 136.091 152.346 136.77C152.367 136.77 152.409 136.79 152.433 136.79C153.785 137.25 155.316 137.424 156.777 137.445C156.842 137.445 156.932 137.467 156.997 137.445Z" fill="#0E538C"/>
<path d="M149.831 125.125C149.656 125.912 149.043 128.533 148.28 132.661V132.683C148.215 132.989 148.171 133.295 148.105 133.622V133.644C146.86 140.438 145.267 150.834 144.241 163.591C143.979 167.021 144.152 171.216 144.547 175.781C143.104 175.131 141.655 174.497 140.198 173.879C139.609 173.617 139.04 173.4 138.518 173.182C136.768 172.482 135.85 171.979 134.847 171.476C134.783 171.302 134.737 171.107 134.672 170.932C134.366 169.97 134.083 169.052 133.799 168.224C132.728 164.903 131.92 162.783 131.92 162.783C131.92 162.783 131.79 161.671 131.681 159.814C132.423 158.131 133.166 156.646 133.691 155.84C135.219 153.522 144.392 140.112 140.766 132.619C140.389 131.838 139.871 131.135 139.238 130.544C138.826 130.136 138.363 129.784 137.86 129.495C136.618 128.73 131.719 129.596 128.923 130.798C133.991 125.969 142.603 125.061 144.175 125.171V125.126H149.831V125.125ZM147.335 201.683H133.276C133.698 200.304 134.115 198.89 134.504 197.47C135.756 192.972 136.792 188.405 137.14 184.693C137.857 184.954 138.56 185.194 139.262 185.435C141.795 186.328 144.109 187.183 145.852 187.817C146.009 189.25 146.18 190.689 146.348 192.114C146.5 193.467 146.656 194.813 146.794 196.14C147.001 198.034 147.187 199.892 147.335 201.683Z" fill="#2A94F4"/>
<path d="M156.998 124.405V137.445C156.933 137.468 156.843 137.445 156.777 137.445C155.316 137.424 153.785 137.25 152.433 136.79C152.41 136.79 152.367 136.77 152.346 136.77C150.379 136.092 148.782 134.868 148.281 132.684V132.662C149.044 128.534 149.658 125.914 149.832 125.126H150.138V124.712C150.138 124.45 150.161 124.209 150.161 123.969C150.182 123.182 150.182 122.44 150.203 121.718V120.802C150.836 121.588 151.47 122.244 152.126 122.746C152.346 122.943 152.563 123.095 152.779 123.226C152.956 123.357 153.13 123.465 153.304 123.554H153.325C154.396 124.166 155.448 124.427 156.494 124.427C156.669 124.427 156.843 124.427 156.998 124.405Z" fill="#F4C7B1"/>
<path d="M163.024 182.224C162.871 183.185 162.238 183.906 162.238 183.906C162.238 183.906 162.609 185.172 161.758 186.002C161.758 186.002 162.042 187.203 160.928 187.99C160.928 187.99 161.19 189.17 160.315 189.673C160.315 189.673 158.414 189.913 157.718 189.783C154.894 189.14 152.076 188.47 149.265 187.772L151.121 179.973V179.952C151.929 179.407 152.693 178.903 152.934 178.75C153.524 178.4 155.534 178.51 157.606 179.165C159.619 179.799 161.868 180.694 162.501 181.044C162.829 181.219 163.155 181.285 163.024 182.224Z" fill="#EEA886"/>
<path d="M151.361 178.947L151.12 179.953V179.974L149.264 187.773L148.98 188.975C148.98 188.975 147.778 188.516 145.853 187.816C144.107 187.183 141.794 186.332 139.26 185.437C138.56 185.195 137.86 184.955 137.142 184.694C132.183 182.989 126.939 181.22 124.099 180.564C117.918 179.122 113.809 176.807 111.8 174.864C109.814 172.92 116.541 156.712 118.53 153.173C120.496 149.634 122.809 141.902 125.629 135.109C126.83 132.225 128.816 130.544 130.893 129.671C133.69 128.468 136.617 128.73 137.859 129.495C138.362 129.783 138.825 130.136 139.237 130.543C139.87 131.134 140.388 131.838 140.764 132.618C144.391 140.111 135.218 153.522 133.69 155.839C133.165 156.645 132.422 158.131 131.68 159.814C129.889 163.7 127.966 168.615 127.966 168.615C131.963 170.037 133.47 170.778 134.845 171.476C135.849 171.979 136.767 172.482 138.517 173.182C139.038 173.399 139.608 173.616 140.197 173.879C141.552 174.448 143.081 175.124 144.545 175.781C146.826 176.818 149.098 177.874 151.361 178.947Z" fill="#2A94F4"/>
<path d="M171.942 104.994L171.755 96.4347C171.727 95.0066 171.755 93.5919 171.551 92.2675C171.349 90.9241 170.985 89.6089 170.42 88.3913C169.31 85.9507 167.447 83.8907 165.107 82.5841C162.771 81.2573 160.052 80.6543 157.342 80.6654C154.631 80.6543 151.908 81.2573 149.58 82.5841C147.236 83.8907 145.373 85.9507 144.26 88.3913C143.698 89.6083 143.334 90.9241 143.132 92.2675C142.929 93.606 142.949 94.9881 142.93 96.4347L142.739 104.994H141.666L141.483 96.4347C141.465 95.0311 141.401 93.5532 141.59 92.0606C141.777 90.5821 142.14 89.1072 142.739 87.7202C143.901 84.9222 146.072 82.5503 148.698 81.0503C151.327 79.527 154.364 78.8405 157.342 78.8252C160.323 78.8405 163.356 79.527 165.985 81.0503C168.613 82.5503 170.78 84.9222 171.94 87.7202C172.539 89.1072 172.906 90.5821 173.097 92.0606C173.283 93.5649 173.221 95.017 173.205 96.4347L173.019 104.994H171.942Z" fill="#0E538C"/>
<path d="M142.523 109.642C140.597 109.642 140.111 108.261 140.111 106.555V101.021C140.111 99.3175 140.597 97.9336 142.523 97.9336H142.984V109.642H142.523Z" fill="#0B4870"/>
<path d="M142.985 97.9336H143.98V109.642H142.985V97.9336Z" fill="#2A94F4"/>
<path d="M172.453 109.642C174.381 109.642 174.87 108.261 174.87 106.555V101.021C174.87 99.3175 174.381 97.9336 172.453 97.9336H171.993V109.642H172.453Z" fill="#0B4870"/>
<path d="M170.996 97.9336H171.992V109.642H170.996V97.9336Z" fill="#2A94F4"/>
<path d="M158.056 120.311V119.237C162.499 119.237 170.96 112.923 170.96 109.642H172.032C172.032 113.796 162.672 120.311 158.056 120.311Z" fill="#CCE9FF"/>
<path d="M158.769 121.274H157.339C156.152 121.274 155.191 120.604 155.191 119.774C155.191 118.946 156.152 118.277 157.339 118.277H158.769C159.955 118.277 160.916 118.947 160.916 119.774C160.915 120.604 159.955 121.274 158.769 121.274Z" fill="#0B4870"/>
<path d="M119.744 62.4456V70.9268L119.693 82.4399L119.625 96.3458L119.582 106.604L109.362 96.3065L106.244 96.2954L64.889 96.102C57.9023 94.7389 52.6299 88.5903 52.6299 81.218V62.4456C52.6299 54.6582 58.5181 48.2266 66.0814 47.3799L107.534 47.5708C114.493 48.9444 119.744 55.0813 119.744 62.4456Z" fill="#2A94F4"/>
<path opacity="0.8" d="M106.852 62.852C106.852 63.1444 106.795 63.4341 106.683 63.7043C106.572 63.9746 106.408 64.2203 106.201 64.4272C105.995 64.6342 105.749 64.7984 105.479 64.9106C105.209 65.0227 104.92 65.0806 104.627 65.0808H66.5069C66.2143 65.0808 65.9245 65.0231 65.6541 64.9111C65.3838 64.7991 65.1382 64.6349 64.9313 64.4279C64.7244 64.2209 64.5604 63.9752 64.4485 63.7048C64.3366 63.4344 64.2791 63.1446 64.2793 62.852C64.2793 62.5595 64.3369 62.2698 64.4489 61.9996C64.5608 61.7294 64.7249 61.4838 64.9318 61.277C65.1386 61.0702 65.3842 60.9062 65.6545 60.7943C65.9247 60.6825 66.2144 60.6249 66.5069 60.625H104.627C105.855 60.625 106.852 61.6215 106.852 62.852ZM106.852 71.1459C106.852 71.7363 106.617 72.3026 106.2 72.7205C105.783 73.1384 105.218 73.3739 104.627 73.3753H66.5069C65.9161 73.3742 65.3499 73.1389 64.9323 72.721C64.5148 72.3031 64.2799 71.7367 64.2793 71.1459C64.2792 70.8533 64.3368 70.5635 64.4487 70.2931C64.5606 70.0228 64.7246 69.7771 64.9315 69.5701C65.1383 69.3632 65.3839 69.199 65.6542 69.0869C65.9245 68.9749 66.2143 68.9171 66.5069 68.9171H104.627C104.92 68.9173 105.209 68.9752 105.479 69.0873C105.749 69.1994 105.995 69.3637 106.201 69.5706C106.408 69.7776 106.572 70.0232 106.683 70.2935C106.795 70.5638 106.852 70.8534 106.852 71.1459ZM95.2065 79.4392C95.2065 80.661 94.2057 81.6619 92.9752 81.6619H66.5044C65.9154 81.6612 65.3506 81.4268 64.9343 81.01C64.518 80.5932 64.2842 80.0282 64.2842 79.4392C64.2842 78.8233 64.5267 78.2695 64.932 77.8649C65.1376 77.6567 65.3824 77.4913 65.6523 77.3783C65.9222 77.2654 66.2118 77.207 66.5044 77.2067H92.9752C93.567 77.2073 94.1343 77.4428 94.5527 77.8614C94.971 78.2799 95.2062 78.8474 95.2065 79.4392Z" fill="#CCE9FF"/>
</g>
<defs>
<clipPath id="clip0_1311_1575">
<rect width="307" height="258.494" fill="white" transform="translate(0 0.157227)"/>
</clipPath>
</defs>
</svg>
